<svg width="285" height="33" fill="none" xmlns="http://www.w3.org/2000/svg"><path fill-rule="evenodd" clip-rule="evenodd" d="M176.243 20.126v-6.364l6.864 6.364h-6.864Zm33.457 0h-17.948L170.545 0v33h5.698v-7.25h12.925L196.99 33h8.328l-7.64-7.25H209.7c1.534 0 2.779-1.262 2.779-2.812 0-1.554-1.245-2.812-2.779-2.812ZM107.505 20.126l7.225-6.807v6.807h-7.225ZM124.45 8.065c-.66 7.325 2.921 11.024 7.085 11.024s18.044.148 18.044.148 3.723 0 3.723 3.107v2.516s-.288 2.775-2.736 2.775c-2.448 0-30.062-.406-30.062-.406L120.577 0l-20.85 20.126H81.855c-1.53 0-2.775 1.258-2.775 2.812 0 1.55 1.244 2.811 2.775 2.811H93.9L86.387 33h7.45l7.699-7.25h13.194V33h35.942s8.037-.296 8.037-7.25v-4.443s-1.17-7.471-7.159-7.471h-19.723s-2.044-.517-2.044-3.033V8.286s.364-2.331 2.299-2.331h26.627V0h-27.101s-7.158 1.405-7.158 8.065ZM161.047 33h5.771V0h-5.771v33Z" fill="#DF2D17"/><path fill-rule="evenodd" clip-rule="evenodd" d="M6.221 32.238c-1.004 0-1.892-.154-2.667-.46-.778-.308-1.431-.731-1.955-1.278a5.345 5.345 0 0 1-1.195-1.93A7 7 0 0 1 0 26.173c0-.859.136-1.657.404-2.399a5.33 5.33 0 0 1 1.195-1.929c.524-.546 1.177-.972 1.955-1.278.775-.308 1.663-.463 2.667-.463.706 0 1.355.063 1.944.192.59.127 1.163.325 1.713.59l-.613 1.72a6.49 6.49 0 0 0-2.852-.657c-1.299 0-2.273.37-2.928 1.11-.653.743-.98 1.783-.98 3.114 0 1.332.33 2.369.99 3.11.662.742 1.632 1.114 2.918 1.114.384 0 .845-.057 1.378-.175a6.95 6.95 0 0 0 1.59-.556l.577 1.741c-.518.266-1.09.47-1.726.617a9.244 9.244 0 0 1-2.01.215ZM11.882 20.31h8.434v1.914h-6.009v2.868h5.645v1.912h-5.645v3.114h6.125v1.913h-8.55V20.31ZM30.486 20.31h2.501v11.72h-2.5l-4.43-6.643c-.272-.402-.51-.805-.725-1.198a9.175 9.175 0 0 1-.547-1.235h-.056c.102.488.179.96.238 1.42.056.456.087.869.087 1.241v6.416h-2.505V20.31h2.696l4.237 6.643c.272.406.51.805.723 1.198.212.396.394.809.55 1.235h.06a15.746 15.746 0 0 1-.243-1.416 9.685 9.685 0 0 1-.086-1.242v-6.418ZM40.596 32.03h-2.504v-9.806l-3.717.037v-1.95h9.935v1.95l-3.714-.037v9.807ZM52.727 23.945c0-.51-.18-.917-.53-1.225-.355-.306-.888-.46-1.607-.46H48.2v3.443h2.391c.666 0 1.19-.158 1.567-.47.382-.313.57-.742.57-1.288Zm2.501 0c0 .811-.251 1.503-.759 2.07-.507.567-1.159.979-1.954 1.234l3.061 4.782H52.9l-2.792-4.383h-1.908v4.383h-2.502V20.31h4.873c.742 0 1.405.097 1.981.289.58.19 1.067.446 1.465.772.4.324.702.71.907 1.156.202.447.305.92.305 1.417ZM60.373 27.528h3.236l-.64-1.758-.96-2.99h-.04l-.96 2.99-.636 1.758Zm3.965 1.879h-4.697l-.981 2.624h-2.62l4.68-11.72h2.54l4.682 11.72h-2.62l-.984-2.624ZM69.403 20.31l2.504-.015v9.79h5.738v1.946h-8.242V20.31ZM223.63 32.238c-1 0-1.888-.154-2.667-.46-.775-.308-1.427-.731-1.954-1.278a5.39 5.39 0 0 1-1.193-1.93 6.929 6.929 0 0 1-.403-2.398c0-.859.132-1.657.403-2.399a5.376 5.376 0 0 1 1.193-1.929c.527-.546 1.179-.972 1.954-1.278.779-.308 1.667-.463 2.667-.463.706 0 1.351.063 1.945.192a7.65 7.65 0 0 1 1.716.59l-.616 1.72a6.486 6.486 0 0 0-2.853-.657c-1.295 0-2.272.373-2.925 1.11-.655.743-.984 1.783-.984 3.114 0 1.332.332 2.369.994 3.11.659.745 1.634 1.114 2.915 1.114a6.49 6.49 0 0 0 1.378-.175 6.979 6.979 0 0 0 1.59-.552l.577 1.737a7.35 7.35 0 0 1-1.723.617 9.086 9.086 0 0 1-2.014.215ZM228.437 20.31h7.738v1.917l-5.512-.003v2.872h5.177v1.912h-5.177v3.11h5.615v1.913h-7.841V20.31ZM243.191 32.242s-2.077-6.157-2.229-6.677l-.981 6.465h-2.299l1.677-11.716h2.262l2.766 8.683c.063-.43 2.438-8.683 2.438-8.683h2.664l1.781 11.716h-2.447l-.855-6.633c-.156.52-2.424 6.845-2.424 6.845h-2.353ZM253.036 20.314h8.435v1.91h-6.01v2.872h5.645v1.912h-5.645v3.11h6.126v1.913h-8.551V20.314ZM271.511 20.314h2.405v11.717h-2.405l-5.022-6.64c-.308-.406-.58-.805-.818-1.202a8.163 8.163 0 0 1-.623-1.235h-.067c.117.488.21.96.273 1.42.066.456.095.869.095 1.241v6.416h-2.325V20.314h2.548l4.8 6.64c.307.406.582.808.821 1.198.242.396.447.809.623 1.235h.066a14.295 14.295 0 0 1-.271-1.416 8.637 8.637 0 0 1-.1-1.245v-6.412ZM281.283 32.03h-2.504v-9.806l-3.717.037v-1.947H285v1.947l-3.717-.037v9.807Z" fill="#151616"/></svg>