<svg width="60" height="60" fill="none" xmlns="http://www.w3.org/2000/svg"><path d="M56.193 12.197c.013-.16.02-.32.02-.479 0-4.39-3.572-7.962-7.963-7.962-.09 0-.178.003-.382.012l-35.845-.002a6.548 6.548 0 0 0-.318-.01c-4.384 0-7.95 3.565-7.95 7.952l.012.642h-.018l.023 34.861-.01 1.194c0 4.338 3.529 7.867 7.866 7.867.097 0 .41-.014.416-.014l35.68.005c.174.02.364.027.559.027a7.814 7.814 0 0 0 5.56-2.303 7.797 7.797 0 0 0 2.305-5.554l-.009-.704h.054V12.197ZM11.799 52.85l-.152-.011c-2.491 0-4.462-2.043-4.484-4.647v-28.7H52.78l.027 28.43-.052.167a1.09 1.09 0 0 0-.047.303 4.46 4.46 0 0 1-4.21 4.454l-.634.036v-.03L11.8 52.85ZM52.78 16.08H7.166l-.022-3.864.05-.17c.03-.107.046-.214.046-.308 0-2.475 2.034-4.492 4.58-4.5l.027-.005 36.221.001.156.012a4.503 4.503 0 0 1 4.498 4.498c0 .078.012.158.039.266l.019.052v4.018Z" fill="url(#a)" fill-opacity=".5"/><path d="M40.88 27.623c-.463 0-.898.18-1.227.509L26.562 41.224l-6.254-6.253a1.724 1.724 0 0 0-2.447-.002 1.726 1.726 0 0 0 0 2.448l7.474 7.475c.326.326.762.505 1.227.505.464 0 .9-.18 1.226-.506L42.1 30.581c.327-.324.508-.756.51-1.219a1.72 1.72 0 0 0-.51-1.23 1.706 1.706 0 0 0-1.22-.509Z" fill="url(#b)" fill-opacity=".5"/><defs><linearGradient id="a" x1="29.98" y1="3.756" x2="29.98" y2="56.29" gradientUnits="userSpaceOnUse"><stop stop-color="#fff"/><stop offset="1" stop-color="#999"/></linearGradient><linearGradient id="b" x1="29.981" y1="27.623" x2="29.981" y2="45.397" gradientUnits="userSpaceOnUse"><stop stop-color="#fff"/><stop offset="1" stop-color="#999"/></linearGradient></defs></svg>