<svg width="451" height="42" fill="none" xmlns="http://www.w3.org/2000/svg"><path d="M21.5 5h429l-20 32H0L21.5 5Z" fill="#ED5A00"/><path d="M37.5 0h404l-26 42H8.5l29-42Z" fill="#1E1E1E"/><path d="M57.76 10.42c.12 0 .23.04.33.12.12.08.2.17.24.27l4.17 10.44c.04.1.07.23.09.39.04.16.06.3.06.42v8.52c0 .28-.14.42-.42.42h-1.41c-.28 0-.42-.14-.42-.42v-5.55H49.51v5.55c0 .28-.14.42-.42.42h-1.44c-.28 0-.42-.14-.42-.42v-8.52c0-.12.01-.26.03-.42.04-.16.08-.29.12-.39l4.17-10.44c.04-.1.12-.19.24-.27.12-.08.23-.12.33-.12h5.64Zm2.64 12.36v-.72l-3.75-9.36h-3.39l-3.75 9.36v.72H60.4Z" fill="#ED5A00"/><path d="m80.748 30.61-3.9-8.76h-6.42v8.73c0 .28-.14.42-.42.42h-1.41c-.28 0-.42-.14-.42-.42V10.84c0-.28.14-.42.42-.42h10.62c.6 0 1.16.12 1.68.36.54.22 1.01.53 1.41.93.4.4.71.87.93 1.41.24.52.36 1.08.36 1.68v2.67c0 .98-.3 1.86-.9 2.64-.58.76-1.34 1.28-2.28 1.56l-1.02.3 3.84 8.64c.06.1.06.19 0 .27-.04.08-.12.12-.24.12h-1.65c-.12 0-.24-.04-.36-.12a.605.605 0 0 1-.24-.27Zm-10.32-11.04h8.79c.58 0 1.07-.2 1.47-.6.42-.42.63-.92.63-1.5V14.8c0-.58-.21-1.07-.63-1.47-.4-.42-.89-.63-1.47-.63h-8.79v6.87ZM95.666 30.58V12.7h-6.15c-.28 0-.42-.14-.42-.42v-1.44c0-.28.14-.42.42-.42h14.58c.28 0 .42.14.42.42v1.44c0 .28-.14.42-.42.42h-6.15v17.88c0 .12-.05.22-.15.3-.08.08-.17.12-.27.12h-1.44c-.28 0-.42-.14-.42-.42Z" fill="#fff"/><path d="M130.873 26.62v-1.38c0-.1.04-.19.12-.27.1-.1.2-.15.3-.15h1.44c.12 0 .22.05.3.15.08.08.12.17.12.27v1.38c0 .58.2 1.08.6 1.5.42.4.92.6 1.5.6h6.69c.58 0 1.07-.2 1.47-.6.42-.42.63-.92.63-1.5v-2.67c0-.58-.21-1.07-.63-1.47-.4-.42-.89-.63-1.47-.63h-6.69c-.6 0-1.17-.11-1.71-.33-.52-.24-.98-.55-1.38-.93-.4-.4-.72-.87-.96-1.41-.22-.54-.33-1.11-.33-1.71V14.8c0-.6.11-1.16.33-1.68.24-.54.56-1.01.96-1.41.4-.4.86-.71 1.38-.93.54-.24 1.11-.36 1.71-.36h6.69c.6 0 1.16.12 1.68.36.54.22 1.01.53 1.41.93.4.4.71.87.93 1.41.24.52.36 1.08.36 1.68v1.38c0 .28-.14.42-.42.42h-1.44c-.28 0-.42-.14-.42-.42V14.8c0-.58-.21-1.07-.63-1.47-.4-.42-.89-.63-1.47-.63h-6.69c-.58 0-1.08.21-1.5.63-.4.4-.6.89-.6 1.47v2.67c0 .58.2 1.08.6 1.5.42.4.92.6 1.5.6h6.69c.6 0 1.16.12 1.68.36.54.22 1.01.53 1.41.93.4.4.71.87.93 1.41.24.52.36 1.08.36 1.68v2.67c0 .6-.12 1.17-.36 1.71-.22.54-.53 1.01-.93 1.41-.4.38-.87.69-1.41.93-.52.22-1.08.33-1.68.33h-6.69c-.6 0-1.17-.11-1.71-.33-.52-.24-.98-.55-1.38-.93-.4-.4-.72-.87-.96-1.41-.22-.54-.33-1.11-.33-1.71Z" fill="#ED5A00"/><path d="M158.391 30.58V12.7h-6.15c-.28 0-.42-.14-.42-.42v-1.44c0-.28.14-.42.42-.42h14.58c.28 0 .42.14.42.42v1.44c0 .28-.14.42-.42.42h-6.15v17.88c0 .12-.05.22-.15.3-.08.08-.17.12-.27.12h-1.44c-.28 0-.42-.14-.42-.42ZM173.129 30.58v-1.44c0-.1.04-.19.12-.27.08-.1.18-.15.3-.15h5.76V12.7h-5.76c-.28 0-.42-.14-.42-.42v-1.44c0-.28.14-.42.42-.42h13.77c.28 0 .42.14.42.42v1.44c0 .28-.14.42-.42.42h-5.73v16.02h5.73c.12 0 .22.05.3.15.08.08.12.17.12.27v1.44c0 .28-.14.42-.42.42h-13.77c-.28 0-.42-.14-.42-.42ZM194.856 10.42h1.44c.28 0 .42.14.42.42v17.88h11.73c.12 0 .22.05.3.15.08.08.12.17.12.27v1.44c0 .28-.14.42-.42.42h-13.59c-.1 0-.2-.04-.3-.12a.407.407 0 0 1-.12-.3V10.84c0-.12.04-.22.12-.3.1-.08.2-.12.3-.12ZM215.774 10.42h1.44c.28 0 .42.14.42.42v17.88h11.73c.12 0 .22.05.3.15.08.08.12.17.12.27v1.44c0 .28-.14.42-.42.42h-13.59c-.1 0-.2-.04-.3-.12a.407.407 0 0 1-.12-.3V10.84c0-.12.04-.22.12-.3.1-.08.2-.12.3-.12Z" fill="#fff"/><path d="M271.801 16.18c0 .28-.14.42-.42.42h-1.44c-.28 0-.42-.14-.42-.42v-1.41c-.02-.58-.23-1.07-.63-1.47-.4-.4-.89-.6-1.47-.6h-6.69c-.58 0-1.08.21-1.5.63-.4.4-.6.89-.6 1.47v11.82c0 .58.2 1.08.6 1.5.42.4.92.6 1.5.6h6.69c.58 0 1.07-.19 1.47-.57.4-.4.61-.89.63-1.47v-1.44c0-.1.04-.19.12-.27.08-.1.18-.15.3-.15h1.44c.12 0 .22.05.3.15.08.08.12.17.12.27v1.44c0 .6-.12 1.16-.36 1.68s-.56.98-.96 1.38c-.38.38-.84.69-1.38.93-.52.22-1.08.33-1.68.33h-6.69c-.6 0-1.17-.11-1.71-.33-.52-.24-.98-.55-1.38-.93-.38-.4-.69-.87-.93-1.41-.22-.54-.33-1.11-.33-1.71V14.8c0-.6.11-1.16.33-1.68.24-.54.55-1.01.93-1.41.4-.4.86-.71 1.38-.93.54-.24 1.11-.36 1.71-.36h6.69c.6 0 1.16.12 1.68.36.54.22 1 .53 1.38.93.4.38.72.84.96 1.38.24.52.36 1.08.36 1.68v1.41Z" fill="#ED5A00"/><path d="M281.649 31c-.6 0-1.17-.11-1.71-.33-.52-.24-.98-.55-1.38-.93-.38-.4-.69-.87-.93-1.41-.22-.54-.33-1.11-.33-1.71V14.8c0-.6.11-1.16.33-1.68.24-.54.55-1.01.93-1.41.4-.4.86-.71 1.38-.93.54-.24 1.11-.36 1.71-.36h6.69c.6 0 1.16.12 1.68.36.54.22 1.01.53 1.41.93.4.4.71.87.93 1.41.24.52.36 1.08.36 1.68v11.82c0 .6-.12 1.17-.36 1.71-.22.54-.53 1.01-.93 1.41-.4.38-.87.69-1.41.93-.52.22-1.08.33-1.68.33h-6.69Zm0-18.3c-.58 0-1.08.21-1.5.63-.4.4-.6.89-.6 1.47v11.82c0 .58.2 1.08.6 1.5.42.4.92.6 1.5.6h6.69c.58 0 1.07-.2 1.47-.6.42-.42.63-.92.63-1.5V14.8c0-.58-.21-1.07-.63-1.47-.4-.42-.89-.63-1.47-.63h-6.69ZM310.727 10.78c.06-.1.15-.18.27-.24.14-.08.27-.12.39-.12h1.83c.28 0 .42.14.42.42v19.74c0 .28-.14.42-.42.42h-1.44c-.28 0-.42-.14-.42-.42V13.27l-4.35 7.08c-.06.1-.16.19-.3.27-.12.06-.23.09-.33.09h-.9c-.12 0-.25-.03-.39-.09a.867.867 0 0 1-.27-.27l-4.35-7.08v17.31c0 .28-.14.42-.42.42h-1.41c-.28 0-.42-.14-.42-.42V10.84c0-.28.14-.42.42-.42h1.83c.1 0 .21.04.33.12.14.06.24.14.3.24l4.83 7.2 4.8-7.2ZM319.105 30.58V10.84c0-.12.04-.22.12-.3.1-.08.2-.12.3-.12h10.65c.6 0 1.16.12 1.68.36.54.22 1.01.53 1.41.93.4.4.71.87.93 1.41.24.52.36 1.08.36 1.68v2.67c0 .6-.12 1.17-.36 1.71-.22.54-.53 1.01-.93 1.41-.4.38-.87.69-1.41.93-.52.22-1.08.33-1.68.33h-8.79v8.73c0 .28-.14.42-.42.42h-1.44c-.1 0-.2-.04-.3-.12a.407.407 0 0 1-.12-.3Zm2.28-11.01h8.79c.58 0 1.07-.2 1.47-.6.42-.42.63-.92.63-1.5V14.8c0-.58-.21-1.07-.63-1.47-.4-.42-.89-.63-1.47-.63h-8.79v6.87ZM350.553 10.42c.12 0 .23.04.33.12.12.08.2.17.24.27l4.17 10.44c.04.1.07.23.09.39.04.16.06.3.06.42v8.52c0 .28-.14.42-.42.42h-1.41c-.28 0-.42-.14-.42-.42v-5.55h-10.89v5.55c0 .28-.14.42-.42.42h-1.44c-.28 0-.42-.14-.42-.42v-8.52c0-.12.01-.26.03-.42.04-.16.08-.29.12-.39l4.17-10.44c.04-.1.12-.19.24-.27.12-.08.23-.12.33-.12h5.64Zm2.64 12.36v-.72l-3.75-9.36h-3.39l-3.75 9.36v.72h10.89ZM374.111 30.58v-8.61l-10.89-9v17.61c0 .28-.14.42-.42.42h-1.44c-.1 0-.2-.04-.3-.12a.407.407 0 0 1-.12-.3V10.84c0-.12.04-.22.12-.3.1-.08.2-.12.3-.12h2.01c.28 0 .53.09.75.27l9.99 8.25v-8.1c0-.28.14-.42.42-.42h1.44c.28 0 .42.14.42.42v19.74c0 .28-.14.42-.42.42h-1.44c-.28 0-.42-.14-.42-.42ZM382.159 16.3c-.08-.1-.15-.21-.21-.33a.996.996 0 0 1-.09-.39v-4.74c0-.1.04-.19.12-.27.1-.1.2-.15.3-.15h1.44c.12 0 .22.05.3.15.08.08.12.17.12.27v3.84c0 .1.03.22.09.36.06.14.13.26.21.36l5.16 5.04 5.13-5.04c.1-.1.17-.22.21-.36.06-.14.09-.26.09-.36v-3.84c0-.1.04-.19.12-.27.08-.1.18-.15.3-.15h1.44c.12 0 .22.05.3.15.08.08.12.17.12.27v4.74c0 .12-.03.25-.09.39-.06.12-.13.23-.21.33l-6.27 6.24v8.04c0 .12-.05.22-.15.3-.08.08-.17.12-.27.12h-1.44c-.28 0-.42-.14-.42-.42v-8.04l-6.3-6.24Z" fill="#fff"/></svg>