<?xml version="1.0" encoding="UTF-8"?>
<svg id="Layer_1" data-name="Layer 1" xmlns="http://www.w3.org/2000/svg" viewBox="0 0 2752.35 863.11">
  <defs>
    <style>
      .cls-1 {
        fill: #1d1d1b;
        stroke-width: 0px;
      }
    </style>
  </defs>
  <path class="cls-1" d="m508.56,370.15c-2.96,2.05-5.99,3.66-9.08,4.63-10.24,3.24-22.85.26-34.2-4.4-8.08-3.34-16.55-7.66-25.44-13.13,4.65-11.34,8.99-24.25,12.7-38.56,5.75-22.21,8.51-41.78,9.06-58.95.35-10.62-.15-20.33-1.32-29.17-1.61-12.14-5.33-24.52-13.27-31.8-2.52-2.25-5.56-4.15-8.99-5.7,16.19-1.76,30.59-1.9,43.29-.97,13.35,1.14,26.93,4.42,34.85,12.2,7.94,7.78,11.43,21.33,12.83,34.61,1.31,12.7,1.41,27.09-.11,43.36-1.52,16.03-4.63,33.88-9.75,53.66h.01c-3.18,12.24-6.84,23.93-10.58,34.23Zm-195.58-10.04c-.3-3.59-.17-7.02.53-10.18,2.32-10.48,11.2-19.92,20.91-27.42,6.93-5.32,14.91-10.51,24.1-15.47,7.49,9.69,16.5,19.91,27.05,30.28,16.35,16.09,31.93,28.26,46.52,37.33,9.02,5.61,17.68,10.04,25.92,13.44,11.32,4.68,23.9,7.64,34.18,4.41,3.21-1.05,6.38-2.74,9.44-4.93-6.58,14.9-13.65,27.44-20.81,37.97-7.66,10.99-17.29,21.11-27.99,24.08-10.71,2.98-24.19-.76-36.39-6.2-11.65-5.22-24.17-12.33-37.49-21.78-13.12-9.33-27.03-20.95-41.59-35.28h0c-9.01-8.86-17.31-17.88-24.35-26.26Zm106.21-164.39c3.26,1.53,6.16,3.36,8.55,5.55,7.92,7.25,11.65,19.66,13.29,31.81,1.14,8.67,1.64,18.16,1.35,28.6-12.14,1.64-25.5,4.33-39.74,8.28-22.11,6.12-40.44,13.52-55.59,21.63-9.37,5.01-17.54,10.29-24.6,15.73-9.71,7.47-18.57,16.87-20.91,27.39-.69,3.31-.82,6.89-.45,10.64-9.62-13.15-16.94-25.54-22.48-37.01-5.69-12.13-9.64-25.53-6.86-36.28,2.77-10.76,12.75-20.57,23.56-28.41,10.34-7.48,22.76-14.76,37.61-21.58,14.64-6.7,31.66-12.93,51.35-18.38h0c12.19-3.38,24.15-6.05,34.93-7.97Z"/>
</svg>