<svg width="567" height="468" viewBox="0 0 567 468" fill="none" xmlns="http://www.w3.org/2000/svg">
<path d="M0 378H472V443C472 456.807 460.807 468 447 468H25C11.1929 468 0 456.807 0 443V378Z" fill="#292828" fill-opacity="0.6"/>
<path d="M0 20C0 8.9543 8.95431 0 20 0H547C558.046 0 567 8.9543 567 20V358C567 369.046 558.046 378 547 378H0V20Z" fill="#292828" fill-opacity="0.6"/>
<path d="M472 413C472 400 472 389 472 378C481.591 378 490.666 378 490.666 378C490.666 378 529.166 378 512.166 378C495.166 378 483.166 389 483.166 389C483.166 389 472 401 472 413Z" fill="#292828" fill-opacity="0.6"/>
</svg>
