<svg version="1.1" id="Слой_1" xmlns="http://www.w3.org/2000/svg" xmlns:xlink="http://www.w3.org/1999/xlink" x="0px" y="0px" width="118px" height="43px" viewBox="0 0 3658.146 1319.161" enable-background="new 0 0 3658.146 1319.161" xml:space="preserve">
<path fill-rule="evenodd" clip-rule="evenodd" fill="#fff" d="M2766.492,637.723c128.301-0.043,256.68,0.765,384.93,2.062
	c27.371,0.274,57.695-7.812,80.27-24.09c26.297-27.465,41.863-55.011,38.012-94.683c-1.766-18.211-5.031-40.645-14.176-56.844
	c-7.336-12.996-18.859-22.117-31.461-29.734c-14.633-8.852-30.258-13.735-47.051-16.547c-36.746-6.157-78.555-3.344-115.895-3.387
	c-60.406-0.066-120.777-0.973-181.188-0.613c-2.934,1.613-6.691,4.386-8.684,6.496
	C2836.332,492.828,2801.414,565.277,2766.492,637.723z M3204.367,1012.354l-5.848,0.903l-6.031,0.086
	c-202.125,2.808-404.582,0.109-606.797-0.52l-139.449,289.316l-410.332-0.426l59.5-123.445
	c122.781-254.734,245.293-509.598,368.273-764.234c-39.832-0.023-79.664-0.051-119.5-0.063c-2.813,1.586-6.324,4.203-8.227,6.207
	c-133.82,277.636-267.641,555.27-401.461,832.906l-23.508,48.769l-415.316-0.112l59.551-123.552
	c122.832-254.836,246.836-509.132,368.839-764.367c-39.41-0.031-78.82-0.066-118.23-0.07c-2.812,1.586-6.332,4.207-8.238,6.211
	c-133.68,277.344-267.328,554.683-399.567,832.719l-23.414,49.227l-421-0.52l59.489-123.422
	c122.789-254.742,245.722-509.414,368.535-764.145c-33.469,0.078-66.934,0.117-100.398-0.097c-2.523,1.425-5.629,3.738-7.297,5.527
	c-99.933,207.312-200.699,414.229-300.625,621.547l-1.191,2.469l-1.344,2.387c-39.191,69.616-82.843,135.238-153.738,176.288
	c-30.996,17.95-62.199,35.067-95.77,47.785c-38.25,14.493-77.003,22.2-117.457,27.411c-23.593,3.039-47.41,4.402-71.199,4.191
	c-139.019-1.224-282.804-56.293-375.246-162.438c-55.918-64.207-96.078-147.411-129.855-225.079l-0.586-1.347l-0.188-0.473
	c-0.039-0.086-0.074-0.172-0.113-0.254c-13.699-26.496-12.789-58.359,2.769-84.134c15.696-26.004,43.782-41.647,73.817-41.647h0.406
	c2.75,0,5.496,0.019,8.246,0.022c68.137,0.032,136.371-0.647,204.492,0.005l67.836,0.652l15.289,66.093
	c7.004,30.25,28.957,71.88,60.223,82.993c18.828,6.691,41.613,9.344,61.508,8.602c14.183-0.531,38.879-3.859,51.297-13.539
	c10.855-13.105,21.644-26.383,31.465-40.254c21.57-30.477,38.339-65.203,54.289-98.845
	c60.058-126.675,122.086-252.41,183.339-378.515c-173.472-0.406-346.949,0-520.425,0H187.918L366.152,17.008h2776.7l0.805,0.015
	c54.359,1.02,111.395,8.657,162.215,28.594c20.211,7.93,41.152,16.344,60.59,25.957c39.422,19.5,75.234,47.23,108.617,75.637
	c53.293,45.355,91.73,93.359,119.496,157.746c10.512,24.371,18.91,49.449,27.457,74.555c2.492,7.32,4.727,14.726,6.707,22.203
	c26.242,99.004,7.328,206.144-25.605,301.211c-26.297,75.906-104.008,165.183-167.949,213.438
	c-39.988,30.176-85.258,57.887-133.277,72.926c-7.273,2.276-14.496,4.711-21.758,7.02c-14.59,4.629-29.133,8.352-44.082,11.641
	C3225.367,1010.301,3215.055,1010.832,3204.367,1012.354z"></path>
<path fill="#fff" stroke="#000" stroke-width="34.0158" d="M2766.492,637.723c128.301-0.043,256.68,0.765,384.93,2.062
	c27.371,0.274,57.695-7.812,80.27-24.09c26.297-27.465,41.863-55.011,38.012-94.683c-1.766-18.211-5.031-40.645-14.176-56.844
	c-7.336-12.996-18.859-22.117-31.461-29.734c-14.633-8.852-30.258-13.735-47.051-16.547c-36.746-6.157-78.555-3.344-115.895-3.387
	c-60.406-0.066-120.777-0.973-181.188-0.613c-2.934,1.613-6.691,4.386-8.684,6.496
	C2836.332,492.828,2801.414,565.277,2766.492,637.723z M3204.367,1012.354l-5.848,0.903l-6.031,0.086
	c-202.125,2.808-404.582,0.109-606.797-0.52l-139.449,289.316l-410.332-0.426l59.5-123.445
	c122.781-254.734,245.293-509.598,368.273-764.234c-39.832-0.023-79.664-0.051-119.5-0.063c-2.813,1.586-6.324,4.203-8.227,6.207
	c-133.82,277.636-267.641,555.27-401.461,832.906l-23.508,48.769l-415.316-0.112l59.551-123.552
	c122.832-254.836,246.836-509.132,368.839-764.367c-39.41-0.031-78.82-0.066-118.23-0.07c-2.812,1.586-6.332,4.207-8.238,6.211
	c-133.68,277.344-267.328,554.683-399.567,832.719l-23.414,49.227l-421-0.52l59.489-123.422
	c122.789-254.742,245.722-509.414,368.535-764.145c-33.469,0.078-66.934,0.117-100.398-0.097c-2.523,1.425-5.629,3.738-7.297,5.527
	c-99.933,207.312-200.699,414.229-300.625,621.547l-1.191,2.469l-1.344,2.387c-39.191,69.616-82.843,135.238-153.738,176.288
	c-30.996,17.95-62.199,35.067-95.77,47.785c-38.25,14.493-77.003,22.2-117.457,27.411c-23.593,3.039-47.41,4.402-71.199,4.191
	c-139.019-1.224-282.804-56.293-375.246-162.438c-55.918-64.207-96.078-147.411-129.855-225.079l-0.586-1.347l-0.188-0.473
	c-0.039-0.086-0.074-0.172-0.113-0.254c-13.699-26.496-12.789-58.359,2.769-84.134c15.696-26.004,43.782-41.647,73.817-41.647h0.406
	c2.75,0,5.496,0.019,8.246,0.022c68.137,0.032,136.371-0.647,204.492,0.005l67.836,0.652l15.289,66.093
	c7.004,30.25,28.957,71.88,60.223,82.993c18.828,6.691,41.613,9.344,61.508,8.602c14.183-0.531,38.879-3.859,51.297-13.539
	c10.855-13.105,21.644-26.383,31.465-40.254c21.57-30.477,38.339-65.203,54.289-98.845
	c60.058-126.675,122.086-252.41,183.339-378.515c-173.472-0.406-346.949,0-520.425,0H187.918L366.152,17.008h2776.7l0.805,0.015
	c54.359,1.02,111.395,8.657,162.215,28.594c20.211,7.93,41.152,16.344,60.59,25.957c39.422,19.5,75.234,47.23,108.617,75.637
	c53.293,45.355,91.73,93.359,119.496,157.746c10.512,24.371,18.91,49.449,27.457,74.555c2.492,7.32,4.727,14.726,6.707,22.203
	c26.242,99.004,7.328,206.144-25.605,301.211c-26.297,75.906-104.008,165.183-167.949,213.438
	c-39.988,30.176-85.258,57.887-133.277,72.926c-7.273,2.276-14.496,4.711-21.758,7.02c-14.59,4.629-29.133,8.352-44.082,11.641
	C3225.367,1010.301,3215.055,1010.832,3204.367,1012.354z"></path>
<path fill="#fff" fill-rule="evenodd" clip-rule="evenodd" d="M321.18,327.004c201.699,0,403.437-0.656,605.133,0.266
	c26.253,0,39.847,26.253,27.195,52.503C886.598,518.598,804.18,685.82,736.133,828.608
	c-40.504,86.164-58.305,110.278-101.227,161.935c-48.781,47.59-143.633,47.854-204.054,26.383
	c-60.649-21.555-101.461-84.871-115.321-144.766c-41.476-0.398-159.886-0.004-203.703-0.004c-6.609-0.023-4.879-0.023-8.207-0.023
	h-0.406c-0.11,0-0.008,0.031,0.219,0.476c0.609,1.22,2.371,4.981,3.105,6.841c28.973,66.629,66.762,146.52,115.816,202.852
	c75.622,86.832,195.954,131.847,311.024,132.863c20.055,0.176,39.957-0.984,59.43-3.492c79.398-10.228,114.8-25.934,181.05-64.297
	c55.797-32.313,91.579-90.25,121.829-143.992c87.058-180.613,248.707-513.824,301.621-623.61
	c13.132-27.242,51.519-52.398,77.921-52.261c63.629,0.523,127.329-0.024,190.965-0.024c26.25,0,40.418,25.071,27.414,52.504
	c-98.832,204.594-308.574,639.747-402.879,835.395l229.477,0.281c134.723-283.254,240.254-502.191,400.949-835.586
	c12.653-26.25,51.559-52.5,77.813-52.5c67.523,0,141.82,0.09,209.344,0.125c26.254,0,39.852,26.25,27.266,52.504
	c-124.039,260.711-265.152,549.969-402.73,835.394l224.019,0.063c119.113-247.117,259.773-538.949,402.648-835.367
	c12.656-26.25,51.563-52.504,77.813-52.504c94.762,0.039,116.367,0.07,211.125,0.105c26.25,0,40.301,26.278,27.176,52.528
	c-146.281,303.488-270.328,560.843-402.594,835.254l219.109,0.23l139.477-289.375c204.27,0.199,473.266,3.23,659.668,0.641
	c6.359-0.984,20.398-2.102,26.266-3.391c28.777-6.332,36.789-9.906,58.598-16.734c37.891-11.867,75.641-35.719,107.121-59.477
	c49.809-37.59,118.078-114.109,138.434-172.859c28.652-82.711,48.137-182.227,18.75-267.43
	c-24.168-72.062-41.438-127.059-121.23-194.449c-26.957-23.453-58.828-48.125-90.969-64.024
	c-14.289-7.07-38.617-16.996-53.859-22.976c-40.902-16.047-88.969-21.844-132.355-22.66H421.875L321.18,327.004z M2681.797,724.055
	c-26.301-0.051-39.898-26.305-27.246-52.555c49.438-102.562,91.051-188.902,140.254-290.984c12.652-26.25,51.559-52.5,78.066-52.758
	c72.859-0.485,115.488,0.406,188.348,0.57c72.012,0,142.828-6.707,207.441,32.367c60.469,36.567,80.211,83.969,86.813,151.989
	c6.598,67.953-19.445,120.347-66.551,167.742c-29.852,23.672-78.719,46.129-138.367,45.527
	C2992.648,724.358,2793.461,723.531,2681.797,724.055z"></path>
<path fill="#fff" stroke="#000" stroke-width="34.0158" d="M321.18,327.004c201.699,0,403.437-0.656,605.133,0.266
	c26.253,0,39.847,26.253,27.195,52.503C886.598,518.598,804.18,685.82,736.133,828.608
	c-40.504,86.164-58.305,110.278-101.227,161.935c-48.781,47.59-143.633,47.854-204.054,26.383
	c-60.649-21.555-101.461-84.871-115.321-144.766c-41.476-0.398-159.886-0.004-203.703-0.004c-6.609-0.023-4.879-0.023-8.207-0.023
	h-0.406c-0.11,0-0.008,0.031,0.219,0.476c0.609,1.22,2.371,4.981,3.105,6.841c28.973,66.629,66.762,146.52,115.816,202.852
	c75.622,86.832,195.954,131.847,311.024,132.863c20.055,0.176,39.957-0.984,59.43-3.492c79.398-10.228,114.8-25.934,181.05-64.297
	c55.797-32.313,91.579-90.25,121.829-143.992c87.058-180.613,248.707-513.824,301.621-623.61
	c13.132-27.242,51.519-52.398,77.921-52.261c63.629,0.523,127.329-0.024,190.965-0.024c26.25,0,40.418,25.071,27.414,52.504
	c-98.832,204.594-308.574,639.747-402.879,835.395l229.477,0.281c134.723-283.254,240.254-502.191,400.949-835.586
	c12.653-26.25,51.559-52.5,77.813-52.5c67.523,0,141.82,0.09,209.344,0.125c26.254,0,39.852,26.25,27.266,52.504
	c-124.039,260.711-265.152,549.969-402.73,835.394l224.019,0.063c119.113-247.117,259.773-538.949,402.648-835.367
	c12.656-26.25,51.563-52.504,77.813-52.504c94.762,0.039,116.367,0.07,211.125,0.105c26.25,0,40.301,26.278,27.176,52.528
	c-146.281,303.488-270.328,560.843-402.594,835.254l219.109,0.23l139.477-289.375c204.27,0.199,473.266,3.23,659.668,0.641
	c6.359-0.984,20.398-2.102,26.266-3.391c28.777-6.332,36.789-9.906,58.598-16.734c37.891-11.867,75.641-35.719,107.121-59.477
	c49.809-37.59,118.078-114.109,138.434-172.859c28.652-82.711,48.137-182.227,18.75-267.43
	c-24.168-72.062-41.438-127.059-121.23-194.449c-26.957-23.453-58.828-48.125-90.969-64.024
	c-14.289-7.07-38.617-16.996-53.859-22.976c-40.902-16.047-88.969-21.844-132.355-22.66H421.875L321.18,327.004z M2681.797,724.055
	c-26.301-0.051-39.898-26.305-27.246-52.555c49.438-102.562,91.051-188.902,140.254-290.984c12.652-26.25,51.559-52.5,78.066-52.758
	c72.859-0.485,115.488,0.406,188.348,0.57c72.012,0,142.828-6.707,207.441,32.367c60.469,36.567,80.211,83.969,86.813,151.989
	c6.598,67.953-19.445,120.347-66.551,167.742c-29.852,23.672-78.719,46.129-138.367,45.527
	C2992.648,724.358,2793.461,723.531,2681.797,724.055z"></path>
</svg>