<svg xmlns="http://www.w3.org/2000/svg" width="118" height="43" viewBox="0 0 3658.146 1319.161" xml:space="preserve"><path fill-rule="evenodd" clip-rule="evenodd" fill="#fff" d="M2766.492 637.723c128.301-.043 256.68.765 384.93 2.062 27.371.274 57.695-7.812 80.27-24.09 26.297-27.465 41.863-55.011 38.012-94.683-1.766-18.211-5.031-40.645-14.176-56.844-7.336-12.996-18.859-22.117-31.461-29.734-14.633-8.852-30.258-13.735-47.051-16.547-36.746-6.157-78.555-3.344-115.895-3.387-60.406-.066-120.777-.973-181.188-.613-2.934 1.613-6.691 4.386-8.684 6.496-34.917 72.445-69.835 144.894-104.757 217.34zm437.875 374.631-5.848.903-6.031.086c-202.125 2.808-404.582.109-606.797-.52l-139.449 289.316-410.332-.426 59.5-123.445c122.781-254.734 245.293-509.598 368.273-764.234-39.832-.023-79.664-.051-119.5-.063-2.813 1.586-6.324 4.203-8.227 6.207l-401.461 832.906-23.508 48.769-415.316-.112 59.551-123.552c122.832-254.836 246.836-509.132 368.839-764.367-39.41-.031-78.82-.066-118.23-.07-2.812 1.586-6.332 4.207-8.238 6.211-133.68 277.344-267.328 554.683-399.567 832.719l-23.414 49.227-421-.52 59.489-123.422c122.789-254.742 245.722-509.414 368.535-764.145-33.469.078-66.934.117-100.398-.097-2.523 1.425-5.629 3.738-7.297 5.527-99.933 207.312-200.699 414.229-300.625 621.547l-1.191 2.469-1.344 2.387c-39.191 69.616-82.843 135.238-153.738 176.288-30.996 17.95-62.199 35.067-95.77 47.785-38.25 14.493-77.003 22.2-117.457 27.411-23.593 3.039-47.41 4.402-71.199 4.191-139.019-1.224-282.804-56.293-375.246-162.438-55.918-64.207-96.078-147.411-129.855-225.079l-.586-1.347-.188-.473c-.039-.086-.074-.172-.113-.254-13.699-26.496-12.789-58.359 2.769-84.134 15.696-26.004 43.782-41.647 73.817-41.647h.406c2.75 0 5.496.019 8.246.022 68.137.032 136.371-.647 204.492.005l67.836.652 15.289 66.093c7.004 30.25 28.957 71.88 60.223 82.993 18.828 6.691 41.613 9.344 61.508 8.602 14.183-.531 38.879-3.859 51.297-13.539 10.855-13.105 21.644-26.383 31.465-40.254 21.57-30.477 38.339-65.203 54.289-98.845 60.058-126.675 122.086-252.41 183.339-378.515-173.472-.406-346.949 0-520.425 0H187.918L366.152 17.008h2776.7l.805.015c54.359 1.02 111.395 8.657 162.215 28.594 20.211 7.93 41.152 16.344 60.59 25.957 39.422 19.5 75.234 47.23 108.617 75.637 53.293 45.355 91.73 93.359 119.496 157.746 10.512 24.371 18.91 49.449 27.457 74.555a334.947 334.947 0 0 1 6.707 22.203c26.242 99.004 7.328 206.144-25.605 301.211-26.297 75.906-104.008 165.183-167.949 213.438-39.988 30.176-85.258 57.887-133.277 72.926-7.273 2.276-14.496 4.711-21.758 7.02-14.59 4.629-29.133 8.352-44.082 11.641-10.701 2.35-21.013 2.881-31.701 4.403z"/><path fill="#fff" stroke="#000" stroke-width="34.016" d="M2766.492 637.723c128.301-.043 256.68.765 384.93 2.062 27.371.274 57.695-7.812 80.27-24.09 26.297-27.465 41.863-55.011 38.012-94.683-1.766-18.211-5.031-40.645-14.176-56.844-7.336-12.996-18.859-22.117-31.461-29.734-14.633-8.852-30.258-13.735-47.051-16.547-36.746-6.157-78.555-3.344-115.895-3.387-60.406-.066-120.777-.973-181.188-.613-2.934 1.613-6.691 4.386-8.684 6.496-34.917 72.445-69.835 144.894-104.757 217.34zm437.875 374.631-5.848.903-6.031.086c-202.125 2.808-404.582.109-606.797-.52l-139.449 289.316-410.332-.426 59.5-123.445c122.781-254.734 245.293-509.598 368.273-764.234-39.832-.023-79.664-.051-119.5-.063-2.813 1.586-6.324 4.203-8.227 6.207l-401.461 832.906-23.508 48.769-415.316-.112 59.551-123.552c122.832-254.836 246.836-509.132 368.839-764.367-39.41-.031-78.82-.066-118.23-.07-2.812 1.586-6.332 4.207-8.238 6.211-133.68 277.344-267.328 554.683-399.567 832.719l-23.414 49.227-421-.52 59.489-123.422c122.789-254.742 245.722-509.414 368.535-764.145-33.469.078-66.934.117-100.398-.097-2.523 1.425-5.629 3.738-7.297 5.527-99.933 207.312-200.699 414.229-300.625 621.547l-1.191 2.469-1.344 2.387c-39.191 69.616-82.843 135.238-153.738 176.288-30.996 17.95-62.199 35.067-95.77 47.785-38.25 14.493-77.003 22.2-117.457 27.411-23.593 3.039-47.41 4.402-71.199 4.191-139.019-1.224-282.804-56.293-375.246-162.438-55.918-64.207-96.078-147.411-129.855-225.079l-.586-1.347-.188-.473c-.039-.086-.074-.172-.113-.254-13.699-26.496-12.789-58.359 2.769-84.134 15.696-26.004 43.782-41.647 73.817-41.647h.406c2.75 0 5.496.019 8.246.022 68.137.032 136.371-.647 204.492.005l67.836.652 15.289 66.093c7.004 30.25 28.957 71.88 60.223 82.993 18.828 6.691 41.613 9.344 61.508 8.602 14.183-.531 38.879-3.859 51.297-13.539 10.855-13.105 21.644-26.383 31.465-40.254 21.57-30.477 38.339-65.203 54.289-98.845 60.058-126.675 122.086-252.41 183.339-378.515-173.472-.406-346.949 0-520.425 0H187.918L366.152 17.008h2776.7l.805.015c54.359 1.02 111.395 8.657 162.215 28.594 20.211 7.93 41.152 16.344 60.59 25.957 39.422 19.5 75.234 47.23 108.617 75.637 53.293 45.355 91.73 93.359 119.496 157.746 10.512 24.371 18.91 49.449 27.457 74.555a334.947 334.947 0 0 1 6.707 22.203c26.242 99.004 7.328 206.144-25.605 301.211-26.297 75.906-104.008 165.183-167.949 213.438-39.988 30.176-85.258 57.887-133.277 72.926-7.273 2.276-14.496 4.711-21.758 7.02-14.59 4.629-29.133 8.352-44.082 11.641-10.701 2.35-21.013 2.881-31.701 4.403z"/><path fill="#fff" fill-rule="evenodd" clip-rule="evenodd" d="M321.18 327.004c201.699 0 403.437-.656 605.133.266 26.253 0 39.847 26.253 27.195 52.503-66.91 138.825-149.328 306.047-217.375 448.835-40.504 86.164-58.305 110.278-101.227 161.935-48.781 47.59-143.633 47.854-204.054 26.383-60.649-21.555-101.461-84.871-115.321-144.766-41.476-.398-159.886-.004-203.703-.004-6.609-.023-4.879-.023-8.207-.023h-.406c-.11 0-.008.031.219.476.609 1.22 2.371 4.981 3.105 6.841 28.973 66.629 66.762 146.52 115.816 202.852 75.622 86.832 195.954 131.847 311.024 132.863 20.055.176 39.957-.984 59.43-3.492 79.398-10.228 114.8-25.934 181.05-64.297 55.797-32.313 91.579-90.25 121.829-143.992 87.058-180.613 248.707-513.824 301.621-623.61 13.132-27.242 51.519-52.398 77.921-52.261 63.629.523 127.329-.024 190.965-.024 26.25 0 40.418 25.071 27.414 52.504-98.832 204.594-308.574 639.747-402.879 835.395l229.477.281c134.723-283.254 240.254-502.191 400.949-835.586 12.653-26.25 51.559-52.5 77.813-52.5 67.523 0 141.82.09 209.344.125 26.254 0 39.852 26.25 27.266 52.504-124.039 260.711-265.152 549.969-402.73 835.394l224.019.063c119.113-247.117 259.773-538.949 402.648-835.367 12.656-26.25 51.563-52.504 77.813-52.504 94.762.039 116.367.07 211.125.105 26.25 0 40.301 26.278 27.176 52.528l-402.594 835.254 219.109.23 139.477-289.375c204.27.199 473.266 3.23 659.668.641 6.359-.984 20.398-2.102 26.266-3.391 28.777-6.332 36.789-9.906 58.598-16.734 37.891-11.867 75.641-35.719 107.121-59.477 49.809-37.59 118.078-114.109 138.434-172.859 28.652-82.711 48.137-182.227 18.75-267.43-24.168-72.062-41.438-127.059-121.23-194.449-26.957-23.453-58.828-48.125-90.969-64.024-14.289-7.07-38.617-16.996-53.859-22.976-40.902-16.047-88.969-21.844-132.355-22.66H421.875L321.18 327.004zm2360.617 397.051c-26.301-.051-39.898-26.305-27.246-52.555 49.438-102.562 91.051-188.902 140.254-290.984 12.652-26.25 51.559-52.5 78.066-52.758 72.859-.485 115.488.406 188.348.57 72.012 0 142.828-6.707 207.441 32.367 60.469 36.567 80.211 83.969 86.813 151.989 6.598 67.953-19.445 120.347-66.551 167.742-29.852 23.672-78.719 46.129-138.367 45.527-157.907-1.595-357.094-2.422-468.758-1.898z"/><path fill="#fff" stroke="#000" stroke-width="34.016" d="M321.18 327.004c201.699 0 403.437-.656 605.133.266 26.253 0 39.847 26.253 27.195 52.503-66.91 138.825-149.328 306.047-217.375 448.835-40.504 86.164-58.305 110.278-101.227 161.935-48.781 47.59-143.633 47.854-204.054 26.383-60.649-21.555-101.461-84.871-115.321-144.766-41.476-.398-159.886-.004-203.703-.004-6.609-.023-4.879-.023-8.207-.023h-.406c-.11 0-.008.031.219.476.609 1.22 2.371 4.981 3.105 6.841 28.973 66.629 66.762 146.52 115.816 202.852 75.622 86.832 195.954 131.847 311.024 132.863 20.055.176 39.957-.984 59.43-3.492 79.398-10.228 114.8-25.934 181.05-64.297 55.797-32.313 91.579-90.25 121.829-143.992 87.058-180.613 248.707-513.824 301.621-623.61 13.132-27.242 51.519-52.398 77.921-52.261 63.629.523 127.329-.024 190.965-.024 26.25 0 40.418 25.071 27.414 52.504-98.832 204.594-308.574 639.747-402.879 835.395l229.477.281c134.723-283.254 240.254-502.191 400.949-835.586 12.653-26.25 51.559-52.5 77.813-52.5 67.523 0 141.82.09 209.344.125 26.254 0 39.852 26.25 27.266 52.504-124.039 260.711-265.152 549.969-402.73 835.394l224.019.063c119.113-247.117 259.773-538.949 402.648-835.367 12.656-26.25 51.563-52.504 77.813-52.504 94.762.039 116.367.07 211.125.105 26.25 0 40.301 26.278 27.176 52.528l-402.594 835.254 219.109.23 139.477-289.375c204.27.199 473.266 3.23 659.668.641 6.359-.984 20.398-2.102 26.266-3.391 28.777-6.332 36.789-9.906 58.598-16.734 37.891-11.867 75.641-35.719 107.121-59.477 49.809-37.59 118.078-114.109 138.434-172.859 28.652-82.711 48.137-182.227 18.75-267.43-24.168-72.062-41.438-127.059-121.23-194.449-26.957-23.453-58.828-48.125-90.969-64.024-14.289-7.07-38.617-16.996-53.859-22.976-40.902-16.047-88.969-21.844-132.355-22.66H421.875L321.18 327.004zm2360.617 397.051c-26.301-.051-39.898-26.305-27.246-52.555 49.438-102.562 91.051-188.902 140.254-290.984 12.652-26.25 51.559-52.5 78.066-52.758 72.859-.485 115.488.406 188.348.57 72.012 0 142.828-6.707 207.441 32.367 60.469 36.567 80.211 83.969 86.813 151.989 6.598 67.953-19.445 120.347-66.551 167.742-29.852 23.672-78.719 46.129-138.367 45.527-157.907-1.595-357.094-2.422-468.758-1.898z"/></svg>