<?xml version="1.0" encoding="UTF-8"?>
<svg id="_Слой_1" data-name="Слой 1" xmlns="http://www.w3.org/2000/svg" viewBox="0 0 376 254.87">
  <defs>
    <style>
      .cls-1 {
        fill: #677c98;
      }

      .cls-1, .cls-2, .cls-3, .cls-4, .cls-5, .cls-6, .cls-7, .cls-8, .cls-9, .cls-10, .cls-11, .cls-12, .cls-13, .cls-14, .cls-15, .cls-16, .cls-17, .cls-18, .cls-19, .cls-20, .cls-21, .cls-22, .cls-23, .cls-24, .cls-25, .cls-26, .cls-27, .cls-28, .cls-29, .cls-30, .cls-31, .cls-32, .cls-33, .cls-34, .cls-35, .cls-36, .cls-37, .cls-38, .cls-39, .cls-40, .cls-41, .cls-42, .cls-43, .cls-44, .cls-45, .cls-46, .cls-47, .cls-48, .cls-49, .cls-50, .cls-51, .cls-52, .cls-53, .cls-54, .cls-55, .cls-56, .cls-57, .cls-58, .cls-59, .cls-60, .cls-61, .cls-62, .cls-63, .cls-64, .cls-65, .cls-66, .cls-67, .cls-68, .cls-69 {
        fill-rule: evenodd;
        stroke-width: 0px;
      }

      .cls-2 {
        fill: #254377;
      }

      .cls-3 {
        fill: #224275;
      }

      .cls-4 {
        fill: #224176;
      }

      .cls-5 {
        fill: #224276;
      }

      .cls-6 {
        fill: #234376;
      }

      .cls-7 {
        fill: #234275;
      }

      .cls-8 {
        fill: #234277;
      }

      .cls-9 {
        fill: #214175;
      }

      .cls-10 {
        fill: #214176;
      }

      .cls-11 {
        fill: #224274;
      }

      .cls-12 {
        fill: #244375;
      }

      .cls-13 {
        fill: #244377;
      }

      .cls-14 {
        fill: #244376;
      }

      .cls-15 {
        fill: #5c7493;
      }

      .cls-16 {
        fill: #264477;
      }

      .cls-17 {
        fill: #1c4079;
      }

      .cls-18 {
        fill: #778cae;
      }

      .cls-19 {
        fill: #274577;
      }

      .cls-20 {
        fill: #5d6984;
      }

      .cls-21 {
        fill: #95a7bc;
      }

      .cls-22 {
        fill: #94a2b4;
      }

      .cls-23 {
        fill: #7187a9;
      }

      .cls-24 {
        fill: #899bb5;
      }

      .cls-25 {
        fill: #dcb062;
      }

      .cls-26 {
        fill: #c4d2ee;
      }

      .cls-27 {
        fill: #eda933;
      }

      .cls-28 {
        fill: #edb65f;
      }

      .cls-29 {
        fill: #feefd3;
      }

      .cls-30 {
        fill: #e3b156;
      }

      .cls-31 {
        fill: #faf0d4;
      }

      .cls-32 {
        fill: #fae9bf;
      }

      .cls-33 {
        fill: #fbdb9a;
      }

      .cls-34 {
        fill: #fcf1d2;
      }

      .cls-35 {
        fill: #fcfbf4;
      }

      .cls-36 {
        fill: #f5d49a;
      }

      .cls-37 {
        fill: #f5f8f9;
      }

      .cls-38 {
        fill: #e7c178;
      }

      .cls-39 {
        fill: #e7edf3;
      }

      .cls-40 {
        fill: #e8b358;
      }

      .cls-41 {
        fill: #fcdda0;
      }

      .cls-42 {
        fill: #eedba7;
      }

      .cls-43 {
        fill: #e3c68d;
      }

      .cls-44 {
        fill: #eec171;
      }

      .cls-45 {
        fill: #e8f0f6;
      }

      .cls-46 {
        fill: #eacf8d;
      }

      .cls-47 {
        fill: #e9a833;
      }

      .cls-48 {
        fill: #fff8d2;
      }

      .cls-49 {
        fill: #f2a627;
      }

      .cls-50 {
        fill: #f2a420;
      }

      .cls-51 {
        fill: #f0c777;
      }

      .cls-52 {
        fill: #f0a729;
      }

      .cls-53 {
        fill: #f0a629;
      }

      .cls-54 {
        fill: #f0a627;
      }

      .cls-55 {
        fill: #f0a526;
      }

      .cls-56 {
        fill: #f0a524;
      }

      .cls-57 {
        fill: #fdf6de;
      }

      .cls-58 {
        fill: #fdf4d7;
      }

      .cls-59 {
        fill: #fdf5de;
      }

      .cls-60 {
        fill: #fdf9e1;
      }

      .cls-61 {
        fill: #6b7d98;
      }

      .cls-62 {
        fill: #97a5c3;
      }

      .cls-63 {
        fill: #7f8fb3;
      }

      .cls-64 {
        fill: #9fb1c8;
      }

      .cls-65 {
        fill: #efa526;
      }

      .cls-66 {
        fill: #f1a626;
      }

      .cls-67 {
        fill: #f4d691;
      }

      .cls-68 {
        fill: #f8fafa;
      }

      .cls-69 {
        fill: #f6f9fa;
      }
    </style>
  </defs>
  <path class="cls-36" d="m137,4.11c16.49-1.16,33.16-1.33,50-.5.67.33,1.33.67,2,1-2.62.82-5.28,1.32-8,1.5.76-.77,1.76-1.27,3-1.5-15.66-.5-31.33-.67-47-.5Z"/>
  <path class="cls-5" d="m216,.11c2.54-.4,4.71.27,6.5,2l21,36c1.3,1.9,1.97,3.9,2,6-14.47-18.14-33.3-25.64-56.5-22.5-6.27,1.16-12.27,2.83-18,5,15.06-8.86,30.06-17.69,45-26.5Z"/>
  <path class="cls-56" d="m137,4.11c15.67-.17,31.34,0,47,.5-1.24.23-2.24.73-3,1.5-23.58,5.92-38.59,20.59-45,44-1-14.49-1.33-29.16-1-44,.33-1,1-1.67,2-2Z"/>
  <path class="cls-20" d="m121,38.11h-2c2.49-4.31,4.99-8.64,7.5-13-1.27,4.54-3.1,8.88-5.5,13Z"/>
  <path class="cls-25" d="m135,6.11c-.33,14.84,0,29.51,1,44-.57,4.65-1.07,9.32-1.5,14-.83-19.5-.66-38.84.5-58Z"/>
  <path class="cls-46" d="m226,49.11c-.99-.17-1.66.16-2,1-2.17-2-4.5-3.83-7-5.5,3.5.42,6.5,1.92,9,4.5Z"/>
  <path class="cls-14" d="m119,38.11h2c-6.45,26.58.89,48.41,22,65.5-.33.17-.67.33-1,.5-14.58-8.54-29.08-17.21-43.5-26-.71-2.47-.37-4.8,1-7,6.51-11.03,13.01-22.03,19.5-33Z"/>
  <path class="cls-1" d="m144,62.11c1.76-.96,3.76-1.29,6-1-.32,4.53.01,8.87,1,13-.06.54-.39.88-1,1-.99-4.28-1.33-8.62-1-13h-5Z"/>
  <path class="cls-19" d="m177,61.11c4.84-.38,9.5.28,14,2,1.33,1.67,1.33,3.33,0,5-4.39-2.16-8.89-2.49-13.5-1-.72,1.61-.55,3.11.5,4.5,3.67,1,7.33,2,11,3,5.9,6.22,4.9,11.22-3,15-5.19.99-10.19.49-15-1.5-1.33-2-1.33-4,0-6,3.71,3.51,8.04,4.67,13,3.5,3.42-1.6,3.76-3.6,1-6-2.92-.99-5.92-1.65-9-2-4.72-2.43-6.22-6.27-4.5-11.5,1.73-1.9,3.56-3.57,5.5-5Z"/>
  <path class="cls-4" d="m203,62.11c-.17,6.68,0,13.34.5,20,.94,2.45,2.78,3.45,5.5,3,2.72.45,4.56-.55,5.5-3,.5-6.66.67-13.32.5-20h6c.17,7.01,0,14.01-.5,21-.97,3.91-3.47,6.07-7.5,6.5-7.59,2.21-12.59-.29-15-7.5v-20h5Z"/>
  <path class="cls-15" d="m203,62.11h-5v20c-.99-6.81-1.33-13.81-1-21,2.23-.29,4.23.04,6,1Z"/>
  <path class="cls-7" d="m144,62.11h5c-.33,4.38,0,8.72,1,13,.61-.12.94-.46,1-1,2.79-3.96,5.79-7.79,9-11.5,2.33-.67,4.67-.67,7,0-3.52,4.02-6.86,8.19-10,12.5,3.36,4.35,6.69,8.68,10,13-1.77.96-3.77,1.29-6,1-2.8-2.98-5.47-6.14-8-9.5-1.25-.74-2.25-.57-3,.5-.98,2.79-1.31,5.79-1,9h-5v-27Z"/>
  <path class="cls-66" d="m224,50.11c.34-.84,1.01-1.17,2-1,13.88,7.71,27.38,16.04,40.5,25,.67,1.33.67,2.67,0,4-8.07,12.35-15.57,25.02-22.5,38-.84-.34-1.17-1.01-1-2,6.96-25.43.63-46.76-19-64Z"/>
  <path class="cls-62" d="m144,62.11v27h5c-.31-3.21.02-6.21,1-9v10h-7c-.33-9.51,0-18.85,1-28Z"/>
  <path class="cls-63" d="m167,88.11c.54.06.88.39,1,1-2.47,1.3-4.81,1.3-7,0,2.23.29,4.23-.04,6-1Z"/>
  <path class="cls-38" d="m243,114.11c-.17.99.16,1.66,1,2-1.28,2.45-2.78,4.78-4.5,7,.47-3.25,1.64-6.25,3.5-9Z"/>
  <path class="cls-42" d="m186,129.11c.93-.82,1.93-1.65,3-2.5-.23-.4-.56-.57-1-.5,1.4-1.43,3.07-2.6,5-3.5,1.14-.75,2.14-.58,3,.5-2.78,1.28-5.11,3.12-7,5.5-.95.48-1.95.65-3,.5Z"/>
  <path class="cls-31" d="m139,123.11c5.55.4,10.72,1.74,15.5,4,8.83,1.21,17.67,1.21,26.5,0-13.03,4.32-26.03,3.82-39-1.5-1.07-.85-2.07-1.68-3-2.5Z"/>
  <path class="cls-54" d="m139,123.11c.93.82,1.93,1.65,3,2.5,12.97,5.32,25.97,5.82,39,1.5,2.36-.17,4.69-.51,7-1,.44-.07.77.1,1,.5-1.07.85-2.07,1.68-3,2.5-1.59.65-3.25,1.15-5,1.5-7.77,5.54-15.77,10.54-24,15-3.68,1.51-7.34,3.01-11,4.5-2.78-.11-4.78-1.44-6-4-7.41-13.82-15.08-27.49-23-41,.17-.33.33-.67.5-1,5.79,7.96,12.96,14.3,21.5,19Z"/>
  <path class="cls-10" d="m224,150.11c-16.84.33-33.51,0-50-1,30.42-5.26,47.92-23.26,52.5-54,.67,17.67.67,35.33,0,53-.71.88-1.54,1.55-2.5,2Z"/>
  <path class="cls-22" d="m174,149.11c16.49,1,33.16,1.33,50,1-19.17,1.33-38.5,1.33-58,0,2.59-.98,5.25-1.31,8-1Z"/>
  <path class="cls-2" d="m314,171.11c19.47-.36,26.3,8.64,20.5,27-8.45,9.42-17.79,10.42-28,3-8.06-12.86-5.56-22.86,7.5-30Z"/>
  <path class="cls-3" d="m255,195.11h-8v10h-9v-33c6.34-.17,12.67,0,19,.5,9,2.88,11.5,8.71,7.5,17.5-2.32,3.27-5.49,4.94-9.5,5Z"/>
  <path class="cls-13" d="m172,171.11c14.71-1.11,22.21,5.56,22.5,20-3.25,11.22-10.75,16.05-22.5,14.5-12.22-5.36-15.72-14.19-10.5-26.5,2.86-3.71,6.36-6.38,10.5-8Z"/>
  <path class="cls-17" d="m158,178.11v1c-9.35-.9-18.69-.9-28,0-.18-6.2.82-6.86,3-2,1.94-.69,3.94-1.19,6-1.5-1.76-.2-3.42-.7-5-1.5,7.64-1,15.3-1.33,23-1-.28,1.91.05,3.58,1,5Z"/>
  <path class="cls-68" d="m254,180.11c2.22.06,3.22,1.23,3,3.5-.12,2.62-1.45,4.12-4,4.5h-5v-8h6Z"/>
  <path class="cls-16" d="m269,172.11c7.01-.17,14.01,0,21,.5,8.57,2.65,11.07,8.15,7.5,16.5-1.54,1.88-3.38,3.38-5.5,4.5,2.67,3.67,5.33,7.33,8,11-3.67.67-7.33.67-11,0l-6-9c-1.29-.49-2.63-.66-4-.5v10h-10v-33Z"/>
  <path class="cls-37" d="m174,179.11c9.01.51,12.51,5.18,10.5,14-6.14,5.82-11.48,5.15-16-2-.59-5.16,1.25-9.16,5.5-12Z"/>
  <path class="cls-68" d="m279,180.11c3.02-.16,6.02,0,9,.5,2.74,2.61,2.41,4.78-1,6.5h-8v-7Z"/>
  <path class="cls-69" d="m317,179.11c9.72.76,12.89,5.76,9.5,15-4.67,4-9.33,4-14,0-2.94-6.44-1.44-11.44,4.5-15Z"/>
  <path class="cls-9" d="m224,205.11c.17-6.34,0-12.68-.5-19-.51,1.03-1.01,2.03-1.5,3-1.41,1.81-2.57,3.81-3.5,6-.8,1.3-1.97,1.97-3.5,2-3.04-2.41-5.38-5.41-7-9-.28-.79-.78-1.46-1.5-2-.5,6.32-.67,12.66-.5,19h-8v-33c3.35-.16,6.68,0,10,.5,2.38,3.92,4.88,7.75,7.5,11.5,2.62-3.75,5.12-7.58,7.5-11.5,3.32-.5,6.65-.66,10-.5v33h-9Z"/>
  <path class="cls-24" d="m254,180.11h-6v8h5c-1.77.96-3.77,1.29-6,1v-10c2.56-.3,4.89.03,7,1Z"/>
  <path class="cls-6" d="m112,171.11c3.07-.32,6.07.02,9,1,4.26,11.02,8.93,21.86,14,32.5-3.33.67-6.67.67-10,0-.76-1.44-1.43-2.94-2-4.5-4.62-.99-9.29-1.33-14-1,.03,2.08-.64,3.92-2,5.5-3.05.82-6.05.65-9-.5,4.67-11.03,9.34-22.03,14-33Z"/>
  <path class="cls-64" d="m279,180.11v7h8c-2.79.98-5.79,1.31-9,1-.31-2.88.03-5.55,1-8Z"/>
  <path class="cls-39" d="m115,183.11c2.11,2.19,3.78,4.86,5,8-2.61,1.15-5.27,1.32-8,.5,1.7-2.59,2.7-5.42,3-8.5Z"/>
  <path class="cls-3" d="m352,188.11c-.28-.79-.78-1.46-1.5-2-.5,6.32-.67,12.66-.5,19h-9v-33c3.73-.32,7.39.01,11,1,2.08,3.84,4.42,7.5,7,11,2.54-3.92,5.21-7.75,8-11.5,2.98-.5,5.98-.66,9-.5v33h-8c.17-6.34,0-12.68-.5-19-1.91,4.55-4.75,8.21-8.5,11-3.02-2.33-5.35-5.33-7-9Z"/>
  <path class="cls-23" d="m352,188.11c-.67,5.67-1.33,11.33-2,17-.17-6.34,0-12.68.5-19,.72.54,1.22,1.21,1.5,2Z"/>
  <path class="cls-18" d="m208,188.11c-.67,5.67-1.33,11.33-2,17-.17-6.34,0-12.68.5-19,.72.54,1.22,1.21,1.5,2Z"/>
  <path class="cls-11" d="m158,178.11c-.95-1.42-1.28-3.09-1-5-7.7-.33-15.36,0-23,1,1.58.8,3.24,1.3,5,1.5-2.06.31-4.06.81-6,1.5-2.18-4.86-3.18-4.2-3,2,9.31-.9,18.65-.9,28,0-3.12.98-6.46,1.31-10,1v25h-9v-25h-10v-8h29v6Z"/>
  <path class="cls-8" d="m44,171.11c3.28-.28,6.44.05,9.5,1,4.4,10.71,8.9,21.37,13.5,32-3.27.99-6.6,1.32-10,1-.23-5.41-3.07-7.41-8.5-6-4.35-.61-7.18,1.06-8.5,5-3.28,1.16-6.62,1.32-10,.5,4.96-11.05,9.63-22.22,14-33.5Z"/>
  <path class="cls-45" d="m48,183.11c2.11,2.56,3.44,5.56,4,9-2.42.31-4.76-.03-7-1,1.4-2.54,2.4-5.2,3-8Z"/>
  <path class="cls-12" d="m82,197.11c5,.67,10,1.33,15,2-.37,1.94-1.04,3.77-2,5.5-8.33.5-16.66.67-25,.5.02-2.1-.64-3.93-2-5.5,5.67-6.34,11.34-12.67,17-19-5.32-.5-10.66-.67-16-.5v-8h29c.16,2.36,0,4.69-.5,7-5.38,5.87-10.54,11.87-15.5,18Z"/>
  <path class="cls-3" d="m0,172.11h9c-.17,4.35,0,8.68.5,13,3.5-4.17,7-8.33,10.5-12.5,3.67-.67,7.33-.67,11,0-4.12,4.41-8.12,8.91-12,13.5,3.33,5,6.67,10,10,15-1.4,3.75-4.07,4.92-8,3.5-2.71-3.92-5.54-7.76-8.5-11.5-3.22,3.27-4.38,7.27-3.5,12H0v-33Z"/>
  <path class="cls-61" d="m82,197.11c5.38-.33,10.71,0,16,1-.12.61-.46.94-1,1-5-.67-10-1.33-15-2Z"/>
  <path class="cls-26" d="m224,205.11c-.67-5.33-1.33-10.67-2-16,.49-.97.99-1.97,1.5-3,.5,6.32.67,12.66.5,19Z"/>
  <path class="cls-21" d="m255,195.11c-2.11.97-4.44,1.3-7,1,.31,3.21-.02,6.21-1,9v-10h8Z"/>
  <path class="cls-33" d="m190,219.11c7.15-1.15,14.49-1.32,22-.5.56.38.89.88,1,1.5-7.61-.93-15.28-1.27-23-1Z"/>
  <path class="cls-28" d="m143,225.11c-1.45-1.12-2.45-2.62-3-4.5-2.65-.5-5.31-.66-8-.5.21,1.68-.45,2.68-2,3,.54-1.62.87-3.28,1-5,3.02-.17,6.02,0,9,.5,1.67,1.84,2.67,4.01,3,6.5Z"/>
  <path class="cls-49" d="m246,224.11c1.12,3.56,2.12,7.22,3,11-1.42,2.93-.42,4.26,3,4v4c-1.43.08-2.76-.25-4-1-.89.83-1.22,1.83-1,3-5.01.17-10.01,0-15-.5,1.17-1.41.83-2.57-1-3.5,1.13-4.93,2.46-5.1,4-.5,2.33.67,4.67.67,7,0,2.57-1.88,2.57-3.71,0-5.5-.55-1.8-1.38-3.47-2.5-5-.28.92-.78,1.58-1.5,2-1.05-.15-2.05.02-3,.5,1.23,1.18,1.23,2.35,0,3.5-1.31-3.21-1.98-6.54-2-10,.22-7.15,3.89-9.65,11-7.5.74,1.82,1.41,3.65,2,5.5Z"/>
  <path class="cls-34" d="m288,219.11h-7c.33,5.04,0,10.04-1,15-2.44-1.21-4.44-2.88-6-5,1.54.2,2.88.87,4,2,1.11-1.22,1.28-2.56.5-4-.65,1.2-1.15,1.2-1.5,0,1.76-2.71,2.43-5.71,2-9,3.21-.31,6.21.02,9,1Z"/>
  <path class="cls-48" d="m167,243.11c-.67,0-1-.33-1-1v-23h-9v25c-.99-8.48-1.33-17.15-1-26h11v25Z"/>
  <path class="cls-44" d="m183,245.11v-26h-7c.33,7.85,0,15.52-1,23v-24h9c.33,9.18,0,18.18-1,27Z"/>
  <path class="cls-65" d="m183,245.11c-4.7,6.56-11.04,8.72-19,6.5-1.44-.38-2.44-1.21-3-2.5-2.7-9.4-3.7-19.07-3-29h7c-.33,7.52,0,14.85,1,22,0,.67.33,1,1,1,2.97,2.81,5.64,2.48,8-1,.99-7.48,1.33-15.15,1-23h7v26Z"/>
  <path class="cls-55" d="m288,219.11c.64,10.72-.02,21.05-2,31-5.67-4-11.33-8-17-12-.06-.54-.39-.88-1-1-.99,4.96-1.33,9.96-1,15h-7c-.33-10.85,0-21.51,1-32,4.16,3.25,8.49,6.25,13,9,1.56,2.12,3.56,3.79,6,5,.99-4.96,1.33-9.96,1-15h7Z"/>
  <path class="cls-32" d="m199,226.11h8c.33.67.67,1.33,1,2h-8v6h7v1h-8v-9Z"/>
  <path class="cls-53" d="m113,224.11c.65,1.93.98,3.93,1,6-2.75.31-5.41-.02-8-1-1.82-2.99-4.32-3.66-7.5-2-.45,2.09.39,3.59,2.5,4.5,3.4,1.08,6.73,2.24,10,3.5,1.43,1.42,2.43,3.09,3,5-.17,2.36-.51,4.69-1,7-2.74,3.53-6.4,5.2-11,5-3.07-.11-6.07-.61-9-1.5-.88-.71-1.55-1.54-2-2.5-.72-2.26-1.05-4.6-1-7h7c-.17,1.32.16,2.49,1,3.5,2.31.5,4.64.66,7,.5v-5c-4.75-.98-9.25-2.65-13.5-5-3.05-12.95,2.12-18.12,15.5-15.5,2.25,1.28,4.25,2.78,6,4.5Z"/>
  <path class="cls-35" d="m208,228.11c.67.33,1.33.67,2,1,.58,2.79-.42,4.45-3,5h-7v-6h8Z"/>
  <path class="cls-57" d="m113,224.11c2.91,1.47,3.58,3.64,2,6.5,2.53,1.32,2.53,2.48,0,3.5-1.69-1.78-3.69-2.28-6-1.5,1.26.42,1.92,1.25,2,2.5-3.27-1.26-6.6-2.42-10-3.5-2.11-.91-2.95-2.41-2.5-4.5,3.18-1.66,5.68-.99,7.5,2,2.59.98,5.25,1.31,8,1-.02-2.07-.35-4.07-1-6Z"/>
  <path class="cls-53" d="m143,225.11c4.12,8.86,7.79,17.86,11,27-3.02.17-6.02,0-9-.5-1.32-.82-1.99-1.98-2-3.5-1.9-1.3-4.23-1.97-7-2-5.17-.89-8.17,1.11-9,6h-9c3.24-10.05,7.24-19.72,12-29,1.55-.32,2.21-1.32,2-3,2.69-.16,5.35,0,8,.5.55,1.88,1.55,3.38,3,4.5Z"/>
  <path class="cls-51" d="m288,219.11c.99,10.49,1.33,21.15,1,32-1.29.24-2.29-.1-3-1,1.98-9.95,2.64-20.28,2-31Z"/>
  <path class="cls-40" d="m166,242.11c-.99-7.15-1.33-14.48-1-22h-7c-.7,9.93.3,19.6,3,29-1.56-1.45-2.9-3.11-4-5v-25h9v23Z"/>
  <path class="cls-52" d="m214,221.11c1.73.62,3.23,1.62,4.5,3,.67,3.67.67,7.33,0,11-1.73,2.11-3.57,4.11-5.5,6,1.49,2.54,3.16,4.87,5,7,.61.89.94,1.89,1,3h-9c1.97-4.05.64-6.05-4-6,.48-2.78-.52-4.78-3-6,1.69-1.02,3.02-2.36,4-4v-1c2.58-.55,3.58-2.21,3-5-.17-2.49.83-4.33,3-5.5-4.05-1.94-3.72-2.77,1-2.5Z"/>
  <path class="cls-60" d="m135,231.11c2.56,1.93,3.89,4.6,4,8h-6c.67-2.67,1.33-5.33,2-8Z"/>
  <path class="cls-41" d="m261,220.11c-.99,10.49-1.33,21.15-1,32-4.13,1.23-8.13,1.23-12,0,3.51.55,6.51-.11,9-2,1.65-9.97,2.65-20.3,3-31,.61.12.94.46,1,1Z"/>
  <path class="cls-30" d="m97,241.11h-7c-.05,2.4.28,4.74,1,7-.62-.11-1.12-.44-1.5-1-.5-2.31-.66-4.64-.5-7,2.88-.31,5.55.03,8,1Z"/>
  <path class="cls-47" d="m190,219.11c7.72-.27,15.39.07,23,1,.67,0,1,.33,1,1-4.72-.27-5.05.56-1,2.5-2.17,1.17-3.17,3.01-3,5.5-.67-.33-1.33-.67-2-1-.33-.67-.67-1.33-1-2,1.31-1.72,1.31-3.56,0-5.5-4.99-.5-9.99-.67-15-.5.21,10.18.21,20.51,0,31h6v-11c1.05.15,2.05-.02,3-.5-1.44-.22-2.77-.72-4-1.5.61-4.14,1.28-8.14,2-12v9h8c-.98,1.64-2.31,2.98-4,4,2.48,1.22,3.48,3.22,3,6,4.64-.05,5.97,1.95,4,6h9c-3.12.98-6.46,1.31-10,1-1.22-2.77-2.72-5.44-4.5-8-1.44-1.65-3.28-2.32-5.5-2v10h-9v-33Z"/>
  <path class="cls-50" d="m207,226.11h-8c-.72,3.86-1.39,7.86-2,12,1.23.78,2.56,1.28,4,1.5-.95.48-1.95.65-3,.5v11h-6c.21-10.49.21-20.82,0-31,5.01-.17,10.01,0,15,.5,1.31,1.94,1.31,3.78,0,5.5Z"/>
  <path class="cls-67" d="m114,240.11c1.37,2.51,1.03,4.85-1,7,.49-2.31.83-4.64,1-7Z"/>
  <path class="cls-27" d="m246,224.11c4.15,8.32,7.82,16.99,11,26-2.49,1.89-5.49,2.55-9,2-.3-1.9-.96-3.57-2-5-4.15-1.15-8.48-1.31-13-.5-.76,1.44-1.43,2.94-2,4.5-3.33,1.33-6.67,1.33-10,0,1.59-1.67,2.25-3.67,2-6,2.6-6.87,5.93-13.21,10-19,.02,3.46.69,6.79,2,10,1.23-1.15,1.23-2.32,0-3.5.95-.48,1.95-.65,3-.5-3.77,6.2-2.1,8.2,5,6-.63-.92-.96-1.92-1-3,2.57,1.79,2.57,3.62,0,5.5-2.33.67-4.67.67-7,0-1.54-4.6-2.87-4.43-4,.5,1.83.93,2.17,2.09,1,3.5,4.99.5,9.99.67,15,.5-.22-1.17.11-2.17,1-3,1.24.75,2.57,1.08,4,1v-4c-3.42.26-4.42-1.07-3-4-.88-3.78-1.88-7.44-3-11Z"/>
  <path class="cls-58" d="m242,235.11c.04,1.08.37,2.08,1,3-7.1,2.2-8.77.2-5-6,.72-.42,1.22-1.08,1.5-2,1.12,1.53,1.95,3.2,2.5,5Z"/>
  <path class="cls-43" d="m269,238.11c-.67,4.67-1.33,9.33-2,14-.33-5.04,0-10.04,1-15,.61.12.94.46,1,1Z"/>
  <path class="cls-29" d="m143,248.11c-4.24-.94-8.57-1.27-13-1-.14,1.62.53,2.79,2,3.5-.55.92-1.21,1.76-2,2.5-.92-.63-1.92-.96-3-1,.83-4.89,3.83-6.89,9-6,2.77.03,5.1.7,7,2Z"/>
  <path class="cls-59" d="m223,245.11c.25,2.33-.41,4.33-2,6,3.33,1.33,6.67,1.33,10,0,.57-1.56,1.24-3.06,2-4.5,4.52-.81,8.85-.65,13,.5-4.05-.32-8.05,0-12,1,2.55,1.72,2.21,3.05-1,4l2,2c-1.08,1.16-2.08.99-3-.5-7.84-.17-15.51-.67-23-1.5,3.54.31,6.88-.02,10-1-.06-1.11-.39-2.11-1-3,.72-.42,1.22-1.08,1.5-2,.31.81.81,1.48,1.5,2,.68-1.1,1.34-2.1,2-3Z"/>
</svg>