<?xml version="1.0" encoding="UTF-8"?>
<!DOCTYPE svg PUBLIC "-//W3C//DTD SVG 1.1//EN" "http://www.w3.org/Graphics/SVG/1.1/DTD/svg11.dtd">
<svg xmlns="http://www.w3.org/2000/svg" version="1.1" width="578px" height="376px" style="shape-rendering:geometricPrecision; text-rendering:geometricPrecision; image-rendering:optimizeQuality; fill-rule:evenodd; clip-rule:evenodd" xmlns:xlink="http://www.w3.org/1999/xlink">
<g><path style="opacity:1" fill="#232323" d="M -0.5,-0.5 C 192.167,-0.5 384.833,-0.5 577.5,-0.5C 577.5,124.833 577.5,250.167 577.5,375.5C 384.833,375.5 192.167,375.5 -0.5,375.5C -0.5,250.167 -0.5,124.833 -0.5,-0.5 Z"/></g>
<g><path style="opacity:1" fill="#fefefe" d="M 0.5,0.5 C 192.5,0.5 384.5,0.5 576.5,0.5C 576.5,125.167 576.5,249.833 576.5,374.5C 384.5,374.5 192.5,374.5 0.5,374.5C 0.5,249.833 0.5,125.167 0.5,0.5 Z"/></g>
<g><path style="opacity:1" fill="#f5d49a" d="M 237.5,65.5 C 253.995,64.3384 270.662,64.1717 287.5,65C 288.167,65.3333 288.833,65.6667 289.5,66C 286.883,66.8215 284.216,67.3215 281.5,67.5C 282.263,66.7321 283.263,66.2321 284.5,66C 268.837,65.5001 253.17,65.3334 237.5,65.5 Z"/></g>
<g><path style="opacity:1" fill="#224276" d="M 316.5,61.5 C 319.044,61.1043 321.211,61.771 323,63.5C 330,75.5 337,87.5 344,99.5C 345.301,101.402 345.968,103.402 346,105.5C 331.531,87.3582 312.697,79.8582 289.5,83C 283.232,84.1604 277.232,85.8271 271.5,88C 286.563,79.1403 301.563,70.307 316.5,61.5 Z"/></g>
<g><path style="opacity:1" fill="#f0a524" d="M 237.5,65.5 C 253.17,65.3334 268.837,65.5001 284.5,66C 283.263,66.2321 282.263,66.7321 281.5,67.5C 257.915,73.4189 242.915,88.0856 236.5,111.5C 235.504,97.0095 235.171,82.3428 235.5,67.5C 235.833,66.5 236.5,65.8333 237.5,65.5 Z"/></g>
<g><path style="opacity:1" fill="#5d6984" d="M 221.5,99.5 C 220.833,99.5 220.167,99.5 219.5,99.5C 221.988,95.1941 224.488,90.8608 227,86.5C 225.731,91.0422 223.898,95.3755 221.5,99.5 Z"/></g>
<g><path style="opacity:1" fill="#dcb062" d="M 235.5,67.5 C 235.171,82.3428 235.504,97.0095 236.5,111.5C 235.935,116.149 235.435,120.816 235,125.5C 234.171,105.996 234.338,86.6623 235.5,67.5 Z"/></g>
<g><path style="opacity:1" fill="#eacf8d" d="M 326.5,110.5 C 325.508,110.328 324.842,110.662 324.5,111.5C 322.329,109.5 319.996,107.666 317.5,106C 321.003,106.418 324.003,107.918 326.5,110.5 Z"/></g>
<g><path style="opacity:1" fill="#244376" d="M 219.5,99.5 C 220.167,99.5 220.833,99.5 221.5,99.5C 215.054,126.079 222.387,147.913 243.5,165C 243.167,165.167 242.833,165.333 242.5,165.5C 227.917,156.959 213.417,148.293 199,139.5C 198.294,137.029 198.627,134.695 200,132.5C 206.511,121.472 213.011,110.472 219.5,99.5 Z"/></g>
<g><path style="opacity:1" fill="#677c98" d="M 244.5,123.5 C 246.265,122.539 248.265,122.205 250.5,122.5C 250.182,127.032 250.515,131.366 251.5,135.5C 251.44,136.043 251.107,136.376 250.5,136.5C 249.508,132.217 249.174,127.884 249.5,123.5C 247.833,123.5 246.167,123.5 244.5,123.5 Z"/></g>
<g><path style="opacity:1" fill="#274577" d="M 277.5,122.5 C 282.337,122.116 287.003,122.783 291.5,124.5C 292.833,126.167 292.833,127.833 291.5,129.5C 287.111,127.344 282.611,127.011 278,128.5C 277.28,130.112 277.446,131.612 278.5,133C 282.167,134 285.833,135 289.5,136C 295.405,142.221 294.405,147.221 286.5,151C 281.311,151.985 276.311,151.485 271.5,149.5C 270.167,147.5 270.167,145.5 271.5,143.5C 275.208,147.005 279.541,148.172 284.5,147C 287.925,145.402 288.258,143.402 285.5,141C 282.576,140.012 279.576,139.346 276.5,139C 271.776,136.565 270.276,132.731 272,127.5C 273.73,125.598 275.563,123.931 277.5,122.5 Z"/></g>
<g><path style="opacity:1" fill="#224176" d="M 303.5,123.5 C 303.334,130.175 303.5,136.842 304,143.5C 304.943,145.954 306.776,146.954 309.5,146.5C 312.224,146.954 314.057,145.954 315,143.5C 315.5,136.842 315.666,130.175 315.5,123.5C 317.5,123.5 319.5,123.5 321.5,123.5C 321.666,130.508 321.5,137.508 321,144.5C 320.027,148.406 317.527,150.573 313.5,151C 305.908,153.205 300.908,150.705 298.5,143.5C 298.5,136.833 298.5,130.167 298.5,123.5C 300.167,123.5 301.833,123.5 303.5,123.5 Z"/></g>
<g><path style="opacity:1" fill="#5c7493" d="M 303.5,123.5 C 301.833,123.5 300.167,123.5 298.5,123.5C 298.5,130.167 298.5,136.833 298.5,143.5C 297.509,136.687 297.175,129.687 297.5,122.5C 299.735,122.205 301.735,122.539 303.5,123.5 Z"/></g>
<g><path style="opacity:1" fill="#234275" d="M 244.5,123.5 C 246.167,123.5 247.833,123.5 249.5,123.5C 249.174,127.884 249.508,132.217 250.5,136.5C 251.107,136.376 251.44,136.043 251.5,135.5C 254.285,131.542 257.285,127.709 260.5,124C 262.833,123.333 265.167,123.333 267.5,124C 263.977,128.022 260.643,132.189 257.5,136.5C 260.857,140.852 264.191,145.185 267.5,149.5C 265.735,150.461 263.735,150.795 261.5,150.5C 258.698,147.524 256.031,144.358 253.5,141C 252.251,140.26 251.251,140.427 250.5,141.5C 249.523,144.287 249.19,147.287 249.5,150.5C 247.833,150.5 246.167,150.5 244.5,150.5C 244.5,141.5 244.5,132.5 244.5,123.5 Z"/></g>
<g><path style="opacity:1" fill="#f1a626" d="M 324.5,111.5 C 324.842,110.662 325.508,110.328 326.5,110.5C 340.38,118.212 353.88,126.545 367,135.5C 367.667,136.833 367.667,138.167 367,139.5C 358.929,151.855 351.429,164.521 344.5,177.5C 343.662,177.158 343.328,176.492 343.5,175.5C 350.465,150.073 344.131,128.739 324.5,111.5 Z"/></g>
<g><path style="opacity:1" fill="#97a5c3" d="M 244.5,123.5 C 244.5,132.5 244.5,141.5 244.5,150.5C 246.167,150.5 247.833,150.5 249.5,150.5C 249.19,147.287 249.523,144.287 250.5,141.5C 250.5,144.833 250.5,148.167 250.5,151.5C 248.167,151.5 245.833,151.5 243.5,151.5C 243.173,141.985 243.506,132.652 244.5,123.5 Z"/></g>
<g><path style="opacity:1" fill="#7f8fb3" d="M 267.5,149.5 C 268.043,149.56 268.376,149.893 268.5,150.5C 266.027,151.797 263.693,151.797 261.5,150.5C 263.735,150.795 265.735,150.461 267.5,149.5 Z"/></g>
<g><path style="opacity:1" fill="#e7c178" d="M 343.5,175.5 C 343.328,176.492 343.662,177.158 344.5,177.5C 343.223,179.95 341.723,182.283 340,184.5C 340.473,181.249 341.64,178.249 343.5,175.5 Z"/></g>
<g><path style="opacity:1" fill="#eedba7" d="M 286.5,190.5 C 287.429,189.685 288.429,188.852 289.5,188C 289.272,187.601 288.938,187.435 288.5,187.5C 289.903,186.069 291.569,184.902 293.5,184C 294.635,183.251 295.635,183.417 296.5,184.5C 293.718,185.784 291.385,187.617 289.5,190C 288.552,190.483 287.552,190.649 286.5,190.5 Z"/></g>
<g><path style="opacity:1" fill="#faf0d4" d="M 239.5,184.5 C 245.055,184.903 250.222,186.236 255,188.5C 263.834,189.705 272.667,189.705 281.5,188.5C 268.473,192.816 255.473,192.316 242.5,187C 241.429,186.148 240.429,185.315 239.5,184.5 Z"/></g>
<g><path style="opacity:1" fill="#f0a627" d="M 239.5,184.5 C 240.429,185.315 241.429,186.148 242.5,187C 255.473,192.316 268.473,192.816 281.5,188.5C 283.861,188.326 286.194,187.993 288.5,187.5C 288.938,187.435 289.272,187.601 289.5,188C 288.429,188.852 287.429,189.685 286.5,190.5C 284.914,191.148 283.247,191.648 281.5,192C 273.727,197.543 265.727,202.543 257.5,207C 253.823,208.506 250.156,210.006 246.5,211.5C 243.719,211.393 241.719,210.059 240.5,207.5C 233.089,193.677 225.422,180.01 217.5,166.5C 217.667,166.167 217.833,165.833 218,165.5C 223.794,173.465 230.961,179.798 239.5,184.5 Z"/></g>
<g><path style="opacity:1" fill="#214176" d="M 324.5,211.5 C 307.658,211.83 290.992,211.497 274.5,210.5C 304.923,205.241 322.423,187.241 327,156.5C 327.667,174.167 327.667,191.833 327,209.5C 326.292,210.381 325.458,211.047 324.5,211.5 Z"/></g>
<g><path style="opacity:1" fill="#94a2b4" d="M 274.5,210.5 C 290.992,211.497 307.658,211.83 324.5,211.5C 305.329,212.828 285.996,212.828 266.5,211.5C 269.086,210.52 271.753,210.187 274.5,210.5 Z"/></g>
<g><path style="opacity:1" fill="#254377" d="M 414.5,232.5 C 433.968,232.142 440.802,241.142 435,259.5C 426.547,268.921 417.213,269.921 407,262.5C 398.938,249.644 401.438,239.644 414.5,232.5 Z"/></g>
<g><path style="opacity:1" fill="#224275" d="M 355.5,256.5 C 352.833,256.5 350.167,256.5 347.5,256.5C 347.5,259.833 347.5,263.167 347.5,266.5C 344.5,266.5 341.5,266.5 338.5,266.5C 338.5,255.5 338.5,244.5 338.5,233.5C 344.842,233.334 351.175,233.5 357.5,234C 366.501,236.875 369.001,242.708 365,251.5C 362.681,254.773 359.514,256.44 355.5,256.5 Z"/></g>
<g><path style="opacity:1" fill="#244377" d="M 272.5,232.5 C 287.215,231.393 294.715,238.06 295,252.5C 291.754,263.722 284.254,268.555 272.5,267C 260.283,261.64 256.783,252.807 262,240.5C 264.855,236.789 268.355,234.123 272.5,232.5 Z"/></g>
<g><path style="opacity:1" fill="#1c4079" d="M 258.5,239.5 C 258.5,239.833 258.5,240.167 258.5,240.5C 249.146,239.604 239.812,239.604 230.5,240.5C 230.325,234.303 231.325,233.637 233.5,238.5C 235.444,237.811 237.444,237.311 239.5,237C 237.744,236.798 236.078,236.298 234.5,235.5C 242.138,234.503 249.804,234.169 257.5,234.5C 257.216,236.415 257.549,238.081 258.5,239.5 Z"/></g>
<g><path style="opacity:1" fill="#f8fafa" d="M 354.5,241.5 C 356.722,241.559 357.722,242.725 357.5,245C 357.383,247.616 356.05,249.116 353.5,249.5C 351.833,249.5 350.167,249.5 348.5,249.5C 348.5,246.833 348.5,244.167 348.5,241.5C 350.5,241.5 352.5,241.5 354.5,241.5 Z"/></g>
<g><path style="opacity:1" fill="#264477" d="M 369.5,233.5 C 376.508,233.334 383.508,233.5 390.5,234C 399.074,236.652 401.574,242.152 398,250.5C 396.457,252.378 394.624,253.878 392.5,255C 395.167,258.667 397.833,262.333 400.5,266C 396.833,266.667 393.167,266.667 389.5,266C 387.5,263 385.5,260 383.5,257C 382.207,256.51 380.873,256.343 379.5,256.5C 379.5,259.833 379.5,263.167 379.5,266.5C 376.167,266.5 372.833,266.5 369.5,266.5C 369.5,255.5 369.5,244.5 369.5,233.5 Z"/></g>
<g><path style="opacity:1" fill="#f5f8f9" d="M 274.5,240.5 C 283.508,241.01 287.008,245.677 285,254.5C 278.855,260.315 273.522,259.649 269,252.5C 268.413,247.344 270.246,243.344 274.5,240.5 Z"/></g>
<g><path style="opacity:1" fill="#f8fafa" d="M 379.5,241.5 C 382.518,241.335 385.518,241.502 388.5,242C 391.243,244.611 390.91,246.778 387.5,248.5C 384.833,248.5 382.167,248.5 379.5,248.5C 379.5,246.167 379.5,243.833 379.5,241.5 Z"/></g>
<g><path style="opacity:1" fill="#f6f9fa" d="M 417.5,240.5 C 427.218,241.261 430.385,246.261 427,255.5C 422.333,259.5 417.667,259.5 413,255.5C 410.064,249.058 411.564,244.058 417.5,240.5 Z"/></g>
<g><path style="opacity:1" fill="#214175" d="M 324.5,266.5 C 324.666,260.158 324.5,253.825 324,247.5C 323.487,248.527 322.987,249.527 322.5,250.5C 321.093,252.308 319.926,254.308 319,256.5C 318.196,257.804 317.029,258.471 315.5,258.5C 312.456,256.091 310.122,253.091 308.5,249.5C 308.217,248.711 307.717,248.044 307,247.5C 306.5,253.825 306.334,260.158 306.5,266.5C 303.833,266.5 301.167,266.5 298.5,266.5C 298.5,255.5 298.5,244.5 298.5,233.5C 301.85,233.335 305.183,233.502 308.5,234C 310.876,237.919 313.376,241.752 316,245.5C 318.624,241.752 321.124,237.919 323.5,234C 326.817,233.502 330.15,233.335 333.5,233.5C 333.5,244.5 333.5,255.5 333.5,266.5C 330.5,266.5 327.5,266.5 324.5,266.5 Z"/></g>
<g><path style="opacity:1" fill="#899bb5" d="M 354.5,241.5 C 352.5,241.5 350.5,241.5 348.5,241.5C 348.5,244.167 348.5,246.833 348.5,249.5C 350.167,249.5 351.833,249.5 353.5,249.5C 351.735,250.461 349.735,250.795 347.5,250.5C 347.5,247.167 347.5,243.833 347.5,240.5C 350.059,240.198 352.393,240.532 354.5,241.5 Z"/></g>
<g><path style="opacity:1" fill="#234376" d="M 212.5,232.5 C 215.572,232.183 218.572,232.516 221.5,233.5C 225.762,244.523 230.429,255.356 235.5,266C 232.167,266.667 228.833,266.667 225.5,266C 224.74,264.559 224.074,263.059 223.5,261.5C 218.88,260.507 214.214,260.173 209.5,260.5C 209.528,262.582 208.861,264.416 207.5,266C 204.446,266.821 201.446,266.655 198.5,265.5C 203.174,254.471 207.841,243.471 212.5,232.5 Z"/></g>
<g><path style="opacity:1" fill="#9fb1c8" d="M 379.5,241.5 C 379.5,243.833 379.5,246.167 379.5,248.5C 382.167,248.5 384.833,248.5 387.5,248.5C 384.713,249.477 381.713,249.81 378.5,249.5C 378.194,246.615 378.527,243.948 379.5,241.5 Z"/></g>
<g><path style="opacity:1" fill="#e7edf3" d="M 215.5,244.5 C 217.613,246.691 219.28,249.358 220.5,252.5C 217.894,253.652 215.227,253.818 212.5,253C 214.196,250.413 215.196,247.579 215.5,244.5 Z"/></g>
<g><path style="opacity:1" fill="#224275" d="M 452.5,249.5 C 452.217,248.711 451.717,248.044 451,247.5C 450.5,253.825 450.334,260.158 450.5,266.5C 447.5,266.5 444.5,266.5 441.5,266.5C 441.5,255.5 441.5,244.5 441.5,233.5C 445.226,233.177 448.893,233.511 452.5,234.5C 454.584,238.336 456.917,242.003 459.5,245.5C 462.043,241.579 464.71,237.746 467.5,234C 470.482,233.502 473.482,233.335 476.5,233.5C 476.5,244.5 476.5,255.5 476.5,266.5C 473.833,266.5 471.167,266.5 468.5,266.5C 468.666,260.158 468.5,253.825 468,247.5C 466.087,252.048 463.254,255.715 459.5,258.5C 456.479,256.172 454.146,253.172 452.5,249.5 Z"/></g>
<g><path style="opacity:1" fill="#7187a9" d="M 452.5,249.5 C 451.833,255.167 451.167,260.833 450.5,266.5C 450.334,260.158 450.5,253.825 451,247.5C 451.717,248.044 452.217,248.711 452.5,249.5 Z"/></g>
<g><path style="opacity:1" fill="#778cae" d="M 308.5,249.5 C 307.833,255.167 307.167,260.833 306.5,266.5C 306.334,260.158 306.5,253.825 307,247.5C 307.717,248.044 308.217,248.711 308.5,249.5 Z"/></g>
<g><path style="opacity:1" fill="#224274" d="M 258.5,239.5 C 257.549,238.081 257.216,236.415 257.5,234.5C 249.804,234.169 242.138,234.503 234.5,235.5C 236.078,236.298 237.744,236.798 239.5,237C 237.444,237.311 235.444,237.811 233.5,238.5C 231.325,233.637 230.325,234.303 230.5,240.5C 239.812,239.604 249.146,239.604 258.5,240.5C 255.375,241.479 252.042,241.813 248.5,241.5C 248.5,249.833 248.5,258.167 248.5,266.5C 245.5,266.5 242.5,266.5 239.5,266.5C 239.5,258.167 239.5,249.833 239.5,241.5C 236.167,241.5 232.833,241.5 229.5,241.5C 229.5,238.833 229.5,236.167 229.5,233.5C 239.167,233.5 248.833,233.5 258.5,233.5C 258.5,235.5 258.5,237.5 258.5,239.5 Z"/></g>
<g><path style="opacity:1" fill="#234277" d="M 144.5,232.5 C 147.777,232.216 150.943,232.549 154,233.5C 158.403,244.207 162.903,254.874 167.5,265.5C 164.232,266.487 160.898,266.82 157.5,266.5C 157.266,261.09 154.432,259.09 149,260.5C 144.652,259.895 141.818,261.561 140.5,265.5C 137.216,266.657 133.882,266.824 130.5,266C 135.461,254.948 140.128,243.781 144.5,232.5 Z"/></g>
<g><path style="opacity:1" fill="#e8f0f6" d="M 148.5,244.5 C 150.607,247.057 151.941,250.057 152.5,253.5C 150.076,253.808 147.743,253.474 145.5,252.5C 146.9,249.965 147.9,247.298 148.5,244.5 Z"/></g>
<g><path style="opacity:1" fill="#244375" d="M 182.5,258.5 C 187.5,259.167 192.5,259.833 197.5,260.5C 197.131,262.441 196.464,264.275 195.5,266C 187.173,266.5 178.84,266.666 170.5,266.5C 170.523,264.4 169.856,262.567 168.5,261C 174.172,254.662 179.839,248.328 185.5,242C 180.177,241.501 174.844,241.334 169.5,241.5C 169.5,238.833 169.5,236.167 169.5,233.5C 179.167,233.5 188.833,233.5 198.5,233.5C 198.663,235.857 198.497,238.19 198,240.5C 192.624,246.372 187.457,252.372 182.5,258.5 Z"/></g>
<g><path style="opacity:1" fill="#224275" d="M 100.5,233.5 C 103.5,233.5 106.5,233.5 109.5,233.5C 109.334,237.846 109.501,242.179 110,246.5C 113.5,242.333 117,238.167 120.5,234C 124.167,233.333 127.833,233.333 131.5,234C 127.383,238.406 123.383,242.906 119.5,247.5C 122.833,252.5 126.167,257.5 129.5,262.5C 128.097,266.254 125.43,267.421 121.5,266C 118.789,262.078 115.955,258.244 113,254.5C 109.784,257.774 108.617,261.774 109.5,266.5C 106.5,266.5 103.5,266.5 100.5,266.5C 100.5,255.5 100.5,244.5 100.5,233.5 Z"/></g>
<g><path style="opacity:1" fill="#6b7d98" d="M 182.5,258.5 C 187.875,258.172 193.208,258.505 198.5,259.5C 198.376,260.107 198.043,260.44 197.5,260.5C 192.5,259.833 187.5,259.167 182.5,258.5 Z"/></g>
<g><path style="opacity:1" fill="#c4d2ee" d="M 324.5,266.5 C 323.833,261.167 323.167,255.833 322.5,250.5C 322.987,249.527 323.487,248.527 324,247.5C 324.5,253.825 324.666,260.158 324.5,266.5 Z"/></g>
<g><path style="opacity:1" fill="#95a7bc" d="M 355.5,256.5 C 353.393,257.468 351.059,257.802 348.5,257.5C 348.81,260.713 348.477,263.713 347.5,266.5C 347.5,263.167 347.5,259.833 347.5,256.5C 350.167,256.5 352.833,256.5 355.5,256.5 Z"/></g>
<g><path style="opacity:1" fill="#fbdb9a" d="M 290.5,280.5 C 297.655,279.345 304.988,279.178 312.5,280C 313.056,280.383 313.389,280.883 313.5,281.5C 305.889,280.566 298.222,280.233 290.5,280.5 Z"/></g>
<g><path style="opacity:1" fill="#edb65f" d="M 243.5,286.5 C 242.053,285.378 241.053,283.878 240.5,282C 237.854,281.503 235.187,281.336 232.5,281.5C 232.715,283.179 232.048,284.179 230.5,284.5C 231.038,282.883 231.371,281.216 231.5,279.5C 234.518,279.335 237.518,279.502 240.5,280C 242.171,281.843 243.171,284.009 243.5,286.5 Z"/></g>
<g><path style="opacity:1" fill="#f2a627" d="M 346.5,285.5 C 347.617,289.057 348.617,292.724 349.5,296.5C 348.079,299.428 349.079,300.762 352.5,300.5C 352.5,301.833 352.5,303.167 352.5,304.5C 351.07,304.579 349.736,304.246 348.5,303.5C 347.614,304.325 347.281,305.325 347.5,306.5C 342.489,306.666 337.489,306.499 332.5,306C 333.668,304.594 333.335,303.428 331.5,302.5C 332.629,297.566 333.962,297.399 335.5,302C 337.833,302.667 340.167,302.667 342.5,302C 345.066,300.121 345.066,298.288 342.5,296.5C 341.954,294.697 341.12,293.03 340,291.5C 339.722,292.416 339.222,293.082 338.5,293.5C 337.448,293.351 336.448,293.517 335.5,294C 336.731,295.183 336.731,296.349 335.5,297.5C 334.192,294.294 333.525,290.96 333.5,287.5C 333.721,280.348 337.388,277.848 344.5,280C 345.244,281.815 345.911,283.648 346.5,285.5 Z"/></g>
<g><path style="opacity:1" fill="#fcf1d2" d="M 388.5,280.5 C 386.167,280.5 383.833,280.5 381.5,280.5C 381.827,285.544 381.494,290.544 380.5,295.5C 378.059,294.291 376.059,292.624 374.5,290.5C 376.044,290.703 377.378,291.37 378.5,292.5C 379.614,291.277 379.781,289.944 379,288.5C 378.346,289.696 377.846,289.696 377.5,288.5C 379.26,285.788 379.927,282.788 379.5,279.5C 382.713,279.19 385.713,279.523 388.5,280.5 Z"/></g>
<g><path style="opacity:1" fill="#fff8d2" d="M 267.5,304.5 C 266.833,304.5 266.5,304.167 266.5,303.5C 266.5,295.833 266.5,288.167 266.5,280.5C 263.5,280.5 260.5,280.5 257.5,280.5C 257.5,288.833 257.5,297.167 257.5,305.5C 256.507,297.016 256.174,288.349 256.5,279.5C 260.167,279.5 263.833,279.5 267.5,279.5C 267.5,287.833 267.5,296.167 267.5,304.5 Z"/></g>
<g><path style="opacity:1" fill="#eec171" d="M 283.5,306.5 C 283.5,297.833 283.5,289.167 283.5,280.5C 281.167,280.5 278.833,280.5 276.5,280.5C 276.825,288.352 276.492,296.018 275.5,303.5C 275.5,295.5 275.5,287.5 275.5,279.5C 278.5,279.5 281.5,279.5 284.5,279.5C 284.827,288.682 284.493,297.682 283.5,306.5 Z"/></g>
<g><path style="opacity:1" fill="#efa526" d="M 283.5,306.5 C 278.798,313.057 272.464,315.224 264.5,313C 263.058,312.623 262.058,311.79 261.5,310.5C 258.798,301.097 257.798,291.431 258.5,281.5C 260.833,281.5 263.167,281.5 265.5,281.5C 265.175,289.019 265.508,296.352 266.5,303.5C 266.5,304.167 266.833,304.5 267.5,304.5C 270.474,307.309 273.141,306.976 275.5,303.5C 276.492,296.018 276.825,288.352 276.5,280.5C 278.833,280.5 281.167,280.5 283.5,280.5C 283.5,289.167 283.5,297.833 283.5,306.5 Z"/></g>
<g><path style="opacity:1" fill="#f0a526" d="M 388.5,280.5 C 389.142,291.221 388.475,301.554 386.5,311.5C 380.833,307.5 375.167,303.5 369.5,299.5C 369.44,298.957 369.107,298.624 368.5,298.5C 367.506,303.456 367.173,308.456 367.5,313.5C 365.167,313.5 362.833,313.5 360.5,313.5C 360.172,302.654 360.506,291.987 361.5,281.5C 365.659,284.747 369.992,287.747 374.5,290.5C 376.059,292.624 378.059,294.291 380.5,295.5C 381.494,290.544 381.827,285.544 381.5,280.5C 383.833,280.5 386.167,280.5 388.5,280.5 Z"/></g>
<g><path style="opacity:1" fill="#fae9bf" d="M 299.5,287.5 C 302.167,287.5 304.833,287.5 307.5,287.5C 307.833,288.167 308.167,288.833 308.5,289.5C 305.833,289.5 303.167,289.5 300.5,289.5C 300.5,291.5 300.5,293.5 300.5,295.5C 302.833,295.5 305.167,295.5 307.5,295.5C 307.5,295.833 307.5,296.167 307.5,296.5C 304.833,296.5 302.167,296.5 299.5,296.5C 299.5,293.5 299.5,290.5 299.5,287.5 Z"/></g>
<g><path style="opacity:1" fill="#f0a629" d="M 213.5,285.5 C 214.15,287.435 214.483,289.435 214.5,291.5C 211.753,291.813 209.086,291.48 206.5,290.5C 204.675,287.505 202.175,286.838 199,288.5C 198.555,290.594 199.388,292.094 201.5,293C 204.899,294.077 208.233,295.244 211.5,296.5C 212.925,297.922 213.925,299.589 214.5,301.5C 214.326,303.861 213.993,306.194 213.5,308.5C 210.763,312.033 207.096,313.7 202.5,313.5C 199.433,313.393 196.433,312.893 193.5,312C 192.619,311.292 191.953,310.458 191.5,309.5C 190.781,307.236 190.448,304.903 190.5,302.5C 192.833,302.5 195.167,302.5 197.5,302.5C 197.33,303.822 197.663,304.989 198.5,306C 200.81,306.497 203.143,306.663 205.5,306.5C 205.5,304.833 205.5,303.167 205.5,301.5C 200.751,300.521 196.251,298.854 192,296.5C 188.948,283.55 194.115,278.384 207.5,281C 209.747,282.277 211.747,283.777 213.5,285.5 Z"/></g>
<g><path style="opacity:1" fill="#fcfbf4" d="M 308.5,289.5 C 309.167,289.833 309.833,290.167 310.5,290.5C 311.084,293.285 310.084,294.952 307.5,295.5C 305.167,295.5 302.833,295.5 300.5,295.5C 300.5,293.5 300.5,291.5 300.5,289.5C 303.167,289.5 305.833,289.5 308.5,289.5 Z"/></g>
<g><path style="opacity:1" fill="#fdf6de" d="M 213.5,285.5 C 216.41,286.973 217.077,289.14 215.5,292C 218.028,293.316 218.028,294.483 215.5,295.5C 213.807,293.721 211.807,293.221 209.5,294C 210.756,294.417 211.423,295.25 211.5,296.5C 208.233,295.244 204.899,294.077 201.5,293C 199.388,292.094 198.555,290.594 199,288.5C 202.175,286.838 204.675,287.505 206.5,290.5C 209.086,291.48 211.753,291.813 214.5,291.5C 214.483,289.435 214.15,287.435 213.5,285.5 Z"/></g>
<g><path style="opacity:1" fill="#f0a629" d="M 243.5,286.5 C 247.625,295.36 251.292,304.36 254.5,313.5C 251.482,313.665 248.482,313.498 245.5,313C 244.177,312.184 243.511,311.017 243.5,309.5C 241.603,308.195 239.269,307.529 236.5,307.5C 231.332,306.608 228.332,308.608 227.5,313.5C 224.5,313.5 221.5,313.5 218.5,313.5C 221.735,303.446 225.735,293.779 230.5,284.5C 232.048,284.179 232.715,283.179 232.5,281.5C 235.187,281.336 237.854,281.503 240.5,282C 241.053,283.878 242.053,285.378 243.5,286.5 Z"/></g>
<g><path style="opacity:1" fill="#f0c777" d="M 388.5,280.5 C 389.494,290.987 389.828,301.654 389.5,312.5C 388.209,312.737 387.209,312.404 386.5,311.5C 388.475,301.554 389.142,291.221 388.5,280.5 Z"/></g>
<g><path style="opacity:1" fill="#e8b358" d="M 266.5,303.5 C 265.508,296.352 265.175,289.019 265.5,281.5C 263.167,281.5 260.833,281.5 258.5,281.5C 257.798,291.431 258.798,301.097 261.5,310.5C 259.937,309.055 258.604,307.389 257.5,305.5C 257.5,297.167 257.5,288.833 257.5,280.5C 260.5,280.5 263.5,280.5 266.5,280.5C 266.5,288.167 266.5,295.833 266.5,303.5 Z"/></g>
<g><path style="opacity:1" fill="#f0a729" d="M 314.5,282.5 C 316.229,283.117 317.729,284.117 319,285.5C 319.667,289.167 319.667,292.833 319,296.5C 317.265,298.611 315.432,300.611 313.5,302.5C 314.992,305.038 316.659,307.371 318.5,309.5C 319.11,310.391 319.443,311.391 319.5,312.5C 316.5,312.5 313.5,312.5 310.5,312.5C 312.469,308.453 311.136,306.453 306.5,306.5C 306.978,303.722 305.978,301.722 303.5,300.5C 305.188,299.479 306.521,298.145 307.5,296.5C 307.5,296.167 307.5,295.833 307.5,295.5C 310.084,294.952 311.084,293.285 310.5,290.5C 310.329,288.007 311.329,286.174 313.5,285C 309.446,283.059 309.78,282.225 314.5,282.5 Z"/></g>
<g><path style="opacity:1" fill="#fdf9e1" d="M 235.5,292.5 C 238.058,294.434 239.391,297.101 239.5,300.5C 237.5,300.5 235.5,300.5 233.5,300.5C 234.167,297.833 234.833,295.167 235.5,292.5 Z"/></g>
<g><path style="opacity:1" fill="#fcdda0" d="M 361.5,281.5 C 360.506,291.987 360.172,302.654 360.5,313.5C 356.367,314.726 352.367,314.726 348.5,313.5C 352.012,314.055 355.012,313.388 357.5,311.5C 359.153,301.533 360.153,291.199 360.5,280.5C 361.107,280.624 361.44,280.957 361.5,281.5 Z"/></g>
<g><path style="opacity:1" fill="#e3b156" d="M 197.5,302.5 C 195.167,302.5 192.833,302.5 190.5,302.5C 190.448,304.903 190.781,307.236 191.5,309.5C 190.883,309.389 190.383,309.056 190,308.5C 189.503,306.19 189.337,303.857 189.5,301.5C 192.385,301.194 195.052,301.527 197.5,302.5 Z"/></g>
<g><path style="opacity:1" fill="#e9a833" d="M 290.5,280.5 C 298.222,280.233 305.889,280.566 313.5,281.5C 314.167,281.5 314.5,281.833 314.5,282.5C 309.78,282.225 309.446,283.059 313.5,285C 311.329,286.174 310.329,288.007 310.5,290.5C 309.833,290.167 309.167,289.833 308.5,289.5C 308.167,288.833 307.833,288.167 307.5,287.5C 308.807,285.777 308.807,283.943 307.5,282C 302.511,281.501 297.511,281.334 292.5,281.5C 292.707,291.68 292.707,302.013 292.5,312.5C 294.5,312.5 296.5,312.5 298.5,312.5C 298.5,308.833 298.5,305.167 298.5,301.5C 299.552,301.649 300.552,301.483 301.5,301C 300.062,300.781 298.729,300.281 297.5,299.5C 298.109,295.365 298.776,291.365 299.5,287.5C 299.5,290.5 299.5,293.5 299.5,296.5C 302.167,296.5 304.833,296.5 307.5,296.5C 306.521,298.145 305.188,299.479 303.5,300.5C 305.978,301.722 306.978,303.722 306.5,306.5C 311.136,306.453 312.469,308.453 310.5,312.5C 313.5,312.5 316.5,312.5 319.5,312.5C 316.375,313.479 313.042,313.813 309.5,313.5C 308.277,310.726 306.777,308.059 305,305.5C 303.556,303.845 301.722,303.178 299.5,303.5C 299.5,306.833 299.5,310.167 299.5,313.5C 296.5,313.5 293.5,313.5 290.5,313.5C 290.5,302.5 290.5,291.5 290.5,280.5 Z"/></g>
<g><path style="opacity:1" fill="#f2a420" d="M 307.5,287.5 C 304.833,287.5 302.167,287.5 299.5,287.5C 298.776,291.365 298.109,295.365 297.5,299.5C 298.729,300.281 300.062,300.781 301.5,301C 300.552,301.483 299.552,301.649 298.5,301.5C 298.5,305.167 298.5,308.833 298.5,312.5C 296.5,312.5 294.5,312.5 292.5,312.5C 292.707,302.013 292.707,291.68 292.5,281.5C 297.511,281.334 302.511,281.501 307.5,282C 308.807,283.943 308.807,285.777 307.5,287.5 Z"/></g>
<g><path style="opacity:1" fill="#f4d691" d="M 214.5,301.5 C 215.867,304.012 215.534,306.345 213.5,308.5C 213.993,306.194 214.326,303.861 214.5,301.5 Z"/></g>
<g><path style="opacity:1" fill="#eda933" d="M 346.5,285.5 C 350.652,293.822 354.318,302.488 357.5,311.5C 355.012,313.388 352.012,314.055 348.5,313.5C 348.204,311.597 347.537,309.93 346.5,308.5C 342.354,307.353 338.02,307.186 333.5,308C 332.74,309.441 332.074,310.941 331.5,312.5C 328.167,313.833 324.833,313.833 321.5,312.5C 323.086,310.827 323.753,308.827 323.5,306.5C 326.101,299.626 329.435,293.293 333.5,287.5C 333.525,290.96 334.192,294.294 335.5,297.5C 336.731,296.349 336.731,295.183 335.5,294C 336.448,293.517 337.448,293.351 338.5,293.5C 334.735,299.696 336.402,301.696 343.5,299.5C 342.873,298.583 342.539,297.583 342.5,296.5C 345.066,298.288 345.066,300.121 342.5,302C 340.167,302.667 337.833,302.667 335.5,302C 333.962,297.399 332.629,297.566 331.5,302.5C 333.335,303.428 333.668,304.594 332.5,306C 337.489,306.499 342.489,306.666 347.5,306.5C 347.281,305.325 347.614,304.325 348.5,303.5C 349.736,304.246 351.07,304.579 352.5,304.5C 352.5,303.167 352.5,301.833 352.5,300.5C 349.079,300.762 348.079,299.428 349.5,296.5C 348.617,292.724 347.617,289.057 346.5,285.5 Z"/></g>
<g><path style="opacity:1" fill="#fdf4d7" d="M 342.5,296.5 C 342.539,297.583 342.873,298.583 343.5,299.5C 336.402,301.696 334.735,299.696 338.5,293.5C 339.222,293.082 339.722,292.416 340,291.5C 341.12,293.03 341.954,294.697 342.5,296.5 Z"/></g>
<g><path style="opacity:1" fill="#e3c68d" d="M 369.5,299.5 C 368.833,304.167 368.167,308.833 367.5,313.5C 367.173,308.456 367.506,303.456 368.5,298.5C 369.107,298.624 369.44,298.957 369.5,299.5 Z"/></g>
<g><path style="opacity:1" fill="#feefd3" d="M 243.5,309.5 C 239.265,308.564 234.931,308.231 230.5,308.5C 230.36,310.124 231.027,311.29 232.5,312C 231.953,312.925 231.287,313.758 230.5,314.5C 229.583,313.873 228.583,313.539 227.5,313.5C 228.332,308.608 231.332,306.608 236.5,307.5C 239.269,307.529 241.603,308.195 243.5,309.5 Z"/></g>
<g><path style="opacity:1" fill="#fdf5de" d="M 323.5,306.5 C 323.753,308.827 323.086,310.827 321.5,312.5C 324.833,313.833 328.167,313.833 331.5,312.5C 332.074,310.941 332.74,309.441 333.5,308C 338.02,307.186 342.354,307.353 346.5,308.5C 342.445,308.176 338.445,308.509 334.5,309.5C 337.048,311.219 336.715,312.552 333.5,313.5C 334.167,314.167 334.833,314.833 335.5,315.5C 334.424,316.656 333.424,316.489 332.5,315C 324.656,314.829 316.989,314.329 309.5,313.5C 313.042,313.813 316.375,313.479 319.5,312.5C 319.443,311.391 319.11,310.391 318.5,309.5C 319.222,309.082 319.722,308.416 320,307.5C 320.308,308.308 320.808,308.975 321.5,309.5C 322.176,308.398 322.842,307.398 323.5,306.5 Z"/></g>
</svg>
