<?xml version="1.0" encoding="UTF-8"?>
<svg id="_Слой_1" data-name="Слой 1" xmlns="http://www.w3.org/2000/svg" viewBox="0 0 141.67 51.83">
  <defs>
    <style>
      .cls-1, .cls-2, .cls-3 {
        stroke-width: 0px;
      }

      .cls-2 {
        fill: #fff;
      }

      .cls-3 {
        fill: #ed5a00;
      }
    </style>
  </defs>
  <path class="cls-2" d="m52.02,1.47c-6.69,2.36-11.03,8.3-11.03,15.27,0,4.81,2.83,9.14,8.2,12.54,3.96,2.55,5.28,2.83,11.6,2.83s7.54.28,9.05,1.98c1.79,1.98,1.7,1.98-.47,3.77-1.79,1.51-3.77,1.79-11.31,1.79h-9.14l-12.16-19.23C30.06,9.76,24.31,1.28,23.93,1.56c-.38.19-4.62,6.6-9.43,14.24l-8.58,13.86,2.64,1.89c1.51,1.13,3.87,3.21,5.28,4.71,1.41,1.6,2.73,2.64,2.92,2.36.19-.19,1.98-2.92,3.96-6.03,4.15-6.51,3.39-6.98,11.12,6.98,6.69,12.16,7.82,12.63,27.34,12.16l14.33-.28,4.34-3.02c5.94-4.15,7.45-6.69,7.45-12.92,0-4.53-.38-5.66-2.92-8.58-4.53-5.09-7.92-6.51-16.78-7.07-6.13-.38-8.11-.85-8.96-2.17-.75-1.13-.75-2.07,0-3.3.85-1.32,2.73-1.6,10.56-1.89l9.52-.28,4.34-5.56c2.36-3.02,4.24-5.75,4.24-6.03,0-1.23-29.7-.47-33.28.85Z"/>
  <path class="cls-1" d="m51.8,2.29c-6.46,2.27-10.64,8-10.64,14.73,0,4.64,2.73,8.82,7.91,12.09,3.82,2.46,5.09,2.73,11.18,2.73s7.27.27,8.73,1.91c1.73,1.91,1.64,1.91-.45,3.64-1.73,1.45-3.64,1.73-10.91,1.73h-8.82l-11.73-18.55C30.61,10.29,25.06,2.1,24.7,2.38c-.36.18-4.46,6.36-9.09,13.73l-8.27,13.37,2.55,1.82c1.45,1.09,3.73,3.09,5.09,4.55,1.36,1.55,2.64,2.55,2.82,2.27.18-.18,1.91-2.82,3.82-5.82,4-6.27,3.27-6.73,10.73,6.73,6.46,11.73,7.55,12.18,26.37,11.73l13.82-.27,4.18-2.91c5.73-4,7.18-6.46,7.18-12.46,0-4.36-.36-5.46-2.82-8.27-4.36-4.91-7.64-6.27-16.18-6.82-5.91-.36-7.82-.82-8.64-2.09-.73-1.09-.73-2,0-3.18.82-1.27,2.64-1.55,10.18-1.82l9.18-.27,4.18-5.36c2.27-2.91,4.09-5.55,4.09-5.82,0-1.18-28.64-.45-32.1.82Z"/>
  <path class="cls-2" d="m110.18.62c-8.42,1.24-13.11,3.64-17.61,8.61-12.25,13.59-8.23,32.83,8.42,40.39,4.02,1.82,6.41,2.11,15.31,2.11,9.38,0,11.1-.29,15.79-2.49,5.55-2.68,9.57-5.74,9.57-7.18,0-1.53-14.64-3.35-17.61-2.2-4.4,1.63-12.73,1.15-16.94-.96-5.65-2.87-7.75-6.89-7.27-13.59.38-6.32,2.39-9.19,8.71-12.44,3.35-1.72,4.98-1.91,12.44-1.34,9.76.57,19.24-1.05,19.24-3.35,0-.67-2.78-2.68-6.22-4.4-6.99-3.54-14.93-4.59-23.83-3.16Z"/>
  <path class="cls-3" d="m110.35,1.83c-8,1.18-12.46,3.46-16.73,8.18-11.64,12.91-7.82,31.19,8,38.37,3.82,1.73,6.09,2,14.55,2,8.91,0,10.55-.27,15-2.36,5.27-2.55,9.09-5.46,9.09-6.82,0-1.45-13.91-3.18-16.73-2.09-4.18,1.55-12.09,1.09-16.09-.91-5.36-2.73-7.37-6.55-6.91-12.91.36-6,2.27-8.73,8.27-11.82,3.18-1.64,4.73-1.82,11.82-1.27,9.27.55,18.28-1,18.28-3.18,0-.64-2.64-2.55-5.91-4.18-6.64-3.36-14.18-4.36-22.64-3Z"/>
  <path class="cls-2" d="m111.21,21.31c-2.52,2.82-1.71,7.97,1.61,10.49,6.46,4.84,13.62-4.54,8.17-10.69-2.12-2.32-7.56-2.22-9.78.2Z"/>
  <path class="cls-1" d="m111.72,21.74c-2.27,2.55-1.55,7.18,1.45,9.46,5.82,4.36,12.28-4.09,7.37-9.64-1.91-2.09-6.82-2-8.82.18Z"/>
  <path class="cls-2" d="m2.48,36.14c-4.45,3.15-2.6,10.52,3.15,11.83,6.08,1.52,10.2-6.62,5.86-11.39-2.39-2.6-5.75-2.82-9-.43Z"/>
  <path class="cls-3" d="m3.15,36.93c-3.73,2.64-2.18,8.82,2.64,9.91,5.09,1.27,8.55-5.55,4.91-9.55-2-2.18-4.82-2.36-7.55-.36Z"/>
</svg>