<svg xmlns="http://www.w3.org/2000/svg" width="234" height="91" viewBox="0 0 234 91" version="1.1"><path d="M 181.994 21.934 C 177.171 23.401, 173.320 25.903, 169.675 29.938 C 167.654 32.175, 166 34.415, 166 34.915 C 166 35.414, 169.150 37.059, 173 38.570 C 176.850 40.080, 180 41.672, 180 42.107 C 180 42.542, 178.439 42.246, 176.532 41.449 C 171.898 39.513, 171.685 39.589, 173.592 42.500 C 174.911 44.514, 176.132 45.034, 179.865 45.175 L 184.500 45.349 180.250 45.732 C 176.920 46.032, 176 46.515, 176 47.964 C 176 49.343, 176.572 49.703, 178.250 49.380 L 180.500 48.948 178.250 50.127 C 176.665 50.957, 176 52.208, 176 54.361 L 176 57.416 180.749 52.958 L 185.498 48.500 181.499 52.953 C 179.300 55.402, 176.174 58.624, 174.553 60.113 C 171.913 62.537, 171.756 63.002, 173.053 64.568 C 176.957 69.286, 187.898 71.309, 196.142 68.839 C 209.440 64.855, 216.424 47.577, 209.964 34.642 C 204.972 24.647, 192.181 18.835, 181.994 21.934 M 183.755 26.500 C 184.018 27.875, 184.406 29, 184.617 29 C 184.827 29, 185 27.875, 185 26.500 C 185 25.125, 184.612 24, 184.139 24 C 183.665 24, 183.492 25.125, 183.755 26.500 M 187 32.500 C 187 37.500, 187.412 41, 188 41 C 188.588 41, 189 37.500, 189 32.500 C 189 27.500, 188.588 24, 188 24 C 187.412 24, 187 27.500, 187 32.500 M 191.720 25.332 C 190.606 28.165, 190.788 29.612, 192.094 28.306 C 192.695 27.705, 193.020 26.377, 192.814 25.356 C 192.454 23.566, 192.415 23.565, 191.720 25.332 M 180.040 25.580 C 180.018 26.174, 181.106 29.324, 182.458 32.580 C 183.809 35.836, 184.916 37.825, 184.918 37 C 184.920 35.254, 180.100 23.969, 180.040 25.580 M 193.611 31.111 C 192.141 34.500, 191.165 37.499, 191.442 37.775 C 191.718 38.051, 192.353 37.202, 192.853 35.889 C 193.353 34.575, 194.497 31.743, 195.394 29.596 C 196.292 27.450, 196.859 25.526, 196.655 25.321 C 196.450 25.117, 195.081 27.722, 193.611 31.111 M 176.032 27.559 C 176.014 28.141, 176.661 29.491, 177.468 30.559 C 178.276 31.626, 178.951 32.024, 178.968 31.441 C 178.986 30.859, 178.339 29.509, 177.532 28.441 C 176.724 27.374, 176.049 26.976, 176.032 27.559 M 199.278 28.250 C 197.324 30.777, 196.657 32.330, 197.840 31.599 C 199.024 30.867, 201.393 27, 200.658 27 C 200.431 27, 199.810 27.563, 199.278 28.250 M 175.516 32.893 C 180.533 38.597, 185 42.974, 185 42.185 C 185 41.774, 182.195 38.751, 178.766 35.469 C 175.337 32.186, 173.874 31.027, 175.516 32.893 M 196.526 35.974 C 193.275 39.259, 190.839 42.172, 191.113 42.447 C 191.388 42.721, 194.499 40.033, 198.027 36.473 C 201.555 32.913, 203.991 30, 203.440 30 C 202.888 30, 199.777 32.688, 196.526 35.974 M 170.441 34.532 C 171.509 35.339, 172.859 35.986, 173.441 35.968 C 174.024 35.951, 173.626 35.276, 172.559 34.468 C 171.491 33.661, 170.141 33.014, 169.559 33.032 C 168.976 33.049, 169.374 33.724, 170.441 34.532 M 203.441 34.468 C 202.374 35.276, 201.976 35.951, 202.559 35.968 C 203.141 35.986, 204.491 35.339, 205.559 34.532 C 206.626 33.724, 207.024 33.049, 206.441 33.032 C 205.859 33.014, 204.509 33.661, 203.441 34.468 M 156.500 37.012 C 148.933 38.628, 145.010 43.532, 145.004 51.382 C 144.997 60.427, 150.555 66, 159.582 66 C 168.418 66, 174 60.354, 174 51.418 C 174 41.675, 165.897 35.004, 156.500 37.012 M 25.523 38.565 C 19.405 41.755, 19.394 45.657, 25.486 51.749 C 27.954 54.217, 29.727 56.633, 29.427 57.118 C 29.127 57.603, 27.109 58, 24.941 58 C 21.010 58, 21 58.010, 21 62 L 21 66 26.851 66 C 34.739 66, 38.533 64.542, 40.027 60.935 C 41.652 57.012, 39.946 52.901, 35.412 49.814 C 30.890 46.735, 31.019 45, 35.769 45 C 39.503 45, 39.538 44.962, 39.519 41.001 L 39.500 37.003 34 37.007 C 30.975 37.010, 27.160 37.711, 25.523 38.565 M 49.270 38.483 C 42.645 41.363, 39.638 50.133, 42.814 57.313 C 45.266 62.855, 48.597 65.159, 55.057 65.779 L 60 66.254 60 62.127 C 60 58.499, 59.725 58, 57.723 58 C 54.084 58, 51 55.254, 51 52.015 C 51 48.334, 53.356 46, 57.071 46 C 59.876 46, 60 45.809, 60 41.500 L 60 37 56.250 37.039 C 54.188 37.061, 51.046 37.710, 49.270 38.483 M 63 51.500 L 63 66 67.500 66 L 72 66 72 60.500 L 72 55 75.500 55 L 79 55 79 60.500 L 79 66 83.429 66 L 87.858 66 88.179 57.250 C 88.356 52.438, 88.365 45.913, 88.200 42.750 L 87.900 37 83.450 37 L 79 37 79 42 L 79 47 75.500 47 L 72 47 72 42 L 72 37 67.500 37 L 63 37 63 51.500 M 98.531 38.250 C 98.308 38.938, 96.499 44.900, 94.511 51.500 C 92.523 58.100, 90.708 64.063, 90.479 64.750 C 90.184 65.635, 91.478 66, 94.915 66 C 98.926 66, 99.857 65.653, 100.290 64 C 100.704 62.418, 101.654 62, 104.839 62 C 107.987 62, 109.004 62.436, 109.500 64 C 110.009 65.604, 111.013 66, 114.567 66 C 117.005 66, 119 65.703, 119 65.341 C 119 64.978, 117.131 58.453, 114.847 50.841 L 110.694 37 104.815 37 C 100.996 37, 98.795 37.438, 98.531 38.250 M 121 51.500 L 121 66 125.500 66 L 130 66 130 61.803 L 130 57.606 133.087 61.803 C 136.108 65.911, 136.298 66, 142.087 66 C 145.339 66, 148 65.728, 148 65.396 C 148 65.064, 145.727 62.073, 142.950 58.749 C 140.172 55.425, 138.136 52.087, 138.426 51.332 C 138.716 50.578, 140.763 47.294, 142.976 44.035 C 145.189 40.776, 147 37.860, 147 37.555 C 147 37.250, 144.831 37, 142.181 37 C 137.501 37, 137.256 37.151, 133.690 42.250 L 130.018 47.500 130.009 42.250 L 130 37 125.500 37 L 121 37 121 51.500 M 201 39.541 C 197.975 40.842, 196.175 41.910, 197 41.913 C 197.825 41.917, 200.975 40.831, 204 39.500 C 207.025 38.169, 208.825 37.101, 208 37.127 C 207.175 37.153, 204.025 38.239, 201 39.541 M 205 42 C 205 43.174, 205.769 43.174, 208.500 42 C 210.272 41.238, 210.187 41.133, 207.750 41.070 C 206.238 41.032, 205 41.450, 205 42 M 157.243 46.106 C 152.966 47.688, 153.154 55.498, 157.494 56.588 C 161.035 57.477, 163.919 56.171, 164.625 53.360 C 165.926 48.176, 162.021 44.338, 157.243 46.106 M 196.784 45.738 C 199.689 45.941, 204.189 45.939, 206.784 45.734 C 209.378 45.528, 207 45.363, 201.500 45.365 C 196 45.368, 193.878 45.536, 196.784 45.738 M 104.068 50 C 104.015 50.825, 103.701 52.513, 103.370 53.750 C 102.933 55.378, 103.197 56, 104.324 56 C 106.651 56, 106.952 54.831, 105.485 51.500 C 104.757 49.850, 104.120 49.175, 104.068 50 M 196.973 55.473 C 200.501 59.033, 203.612 61.721, 203.887 61.447 C 204.541 60.792, 192.863 49, 191.560 49 C 191.009 49, 193.445 51.913, 196.973 55.473 M 197.500 49.707 C 199.004 51.146, 209 55.001, 209 54.142 C 209 53.521, 206.096 52.250, 197.528 49.125 C 196.844 48.875, 196.835 49.070, 197.500 49.707 M 206.269 49.693 C 207.242 49.947, 208.592 49.930, 209.269 49.656 C 209.946 49.382, 209.150 49.175, 207.500 49.195 C 205.850 49.215, 205.296 49.439, 206.269 49.693 M 187.084 59 C 187.174 63.950, 187.642 68, 188.124 68 C 188.606 68, 189 63.950, 189 59 C 189 53.436, 188.603 50, 187.960 50 C 187.305 50, 186.981 53.331, 187.084 59 M 182 59.500 C 180.756 62.565, 179.956 65.290, 180.223 65.556 C 180.489 65.822, 181.683 63.491, 182.875 60.375 C 185.698 52.997, 184.945 52.244, 182 59.500 M 193.086 59.250 C 194.217 62.138, 195.617 64.950, 196.197 65.500 C 196.900 66.168, 197.126 66.159, 196.875 65.472 C 193.730 56.851, 192.473 54, 191.817 54 C 191.384 54, 191.955 56.362, 193.086 59.250 M 203.441 56.532 C 204.509 57.339, 205.832 58, 206.382 58 C 206.932 58, 206.509 57.339, 205.441 56.532 C 204.374 55.724, 203.050 55.064, 202.500 55.064 C 201.950 55.064, 202.374 55.724, 203.441 56.532 M 176.980 61.524 C 176.284 62.362, 175.968 63.301, 176.276 63.610 C 176.585 63.919, 177.340 63.233, 177.954 62.086 C 179.264 59.638, 178.778 59.358, 176.980 61.524 M 198.047 60.500 C 198.023 61.986, 199.808 64.526, 200.435 63.898 C 200.735 63.599, 200.323 62.487, 199.521 61.427 C 198.720 60.367, 198.056 59.950, 198.047 60.500 M 183.881 64.781 C 183.552 66.769, 183.698 67.702, 184.253 67.147 C 184.757 66.643, 185.002 65.166, 184.797 63.865 C 184.482 61.864, 184.342 62.004, 183.881 64.781 M 191.086 63 C 191.116 63.825, 191.527 65.400, 192 66.500 L 192.859 68.500 192.914 66.500 C 192.945 65.400, 192.533 63.825, 192 63 C 191.138 61.667, 191.037 61.667, 191.086 63" stroke="none" fill="#0e9a5e" fill-rule="evenodd"/></svg>