<svg xmlns="http://www.w3.org/2000/svg" width="431" height="292" viewBox="0 0 431 292" version="1.1"><path d="M 163.500 29 C 163.160 29.550, 163.809 30, 164.941 30 C 166.073 30, 167 30.450, 167 31 C 167 31.550, 166.550 32, 166 32 C 165.450 32, 165 32.900, 165 34 C 165 35.100, 165.450 36, 166 36 C 166.550 36, 167 35.100, 167 34 C 167 32.148, 167.667 32, 176 32 C 183.515 32, 185 32.259, 185 33.571 C 185 36.989, 182.391 38, 173.571 38 C 168.524 38, 165 38.411, 165 39 C 165 39.550, 164.325 40, 163.500 40 C 162.675 40, 162 40.450, 162 41 C 162 41.550, 162.675 42, 163.500 42 C 164.325 42, 165 41.550, 165 41 C 165 39.497, 182.731 39.692, 183.234 41.201 C 183.545 42.135, 183.798 42.135, 184.376 41.201 C 184.784 40.540, 184.641 40, 184.059 40 C 183.477 40, 183 39.550, 183 39 C 183 38.450, 183.707 38, 184.571 38 C 185.436 38, 186.812 37.331, 187.630 36.513 C 188.946 35.197, 188.828 34.737, 186.604 32.513 C 184.312 30.221, 183.339 30, 175.545 30 C 170.515 30, 167 29.589, 167 29 C 167 28.450, 166.352 28, 165.559 28 C 164.766 28, 163.840 28.450, 163.500 29 M 187 28.545 C 187 28.845, 188.105 30.195, 189.455 31.545 C 191.857 33.948, 198.869 35.215, 197.500 33 C 197.160 32.450, 196.009 32, 194.941 32 C 192.782 32, 192.302 30.416, 194.250 29.720 C 194.977 29.461, 195.129 28.903, 194.613 28.387 C 194.097 27.871, 193.539 28.023, 193.280 28.750 C 192.751 30.230, 189 30.449, 189 29 C 189 28.450, 188.550 28, 188 28 C 187.450 28, 187 28.245, 187 28.545 M 199 29 C 199 29.550, 199.900 30, 201 30 C 202.100 30, 203 29.550, 203 29 C 203 28.450, 202.100 28, 201 28 C 199.900 28, 199 28.450, 199 29 M 167 42.599 C 167 42.928, 168.434 44.537, 170.187 46.174 C 172.609 48.438, 173.054 49.348, 172.043 49.973 C 171.312 50.425, 170.947 51.689, 171.233 52.782 C 171.550 53.996, 171.018 55.396, 169.865 56.384 C 167.419 58.478, 167 58.421, 167 56 C 167 54.900, 167.450 54, 168 54 C 168.550 54, 169 52.650, 169 51 C 169 49.350, 168.550 48, 168 48 C 167.450 48, 167 48.900, 167 50 C 167 51.100, 166.550 52, 166 52 C 165.444 52, 165 54.667, 165 58 C 165 62.440, 165.359 64, 166.383 64 C 167.835 64, 173 54.427, 173 51.734 C 173 50.872, 173.546 49.985, 174.213 49.763 C 174.939 49.520, 173.950 47.884, 171.746 45.679 C 168.184 42.117, 167 41.349, 167 42.599 M 173 43.034 C 173 43.683, 173.605 43.982, 174.344 43.698 C 175.306 43.329, 175.557 43.866, 175.227 45.591 C 174.951 47.038, 175.239 48, 175.950 48 C 177.869 48, 176.747 42.564, 174.750 42.185 C 173.787 42.003, 173 42.384, 173 43.034 M 163 70.418 C 163 71.748, 162.688 73.661, 162.306 74.668 C 161.656 76.384, 161.719 76.394, 163.306 74.821 C 165.132 73.012, 165.642 68, 164 68 C 163.450 68, 163 69.088, 163 70.418 M 249 70.751 C 249 71.173, 249.900 72.081, 251 72.768 C 252.100 73.455, 253 73.671, 253 73.249 C 253 72.827, 252.100 71.919, 251 71.232 C 249.900 70.545, 249 70.329, 249 70.751 M 257.348 78.804 C 260.034 81.643, 260.304 81.720, 262.121 80.164 C 263.303 79.152, 263.607 78.369, 262.908 78.136 C 262.281 77.927, 261.395 78.361, 260.939 79.099 C 260.059 80.523, 258.500 79.617, 258.500 77.680 C 258.500 77.046, 257.600 76.362, 256.500 76.161 C 254.769 75.843, 254.883 76.199, 257.348 78.804 M 264.149 81.604 C 263.406 82.444, 263.093 83.426, 263.453 83.787 C 263.814 84.147, 264.493 83.820, 264.964 83.059 C 265.679 81.902, 266.079 81.936, 267.409 83.266 C 268.284 84.141, 269 85.564, 269 86.429 C 269 87.941, 272.033 88.633, 273.264 87.402 C 274.322 86.345, 272.840 84, 271.114 84 C 270.194 84, 268.793 83.100, 268 82 C 266.293 79.632, 265.926 79.594, 264.149 81.604 M 264.393 87.582 C 264.727 88.452, 265.007 89.464, 265.015 89.832 C 265.036 90.726, 266.965 87.707, 266.985 86.750 C 266.993 86.338, 266.277 86, 265.393 86 C 264.338 86, 263.995 86.544, 264.393 87.582 M 275 88 C 275 89.333, 275.667 90, 277 90 C 278.100 90, 279 90.351, 279 90.779 C 279 91.208, 278.100 92.207, 277 93 C 274.939 94.485, 274.152 100, 276 100 C 276.550 100, 277 99.550, 277 99 C 277 97.557, 280.725 97.767, 281.417 99.250 C 281.883 100.250, 282.117 100.250, 282.583 99.250 C 283.252 97.817, 287 97.534, 287 98.917 C 287 99.421, 286.438 100.096, 285.750 100.417 C 284.750 100.883, 284.750 101.117, 285.750 101.583 C 287.547 102.422, 287.290 106.853, 285.330 108.813 C 284.116 110.027, 283.548 110.144, 283.247 109.241 C 282.599 107.297, 280.130 107.779, 277.558 110.351 C 274.252 113.657, 271.789 129.932, 274.226 132.369 C 275.646 133.789, 275.866 133.792, 276.400 132.400 C 276.727 131.548, 276.321 130.178, 275.497 129.354 C 274.674 128.531, 274 126.919, 274 125.773 C 274 123.880, 274.229 123.955, 276.499 126.594 C 278.336 128.731, 278.998 129.059, 278.999 127.833 C 278.999 126.917, 279.563 125.966, 280.250 125.720 C 280.938 125.475, 281.138 124.888, 280.696 124.416 C 280.253 123.944, 279.490 124.207, 279 125 C 278.510 125.793, 277.795 126.128, 277.412 125.745 C 277.029 125.362, 277.284 124.362, 277.980 123.524 C 278.845 122.482, 278.890 122, 278.122 122 C 277.505 122, 277 120.650, 277 119 C 277 117.350, 277.450 116, 278 116 C 278.550 116, 279 116.900, 279 118 C 279 119.100, 279.450 120, 280 120 C 280.550 120, 281 120.702, 281 121.559 C 281 124.013, 282.422 122.520, 285.051 117.306 C 286.383 114.663, 287.929 112.128, 288.487 111.674 C 289.152 111.131, 289.071 110.674, 288.250 110.341 C 286.291 109.546, 286.786 108, 289 108 C 290.556 108, 291 107.333, 291 105 C 291 102.667, 290.556 102, 289 102 C 287.900 102, 287 101.550, 287 101 C 287 99.551, 290.751 99.770, 291.280 101.250 C 291.525 101.938, 292.066 102.184, 292.482 101.798 C 293.494 100.858, 290.551 98, 288.571 98 C 287.707 98, 287 97.550, 287 97 C 287 96.450, 287.900 96, 289 96 C 290.100 96, 291 95.550, 291 95 C 291 94.450, 290.100 94, 289 94 C 287.900 94, 287 94.450, 287 95 C 287 95.550, 286.137 96, 285.083 96 C 284.029 96, 282.981 96.558, 282.753 97.241 C 282.452 98.144, 281.884 98.027, 280.670 96.813 C 278.378 94.521, 278.551 92, 281 92 C 282.100 92, 283 92.450, 283 93 C 283 93.550, 283.450 94, 284 94 C 285.869 94, 285.010 90.815, 283 90.290 C 281.900 90.002, 281 89.369, 281 88.883 C 281 88.398, 280.100 88, 279 88 C 277.900 88, 277 87.550, 277 87 C 277 86.450, 276.550 86, 276 86 C 275.450 86, 275 86.900, 275 88 M 269 91 C 269 91.550, 269.450 92, 270 92 C 270.550 92, 271 92.900, 271 94 C 271 95.100, 271.450 96, 272 96 C 272.550 96, 273 94.650, 273 93 C 273 90.667, 272.556 90, 271 90 C 269.900 90, 269 90.450, 269 91 M 277.980 103.524 C 277.284 104.362, 277.029 105.362, 277.412 105.745 C 277.795 106.128, 278.569 105.780, 279.131 104.971 C 279.904 103.858, 280.276 103.804, 280.659 104.750 C 281.454 106.709, 283 106.214, 283 104 C 283 101.583, 279.840 101.283, 277.980 103.524 M 273.667 105.667 C 273.300 106.033, 273.041 107.721, 273.090 109.417 L 273.180 112.500 274.147 109.140 C 275.113 105.783, 274.924 104.410, 273.667 105.667 M 280.250 111.496 C 278.753 113.196, 278.598 116, 280 116 C 280.550 116, 281 116.900, 281 118 C 281 119.100, 281.450 120, 282 120 C 282.550 120, 283 119.100, 283 118 C 283 116.900, 283.450 116, 284 116 C 285.485 116, 285.210 113.067, 283.571 111.429 C 281.851 109.708, 281.823 109.709, 280.250 111.496 M 147 132.571 C 147 133.634, 150.091 136.243, 150.667 135.667 C 150.981 135.352, 150.542 134.399, 149.690 133.548 C 148.103 131.960, 147 131.560, 147 132.571 M 155 143.059 C 155 143.641, 154.547 143.838, 153.992 143.495 C 153.399 143.128, 153.456 143.907, 154.132 145.390 C 154.763 146.774, 155.553 147.875, 155.889 147.835 C 158.118 147.573, 159 148.305, 159 150.418 C 159 151.748, 159.269 153.537, 159.597 154.393 C 160.131 155.785, 160.367 155.776, 161.838 154.305 C 163.039 153.104, 163.147 152.549, 162.241 152.247 C 160.267 151.589, 160.803 150, 163 150 C 164.265 150, 165 149.333, 165 148.187 C 165 146.726, 164.081 146.326, 160.276 146.129 C 155.457 145.880, 153.504 145.082, 155.750 144.280 C 157.238 143.748, 157.430 142, 156 142 C 155.450 142, 155 142.477, 155 143.059 M 165 152.917 C 165 153.421, 165.563 154.040, 166.250 154.292 C 167.250 154.658, 167.250 155.015, 166.250 156.075 C 164.282 158.162, 164.718 163.355, 167 165 C 168.100 165.793, 169 167.499, 169 168.792 C 169 171.548, 172.095 175.216, 172.753 173.241 C 172.981 172.558, 173.831 172, 174.642 172 C 175.454 172, 175.840 172.450, 175.500 173 C 175.160 173.550, 175.359 174, 175.941 174 C 177.756 174, 177.100 170.514, 175 169 C 173.900 168.207, 173 166.951, 173 166.208 C 173 164.377, 170.499 162, 168.571 162 C 167.492 162, 167 161.061, 167 159 C 167 156.939, 167.492 156, 168.571 156 C 170.087 156, 173 153.745, 173 152.571 C 173 151.438, 169.153 152.029, 168.583 153.250 C 168.117 154.250, 167.883 154.250, 167.417 153.250 C 166.742 151.803, 165 151.563, 165 152.917 M 173.573 154.250 C 172.215 160.823, 172.354 162.720, 174.159 162.248 C 176.026 161.760, 179 164.065, 179 166 C 179 166.629, 179.704 167.846, 180.564 168.706 C 181.889 170.032, 182.498 170.071, 184.564 168.966 C 187.319 167.491, 187.767 166, 185.455 166 C 183.565 166, 179 161.591, 179 159.766 C 179 159.038, 178.100 157.793, 177 157 C 174.187 154.972, 174.511 154, 178 154 C 180.333 154, 181 154.444, 181 156 C 181 157.100, 181.450 158, 182 158 C 182.550 158, 183 157.550, 183 157 C 183 156.450, 183.450 156, 184 156 C 184.550 156, 185 156.900, 185 158 C 185 160.460, 189.355 160.788, 191.643 158.500 C 192.976 157.167, 192.963 156.820, 191.524 155.381 C 190.633 154.490, 189.589 154.102, 189.202 154.518 C 188.816 154.934, 189.063 155.475, 189.750 155.720 C 191.531 156.356, 191.299 158, 189.429 158 C 187.697 158, 185 155.684, 185 154.196 C 185 153.193, 180.327 152, 176.394 152 C 174.755 152, 173.897 152.685, 173.573 154.250 M 209 153 C 209 153.550, 209.648 154, 210.441 154 C 211.234 154, 212.160 153.550, 212.500 153 C 212.840 152.450, 212.191 152, 211.059 152 C 209.927 152, 209 152.450, 209 153 M 196.195 157.555 C 195.117 158.776, 195.149 159.292, 196.381 160.524 C 197.201 161.344, 198.129 161.600, 198.442 161.093 C 198.756 160.586, 198.447 159.907, 197.756 159.585 C 196.753 159.118, 196.752 158.882, 197.750 158.417 C 199.099 157.787, 199.480 155.976, 198.250 156.038 C 197.838 156.059, 196.913 156.741, 196.195 157.555 M 191.566 160.893 C 191.190 161.502, 191.359 162, 191.941 162 C 192.523 162, 193 162.450, 193 163 C 193 163.550, 192.100 164, 191 164 C 189.900 164, 189 163.550, 189 163 C 189 162.450, 187.650 162, 186 162 C 184.350 162, 183 162.450, 183 163 C 183 163.550, 184.313 164, 185.917 164 C 187.521 164, 189.003 164.509, 189.211 165.132 C 189.468 165.903, 190.692 165.691, 193.044 164.471 C 195.422 163.237, 196.032 162.525, 195 162.189 C 194.175 161.920, 193.219 161.270, 192.875 160.743 C 192.493 160.159, 191.984 160.217, 191.566 160.893 M 161 243.992 C 161 245.096, 160.550 246, 160 246 C 159.450 246, 159 247.350, 159 249 C 159 251.333, 158.556 252, 157 252 C 154.414 252, 154.475 252.798, 157.250 255.267 C 158.776 256.625, 159.098 257.414, 158.250 257.718 C 156.770 258.249, 156.551 262, 158 262 C 158.550 262, 159 262.450, 159 263 C 159 263.550, 158.137 264, 157.083 264 C 156.029 264, 154.938 264.563, 154.659 265.250 C 154.276 266.196, 153.904 266.142, 153.131 265.029 C 152.569 264.220, 151.760 263.907, 151.333 264.333 C 150.907 264.760, 151.205 265.509, 151.997 265.998 C 153.189 266.735, 153.055 267.218, 151.218 268.811 C 148.474 271.191, 148.419 272, 151 272 C 152.333 272, 153 271.333, 153 270 C 153 268.667, 153.667 268, 155 268 C 157.206 268, 157.724 269.575, 155.750 270.280 C 155.023 270.539, 154.871 271.097, 155.387 271.613 C 155.903 272.129, 156.461 271.977, 156.720 271.250 C 156.972 270.545, 158.838 270, 161 270 C 163.129 270, 165.059 269.444, 165.341 268.750 C 165.724 267.804, 166.096 267.858, 166.869 268.971 C 167.431 269.780, 168.240 270.093, 168.667 269.667 C 169.093 269.240, 168.780 268.466, 167.971 267.946 C 166.956 267.293, 166.841 266.767, 167.599 266.250 C 168.876 265.378, 169.063 262, 167.833 262 C 167.375 262, 167 262.900, 167 264 C 167 266.206, 165.425 266.724, 164.720 264.750 C 164.461 264.023, 163.903 263.871, 163.387 264.387 C 162.871 264.903, 163.023 265.461, 163.750 265.720 C 166.383 266.661, 164.831 268, 161.107 268 C 158.770 268, 157.008 267.463, 156.698 266.656 C 156.329 265.694, 156.866 265.443, 158.591 265.773 C 160.523 266.142, 161 265.814, 161 264.117 C 161 262.952, 160.550 262, 160 262 C 159.450 262, 159 261.100, 159 260 C 159 258.900, 159.450 258, 160 258 C 161.443 258, 161.233 254.275, 159.750 253.583 C 158.750 253.117, 158.750 252.883, 159.750 252.417 C 160.438 252.096, 161 250.521, 161 248.917 C 161 246.667, 161.457 246, 163 246 C 164.100 246, 165 245.658, 165 245.241 C 165 244.823, 164.100 243.919, 163 243.232 C 161.249 242.139, 161 242.233, 161 243.992 M 223.750 242.662 C 224.438 242.940, 225 244.254, 225 245.583 C 225 247.333, 224.448 248, 223 248 C 221.900 248, 221 247.550, 221 247 C 221 246.450, 220.325 246, 219.500 246 C 218.675 246, 218 246.450, 218 247 C 218 247.550, 218.675 248, 219.500 248 C 221.093 248, 221.578 249.605, 220.155 250.167 C 219.690 250.350, 219.006 251.738, 218.636 253.250 C 218.124 255.339, 218.327 256, 219.481 256 C 220.502 256, 221 255.017, 221 253 C 221 250.667, 221.444 250, 223 250 C 224.100 250, 225 249.550, 225 249 C 225 247.544, 230.752 247.773, 231.280 249.250 C 231.525 249.938, 232.112 250.138, 232.584 249.696 C 233.056 249.253, 232.820 248.507, 232.059 248.036 C 230.908 247.325, 230.954 246.903, 232.338 245.519 C 233.815 244.042, 234.167 244.024, 235.500 245.357 C 237.217 247.074, 237.507 250, 235.961 250 C 235.359 250, 235.464 250.597, 236.211 251.418 C 237.310 252.626, 237.645 252.516, 238.482 250.668 C 239.022 249.476, 240.076 247.865, 240.823 247.088 C 241.976 245.889, 242.311 245.885, 243.036 247.059 C 243.507 247.820, 244.220 248.113, 244.623 247.711 C 245.025 247.308, 244.490 246.347, 243.433 245.575 C 242.004 244.530, 241.319 244.469, 240.756 245.335 C 240.262 246.097, 239.740 246.152, 239.250 245.495 C 237.965 243.772, 231.559 241.996, 226.929 242.079 C 224.493 242.122, 223.063 242.385, 223.750 242.662 M 265.750 242.662 C 266.438 242.940, 267 243.611, 267 244.155 C 267 244.698, 267.675 245.818, 268.500 246.643 C 269.833 247.976, 270.167 247.976, 271.500 246.643 C 273.195 244.948, 273.518 243.562, 272 244.500 C 271.450 244.840, 271 244.416, 271 243.559 C 271 242.451, 270.061 242.023, 267.750 242.079 C 265.962 242.122, 265.063 242.385, 265.750 242.662 M 129.153 244.867 C 126.473 247.191, 126.434 248, 129 248 C 130.100 248, 131 248.450, 131 249 C 131 249.550, 131.450 250, 132 250 C 132.550 250, 133 248.650, 133 247 C 133 243.562, 133.478 243.336, 135.813 245.670 C 137.027 246.884, 137.144 247.452, 136.241 247.753 C 134.135 248.455, 134.768 252, 137 252 C 139.206 252, 139.724 250.425, 137.750 249.720 C 137.063 249.475, 136.827 248.923, 137.226 248.494 C 137.625 248.066, 138.722 248.342, 139.663 249.107 C 141.178 250.340, 141.296 250.290, 140.687 248.668 C 140.309 247.661, 140 246.648, 140 246.418 C 140 246.188, 139.518 246, 138.929 246 C 138.339 246, 137.182 245.325, 136.357 244.500 C 134.337 242.480, 131.754 242.611, 129.153 244.867 M 189 245.500 C 189 246.875, 188.550 248, 188 248 C 186.461 248, 186.701 265.694, 188.250 266.417 C 189.250 266.883, 189.250 267.117, 188.250 267.583 C 186.637 268.336, 186.648 270.790, 188.271 272.413 C 190.135 274.278, 194.388 276.437, 193.562 275.100 C 193.188 274.495, 193.359 274, 193.941 274 C 194.523 274, 195 273.048, 195 271.883 C 195 270.172, 195.473 269.857, 197.470 270.239 C 200.870 270.889, 199.895 269.752, 195.069 267.439 L 191.023 265.500 191.011 257.833 C 191.004 252.638, 191.403 249.997, 192.250 249.641 C 193.160 249.259, 193.050 248.829, 191.843 248.060 C 190.830 247.415, 190.389 246.227, 190.710 245.002 C 191.003 243.882, 190.741 243, 190.117 243 C 189.502 243, 189 244.125, 189 245.500 M 203 251.667 C 203 256.433, 203.176 260.146, 203.392 259.917 C 204.284 258.967, 204.787 243, 203.925 243 C 203.416 243, 203 246.900, 203 251.667 M 229 244.500 C 229 245.325, 229.257 246, 229.571 246 C 229.886 246, 230.818 245.325, 231.643 244.500 C 232.976 243.167, 232.913 243, 231.071 243 C 229.897 243, 229 243.649, 229 244.500 M 315.660 254.204 C 316 260.417, 316.441 265.688, 316.639 265.917 C 316.838 266.146, 317 261.335, 317 255.226 C 317 249.056, 316.565 243.849, 316.021 243.513 C 315.390 243.123, 315.262 246.930, 315.660 254.204 M 121.619 244.714 C 120.284 246.050, 121.103 248, 123 248 C 124.100 248, 125 247.743, 125 247.429 C 125 246.325, 122.231 244.102, 121.619 244.714 M 289 244.510 C 289 244.926, 289.998 246.131, 291.218 247.189 C 293.055 248.782, 293.189 249.265, 291.997 250.002 C 291.205 250.491, 290.944 251.253, 291.416 251.696 C 291.888 252.138, 292.475 251.938, 292.720 251.250 C 293.425 249.276, 295 249.794, 295 252 C 295 253.100, 294.550 254, 294 254 C 293.450 254, 293 254.900, 293 256 C 293 257.100, 293.450 258, 294 258 C 294.550 258, 295 257.100, 295 256 C 295 254.900, 295.450 254, 296 254 C 296.550 254, 297 255.607, 297 257.571 C 297 259.536, 297.643 261.786, 298.429 262.571 C 300.366 264.509, 301 264.369, 301 262 C 301 260.900, 300.550 260, 300 260 C 299.450 260, 299 259.250, 299 258.333 C 299 257.417, 299.279 256.945, 299.619 257.286 C 299.960 257.626, 300.913 257.230, 301.738 256.405 C 302.563 255.580, 302.935 254.602, 302.565 254.231 C 302.194 253.861, 301.500 254.191, 301.022 254.965 C 300.302 256.129, 299.881 256.146, 298.576 255.063 C 297.709 254.344, 297 253.115, 297 252.332 C 297 250.980, 294.522 248.131, 290.732 245.128 C 289.779 244.373, 289 244.095, 289 244.510 M 118.023 249.472 C 117.048 250.647, 117.110 251.253, 118.329 252.472 C 119.170 253.312, 120.564 254, 121.429 254 C 122.293 254, 123 254.450, 123 255 C 123 255.550, 123.900 256, 125 256 C 127.206 256, 127.724 257.575, 125.750 258.280 C 125.063 258.525, 124.816 259.066, 125.202 259.482 C 125.589 259.898, 126.650 259.492, 127.562 258.581 C 129.104 257.039, 129.064 256.790, 126.974 254.978 C 125.119 253.369, 124.948 252.768, 125.987 251.515 C 126.850 250.475, 126.893 250, 126.122 250 C 125.505 250, 125 250.450, 125 251 C 125 251.550, 123.650 252, 122 252 C 120.350 252, 119 251.550, 119 251 C 119 250.450, 119.450 250, 120 250 C 120.550 250, 121 249.550, 121 249 C 121 247.532, 119.426 247.782, 118.023 249.472 M 163 250 C 163 251.100, 162.550 252, 162 252 C 161.450 252, 161 252.450, 161 253 C 161 253.550, 161.869 254, 162.930 254 C 164.142 254, 165.017 254.838, 165.279 256.250 C 165.640 258.190, 165.804 258.052, 166.474 255.250 C 167.329 251.670, 169 250.843, 169 254 C 169 255.100, 168.550 256, 168 256 C 167.450 256, 167 256.900, 167 258 C 167 259.100, 167.450 260, 168 260 C 168.550 260, 169 259.265, 169 258.367 C 169 257.469, 169.949 255.911, 171.109 254.905 C 172.903 253.350, 173.012 252.869, 171.839 251.696 C 167.995 247.852, 163 246.894, 163 250 M 207 257.917 C 207 264.923, 206.636 267.955, 205.759 268.247 C 204.873 268.542, 205.030 269.172, 206.307 270.449 C 207.290 271.433, 208.398 271.935, 208.769 271.565 C 209.139 271.194, 208.795 270.491, 208.003 270.002 C 206.811 269.265, 206.945 268.782, 208.782 267.189 C 212.623 263.858, 211.622 248, 207.571 248 C 207.257 248, 207 252.463, 207 257.917 M 263 249 C 263 249.550, 263.900 250, 265 250 C 266.333 250, 267 250.667, 267 252 C 267 253.333, 267.667 254, 269 254 C 270.333 254, 271 253.333, 271 252 C 271 250.667, 270.333 250, 269 250 C 267.900 250, 267 249.550, 267 249 C 267 248.450, 266.100 248, 265 248 C 263.900 248, 263 248.450, 263 249 M 258.889 252.691 C 258.828 253.686, 258.864 255.541, 258.969 256.813 C 259.075 258.101, 258.238 259.927, 257.080 260.931 C 255.936 261.923, 255 263.919, 255 265.367 C 255 267.626, 255.426 268, 258 268 C 260.333 268, 261 267.556, 261 266 C 261 263.794, 259.425 263.276, 258.720 265.250 C 258.461 265.977, 257.903 266.129, 257.387 265.613 C 256.871 265.097, 257.023 264.539, 257.750 264.280 C 258.438 264.034, 259 262.971, 259 261.917 C 259 260.863, 259.450 260, 260 260 C 260.550 260, 261 258.227, 261 256.059 C 261 252.183, 259.105 249.159, 258.889 252.691 M 239 253.571 C 239 255.762, 242.202 258.893, 242.753 257.241 C 242.981 256.558, 244.029 256, 245.083 256 C 246.137 256, 247 255.550, 247 255 C 247 254.450, 246.100 254, 245 254 C 243.900 254, 243 253.550, 243 253 C 243 252.450, 242.100 252, 241 252 C 239.848 252, 239 252.667, 239 253.571 M 263 254 C 263 255.100, 263.450 256, 264 256 C 264.550 256, 265 255.100, 265 254 C 265 252.900, 264.550 252, 264 252 C 263.450 252, 263 252.900, 263 254 M 272.250 253.496 C 271.563 254.277, 271 255.610, 271 256.458 C 271 257.306, 270.589 258, 270.087 258 C 269.585 258, 269.683 259.350, 270.306 261 C 270.980 262.786, 272.159 264, 273.219 264 C 275.566 264, 275.477 262.785, 273 261 C 271.900 260.207, 271 259.208, 271 258.779 C 271 258.351, 271.900 258, 273 258 C 274.100 258, 275 258.450, 275 259 C 275 259.550, 275.450 260, 276 260 C 276.550 260, 277 259.100, 277 258 C 277 256.900, 276.550 256, 276 256 C 275.450 256, 275 255.100, 275 254 C 275 251.672, 274.015 251.491, 272.250 253.496 M 223 258 C 223 261.778, 223.167 262, 226 262 C 228.333 262, 229 261.556, 229 260 C 229 258.900, 228.550 258, 228 258 C 227.450 258, 227 257.100, 227 256 C 227 254.667, 226.333 254, 225 254 C 223.333 254, 223 254.667, 223 258 M 309 257 C 309 258.650, 309.450 260, 310 260 C 310.550 260, 311 258.650, 311 257 C 311 255.350, 310.550 254, 310 254 C 309.450 254, 309 255.350, 309 257 M 119 256.878 C 119 258.134, 121.934 260.399, 122.643 259.690 C 122.970 259.363, 122.542 258.399, 121.690 257.548 C 119.953 255.810, 119 255.573, 119 256.878 M 288 260 C 288 262.889, 288.417 264, 289.500 264 C 290.583 264, 291 262.889, 291 260 C 291 257.111, 290.583 256, 289.500 256 C 288.417 256, 288 257.111, 288 260 M 304.144 257.676 C 302.356 259.610, 302.040 266, 303.733 266 C 304.540 266, 305 264.579, 305 262.083 C 305 259.925, 305.539 257.987, 306.201 257.766 C 306.887 257.538, 306.994 257.118, 306.451 256.788 C 305.928 256.470, 304.890 256.870, 304.144 257.676 M 129.757 260.208 C 128.420 261.881, 128.304 262.572, 129.257 263.169 C 130.069 263.679, 130.611 263.264, 130.820 261.974 C 131.217 259.521, 131.566 259.518, 134.170 261.944 C 135.938 263.591, 136.465 263.678, 137.628 262.515 C 139.303 260.839, 139.382 259.354, 137.845 258.405 C 137.211 258.012, 136.956 258.119, 137.280 258.643 C 137.603 259.167, 137.473 260.235, 136.990 261.016 C 136.270 262.181, 135.767 262.038, 134.189 260.218 C 131.845 257.515, 131.908 257.515, 129.757 260.208 M 153 260 C 153 261.100, 153.450 262, 154 262 C 154.550 262, 155 261.100, 155 260 C 155 258.900, 154.550 258, 154 258 C 153.450 258, 153 258.900, 153 260 M 171.472 260.750 C 172.944 266.491, 173.223 272, 172.042 272 C 171.404 272, 171.160 272.450, 171.500 273 C 172.587 274.760, 175 274.070, 175 272 C 175 270.900, 175.450 270, 176 270 C 177.443 270, 177.233 266.275, 175.750 265.583 C 174.750 265.117, 174.750 264.883, 175.750 264.417 C 177.855 263.434, 177.217 261.130, 175 261.710 C 173.465 262.112, 173 261.741, 173 260.117 C 173 258.952, 172.498 258, 171.883 258 C 171.161 258, 171.016 258.971, 171.472 260.750 M 218 259 C 218 259.550, 218.675 260, 219.500 260 C 220.325 260, 221 259.550, 221 259 C 221 258.450, 220.325 258, 219.500 258 C 218.675 258, 218 258.450, 218 259 M 232.206 259.148 C 232.918 259.600, 234.095 259.976, 234.821 259.985 C 235.548 259.993, 236.859 260.716, 237.734 261.591 C 239.085 262.943, 239.112 263.318, 237.912 264.091 C 236.706 264.867, 236.719 265.157, 238 266.076 C 239.129 266.886, 239.191 267.278, 238.250 267.659 C 237.563 267.938, 237 268.579, 237 269.083 C 237 270.456, 239.241 270.132, 241.485 268.436 C 243.447 266.953, 243.444 266.929, 241.235 266.351 C 238.705 265.690, 238.200 264, 240.531 264 C 242.762 264, 243.441 261.298, 241.658 259.515 C 240.657 258.514, 238.519 258.040, 235.517 258.153 C 232.677 258.261, 231.408 258.642, 232.206 259.148 M 262.250 261.496 C 260.437 263.555, 260.683 264, 263.633 264 C 265.081 264, 266.993 264.809, 267.883 265.797 C 268.772 266.786, 271.051 267.700, 272.948 267.828 C 276.663 268.080, 278.268 268.999, 276.250 269.720 C 275.563 269.966, 275 270.836, 275 271.655 C 275 274.181, 277.691 276, 281.429 276 C 285.183 276, 286.091 274.235, 284 271 C 283.216 269.787, 283.028 269.931, 283.015 271.750 C 282.999 274.178, 281.531 274.782, 280.583 272.750 C 280.117 271.750, 279.883 271.750, 279.417 272.750 C 278.511 274.692, 277 274.223, 277 272 C 277 270.848, 277.667 270, 278.571 270 C 280.684 270, 283.321 267.317, 282.008 266.505 C 281.453 266.162, 281 266.359, 281 266.941 C 281 267.523, 280.550 268, 280 268 C 279.450 268, 279 266.650, 279 265 C 279 261.515, 277.291 260.928, 276.820 264.250 C 276.556 266.103, 275.926 266.468, 273.248 266.320 C 271.460 266.220, 269.290 265.433, 268.427 264.570 C 267.563 263.706, 266.166 263, 265.322 263 C 264.367 263, 264.004 262.432, 264.362 261.500 C 265.083 259.620, 263.904 259.618, 262.250 261.496 M 139.632 261.786 C 139.217 262.457, 139.844 263.958, 141.072 265.237 C 142.977 267.219, 143.124 267.252, 142.259 265.500 C 141.715 264.400, 141.067 262.847, 140.818 262.049 C 140.488 260.990, 140.168 260.919, 139.632 261.786 M 218.136 265.250 C 218.235 267.600, 218.392 267.877, 218.706 266.250 C 218.944 265.012, 219.558 264, 220.070 264 C 220.581 264, 221 263.550, 221 263 C 221 262.450, 220.325 262, 219.500 262 C 218.446 262, 218.041 262.967, 218.136 265.250 M 308.112 263.644 C 306.928 264.981, 306.928 265.343, 308.112 266.106 C 309.276 266.856, 309.281 267.141, 308.143 267.875 C 307.197 268.485, 307.121 268.957, 307.893 269.434 C 308.502 269.810, 309 269.641, 309 269.059 C 309 268.477, 310.305 268, 311.901 268 C 314.409 268, 314.936 268.507, 315.797 271.750 L 316.793 275.500 316.897 272.179 C 317.007 268.644, 315.156 266, 312.571 266 C 311.667 266, 311 265.152, 311 264 C 311 261.620, 310.012 261.498, 308.112 263.644 M 117 265.571 C 117 266.436, 117.669 267.812, 118.487 268.630 C 119.803 269.946, 120.263 269.828, 122.487 267.604 C 123.869 266.222, 125 264.845, 125 264.545 C 125 263.431, 121.145 264.046, 120.583 265.250 C 120.117 266.250, 119.883 266.250, 119.417 265.250 C 118.593 263.484, 117 263.696, 117 265.571 M 133 264.661 C 133 265.024, 134.455 266.620, 136.233 268.208 C 138.855 270.549, 139.191 271.264, 138.012 271.993 C 137.212 272.487, 136.880 273.213, 137.273 273.606 C 138.089 274.423, 142.008 270.257, 141.985 268.597 C 141.976 267.994, 141.527 268.175, 140.986 269 C 140.164 270.253, 139.528 269.965, 137.119 267.250 C 134.339 264.115, 133 263.274, 133 264.661 M 229 265 C 229 265.550, 229.637 266, 230.417 266 C 231.196 266, 232.010 266.530, 232.226 267.177 C 232.739 268.718, 235 267.303, 235 265.441 C 235 264.507, 233.945 264, 232 264 C 230.350 264, 229 264.450, 229 265 M 290.413 265.322 C 289.815 266.007, 288.991 267.900, 288.582 269.530 L 287.838 272.492 289.881 270.137 C 291.840 267.879, 291.998 267.855, 293.703 269.560 C 294.975 270.832, 295.128 271.457, 294.241 271.753 C 292.768 272.244, 292.554 276, 294 276 C 294.550 276, 295 275.362, 295 274.582 C 295 273.802, 295.251 272.510, 295.558 271.711 C 295.864 270.912, 295.359 269.502, 294.436 268.578 C 292.863 267.006, 292.875 266.809, 294.628 265.481 C 296.403 264.137, 296.371 264.064, 294 264.070 C 292.625 264.073, 291.011 264.637, 290.413 265.322 M 189 269.571 C 189 271.087, 191.255 274, 192.429 274 C 192.743 274, 193 272.650, 193 271 C 193 268.667, 192.556 268, 191 268 C 189.848 268, 189 268.667, 189 269.571 M 123 271.062 C 123 271.578, 122.213 272.014, 121.250 272.032 C 119.667 272.061, 119.685 272.203, 121.441 273.532 C 123.993 275.462, 124.309 275.397, 125.562 272.691 C 126.455 270.763, 126.335 270.376, 124.812 270.261 C 123.815 270.186, 123 270.546, 123 271.062 M 128.195 271.555 C 127.117 272.776, 127.148 273.291, 128.374 274.517 C 130.367 276.510, 131 276.385, 131 274 C 131 272.667, 131.667 272, 133 272 C 134.100 272, 135 271.550, 135 271 C 135 269.457, 129.663 269.892, 128.195 271.555 M 177 273 C 177 275.333, 177.444 276, 179 276 C 180.100 276, 181 275.550, 181 275 C 181 274.450, 180.550 274, 180 274 C 179.450 274, 179 273.100, 179 272 C 179 270.900, 178.550 270, 178 270 C 177.450 270, 177 271.350, 177 273 M 218.639 271.498 C 217.580 274.258, 217.913 276, 219.500 276 C 221.130 276, 221.478 273.302, 220.124 271.166 C 219.449 270.102, 219.149 270.169, 218.639 271.498 M 225 273 C 225 274.650, 225.450 276, 226 276 C 226.550 276, 227 274.650, 227 273 C 227 271.350, 226.550 270, 226 270 C 225.450 270, 225 271.350, 225 273 M 243 271 C 243 271.550, 243.505 272, 244.122 272 C 244.890 272, 244.845 272.482, 243.980 273.524 C 242.316 275.530, 243.491 276.651, 245.330 274.812 C 246.479 273.664, 246.516 273.058, 245.518 271.693 C 244.133 269.799, 243 269.487, 243 271 M 256.500 272 C 256.864 273.147, 256.680 274, 256.067 274 C 255.480 274, 255 273.550, 255 273 C 255 271.313, 252.411 271.889, 250.500 274 C 249.474 275.134, 249.190 276, 249.845 276 C 250.480 276, 251 275.550, 251 275 C 251 274.450, 251.900 274, 253 274 C 254.100 274, 255 274.450, 255 275 C 255 275.550, 255.900 276, 257 276 C 258.333 276, 259 275.333, 259 274 C 259 272.900, 259.450 272, 260 272 C 260.550 272, 261 271.550, 261 271 C 261 270.450, 259.845 270, 258.433 270 C 256.320 270, 255.978 270.355, 256.500 272 M 311 270.571 C 311 271.634, 314.091 274.243, 314.667 273.667 C 314.981 273.352, 314.542 272.399, 313.690 271.548 C 312.103 269.960, 311 269.560, 311 270.571 M 196.149 273.604 C 195.406 274.444, 195.093 275.426, 195.453 275.787 C 195.814 276.147, 196.569 275.780, 197.131 274.971 C 197.904 273.858, 198.276 273.804, 198.659 274.750 C 199.338 276.423, 201.809 276.334, 203.571 274.571 C 204.357 273.786, 205 272.961, 205 272.738 C 205 271.834, 201.442 272.380, 200.674 273.401 C 200.087 274.182, 199.701 274.139, 199.341 273.250 C 198.681 271.625, 197.814 271.721, 196.149 273.604 M 236.234 273.322 C 237.188 274.078, 237.676 274.991, 237.318 275.349 C 236.960 275.707, 237.449 276, 238.405 276 C 240.452 276, 243.538 273.205, 242.565 272.231 C 242.194 271.861, 241.466 272.220, 240.946 273.029 C 240.351 273.953, 239.721 274.128, 239.250 273.500 C 238.838 272.950, 237.600 272.375, 236.500 272.223 C 234.634 271.964, 234.616 272.038, 236.234 273.322 M 290.250 273.559 C 288.777 275.157, 288.654 276, 289.893 276 C 290.746 276, 292.343 272.991, 291.774 272.458 C 291.623 272.317, 290.938 272.812, 290.250 273.559 M 151 275.062 C 151 275.578, 151.900 276, 153 276 C 154.100 276, 155 275.646, 155 275.213 C 155 274.780, 154.100 274.358, 153 274.275 C 151.900 274.192, 151 274.546, 151 275.062" stroke="none" fill="#f1a620" fill-rule="evenodd"/><path d="M 167 28.930 C 167 29.442, 165.988 30.005, 164.750 30.180 C 162.812 30.456, 162.472 31.159, 162.298 35.250 C 162.146 38.828, 162.454 40, 163.548 40 C 164.347 40, 165 39.550, 165 39 C 165 38.411, 168.524 38, 173.571 38 C 182.391 38, 185 36.989, 185 33.571 C 185 32.259, 183.515 32, 176 32 C 167.667 32, 167 32.148, 167 34 C 167 35.100, 166.550 36, 166 36 C 164.515 36, 164.790 33.067, 166.429 31.429 C 167.432 30.425, 170.273 30, 175.974 30 C 183.310 30, 184.333 30.242, 186.604 32.513 C 188.828 34.737, 188.946 35.197, 187.630 36.513 C 186.812 37.331, 185.436 38, 184.571 38 C 183.707 38, 183 38.450, 183 39 C 183 39.593, 179.333 40, 174 40 C 168.667 40, 165 40.407, 165 41 C 165 41.550, 164.316 42, 163.480 42 C 162.161 42, 161.983 44.823, 162.138 63.250 C 162.247 76.243, 162.611 82.946, 163.073 80.500 C 163.490 78.300, 163.582 74.588, 163.279 72.250 C 162.912 69.421, 163.108 68, 163.864 68 C 164.489 68, 165.036 68.563, 165.079 69.250 C 165.122 69.938, 165.640 69.172, 166.229 67.550 C 167.016 65.381, 166.995 64.498, 166.150 64.217 C 164.720 63.740, 164.576 52, 166 52 C 166.550 52, 167 51.100, 167 50 C 167 48.900, 167.450 48, 168 48 C 168.550 48, 169 49.350, 169 51 C 169 52.650, 168.550 54, 168 54 C 167.450 54, 167 54.900, 167 56 C 167 58.421, 167.419 58.478, 169.865 56.384 C 171.018 55.396, 171.550 53.996, 171.233 52.782 C 170.947 51.689, 171.312 50.425, 172.043 49.973 C 173.052 49.350, 172.569 48.400, 170.049 46.046 C 168.221 44.338, 166.982 42.684, 167.296 42.371 C 167.610 42.057, 169.567 43.501, 171.646 45.579 C 173.901 47.835, 174.936 49.521, 174.212 49.763 C 173.546 49.985, 173 50.900, 173 51.796 C 173 53.641, 178.891 47.286, 178.959 45.367 C 178.982 44.743, 179.900 43.998, 181 43.710 C 182.100 43.423, 183.024 42.583, 183.054 41.844 C 183.083 41.105, 185.864 39.150, 189.233 37.500 C 193.392 35.463, 194.762 34.385, 193.500 34.142 C 191.662 33.788, 189 31.676, 189 30.571 C 189 30.257, 189.900 30, 191 30 C 192.100 30, 193 30.394, 193 30.875 C 193 32.615, 198.760 32.847, 203.081 31.281 C 205.511 30.400, 209.525 29.362, 212 28.973 C 216.273 28.303, 216.160 28.260, 209.750 28.134 C 205.828 28.056, 203 28.419, 203 29 C 203 29.550, 202.100 30, 201 30 C 199.900 30, 199 29.550, 199 29 C 199 27.557, 195.275 27.767, 194.583 29.250 C 194.117 30.250, 193.883 30.250, 193.417 29.250 C 192.662 27.632, 189.338 27.632, 188.583 29.250 C 188.117 30.250, 187.883 30.250, 187.417 29.250 C 186.720 27.756, 167 27.448, 167 28.930 M 173 43.034 C 173 43.683, 173.605 43.982, 174.344 43.698 C 175.306 43.329, 175.557 43.866, 175.227 45.591 C 174.951 47.038, 175.239 48, 175.950 48 C 177.869 48, 176.747 42.564, 174.750 42.185 C 173.787 42.003, 173 42.384, 173 43.034 M 253.245 74.250 C 253.471 74.938, 254.641 75.645, 255.843 75.821 C 257.046 75.998, 257.790 76.530, 257.498 77.003 C 257.206 77.476, 257.768 78.456, 258.749 79.182 C 259.729 79.907, 261.077 81.737, 261.744 83.250 C 262.509 84.985, 263.728 86, 265.046 86 C 266.633 86, 266.992 86.450, 266.540 87.874 C 266.178 89.014, 267.328 92.402, 269.472 96.517 C 271.413 100.239, 273 103.922, 273 104.701 C 273 105.480, 273.398 105.872, 273.884 105.572 C 274.373 105.269, 274.628 108.031, 274.456 111.763 C 274.284 115.468, 274.371 117.207, 274.650 115.626 C 275.542 110.566, 281.963 105.855, 283.341 109.250 C 283.723 110.194, 284.130 110.133, 285 109 C 285.870 107.867, 286.277 107.806, 286.659 108.750 C 287.262 110.234, 290 110.439, 290 109 C 290 108.450, 289.325 108, 288.500 108 C 287.510 108, 287 107.009, 287 105.083 C 287 103.479, 286.438 101.904, 285.750 101.583 C 284.750 101.117, 284.750 100.883, 285.750 100.417 C 286.438 100.096, 287 99.421, 287 98.917 C 287 97.534, 283.252 97.817, 282.583 99.250 C 282.117 100.250, 281.883 100.250, 281.417 99.250 C 280.725 97.767, 277 97.557, 277 99 C 277 99.550, 276.550 100, 276 100 C 274.482 100, 274.805 95.052, 276.429 93.429 C 278.275 91.582, 279 91.622, 279 93.571 C 279 95.762, 282.202 98.893, 282.753 97.241 C 282.981 96.558, 283.836 96, 284.655 96 C 285.473 96, 286.774 95.369, 287.546 94.597 C 288.750 93.393, 288.715 93.105, 287.304 92.563 C 286.400 92.216, 285.252 92.510, 284.754 93.216 C 284.036 94.234, 283.742 94.241, 283.341 93.250 C 283.062 92.563, 281.971 92, 280.917 92 C 279.863 92, 279 91.550, 279 91 C 279 90.450, 278.100 90, 277 90 C 275.546 90, 275 89.333, 275 87.559 C 275 86.216, 274.520 84.821, 273.933 84.459 C 273.293 84.063, 272.993 84.539, 273.183 85.650 C 273.402 86.930, 272.807 87.598, 271.250 87.820 C 269.539 88.063, 269 87.644, 269 86.070 C 269 84.771, 269.652 83.994, 270.750 83.985 C 272.243 83.972, 272.279 83.829, 271 83.017 C 270.045 82.410, 269.379 82.416, 269.167 83.032 C 268.983 83.564, 268.373 84, 267.810 84 C 267.247 84, 267.045 83.325, 267.362 82.500 C 268.104 80.564, 267.542 80.601, 265.524 82.619 C 264.633 83.510, 263.589 83.898, 263.202 83.482 C 262.816 83.066, 263.063 82.525, 263.750 82.280 C 265.959 81.491, 265.231 78.792, 263 79.500 C 261.620 79.938, 261 79.680, 261 78.666 C 261 77.858, 259.399 76.253, 257.443 75.099 C 253.320 72.666, 252.681 72.537, 253.245 74.250 M 190.762 85.707 C 192.006 85.946, 193.806 85.937, 194.762 85.687 C 195.718 85.437, 194.700 85.241, 192.500 85.252 C 190.300 85.263, 189.518 85.468, 190.762 85.707 M 244.250 85.689 C 245.213 85.941, 246.787 85.941, 247.750 85.689 C 248.713 85.438, 247.925 85.232, 246 85.232 C 244.075 85.232, 243.287 85.438, 244.250 85.689 M 231.360 96 C 231.360 101.225, 231.529 103.362, 231.735 100.750 C 231.941 98.138, 231.941 93.862, 231.735 91.250 C 231.529 88.638, 231.360 90.775, 231.360 96 M 269 91 C 269 91.550, 269.450 92, 270 92 C 270.550 92, 271 92.900, 271 94 C 271 95.100, 271.450 96, 272 96 C 272.550 96, 273 94.650, 273 93 C 273 90.667, 272.556 90, 271 90 C 269.900 90, 269 90.450, 269 91 M 289.250 95.768 C 286.708 96.187, 286.157 98, 288.571 98 C 290.551 98, 293.494 100.858, 292.482 101.798 C 292.066 102.184, 291.525 101.938, 291.280 101.250 C 290.751 99.770, 287 99.551, 287 101 C 287 101.550, 287.900 102, 289 102 C 290.405 102, 291.002 102.669, 291.007 104.250 C 291.013 106.333, 291.160 106.277, 292.993 103.500 C 294.081 101.850, 294.528 100.350, 293.986 100.167 C 293.444 99.983, 293 98.997, 293 97.976 C 293 95.738, 292.219 95.279, 289.250 95.768 M 277.980 103.524 C 277.284 104.362, 277.029 105.362, 277.412 105.745 C 277.795 106.128, 278.569 105.780, 279.131 104.971 C 279.904 103.858, 280.276 103.804, 280.659 104.750 C 281.454 106.709, 283 106.214, 283 104 C 283 101.583, 279.840 101.283, 277.980 103.524 M 280.250 111.496 C 279.563 112.277, 279 113.610, 279 114.458 C 279 115.306, 278.550 116, 278 116 C 277.450 116, 277 117.350, 277 119 C 277 120.667, 277.533 122, 278.200 122 C 279.133 122, 279.133 122.267, 278.200 123.200 C 276.616 124.784, 276.686 125.665, 278.449 126.342 C 279.418 126.714, 279.714 126.418, 279.342 125.449 C 279.036 124.652, 279.284 124, 279.893 124 C 280.502 124, 281 123.100, 281 122 C 281 120.900, 281.450 120, 282 120 C 282.550 120, 283 119.052, 283 117.893 C 283 116.507, 283.475 115.968, 284.387 116.318 C 286.072 116.965, 285.331 113.194, 283.391 111.250 C 281.867 109.724, 281.806 109.729, 280.250 111.496 M 173.250 113.689 C 174.213 113.941, 175.787 113.941, 176.750 113.689 C 177.713 113.438, 176.925 113.232, 175 113.232 C 173.075 113.232, 172.287 113.438, 173.250 113.689 M 279 118 C 279 119.100, 279.450 120, 280 120 C 280.550 120, 281 119.100, 281 118 C 281 116.900, 280.550 116, 280 116 C 279.450 116, 279 116.900, 279 118 M 274.500 124 C 273.649 126.680, 274.793 130, 276.567 130 C 278.500 130, 278.373 128.515, 276.259 126.402 C 275.007 125.150, 274.867 124.544, 275.759 124.247 C 277.201 123.766, 277.444 122, 276.067 122 C 275.554 122, 274.849 122.900, 274.500 124 M 145.153 129.436 C 145.795 130.846, 146.715 132, 147.196 132 C 148.219 132, 146.455 128.399, 144.987 127.492 C 144.415 127.138, 144.486 127.972, 145.153 129.436 M 270.923 137.013 C 269.028 143.010, 269.699 143.388, 272.750 138.044 C 275.297 133.583, 275.561 131.994, 273.750 132.013 C 273.063 132.021, 271.791 134.271, 270.923 137.013 M 150.765 138.782 C 154.722 145.127, 155.472 145.740, 159.790 146.151 L 164.071 146.560 160.286 143.317 C 158.204 141.534, 155.765 140.058, 154.867 140.038 C 153.968 140.017, 152.998 139.100, 152.710 138 C 152.423 136.900, 151.477 136, 150.608 136 C 149.207 136, 149.225 136.313, 150.765 138.782 M 156 147.840 C 156 148.268, 156.661 149.491, 157.468 150.559 C 158.907 152.461, 158.937 152.456, 158.968 150.357 C 158.986 149.178, 158.325 147.955, 157.500 147.638 C 156.675 147.322, 156 147.413, 156 147.840 M 165 148.500 C 165 149.333, 164.111 150, 163 150 C 160.786 150, 160.291 151.546, 162.250 152.341 C 163.222 152.735, 163.198 153.059, 162.143 153.799 C 160.523 154.935, 161.578 159.379, 163.227 158.360 C 163.869 157.963, 164.021 158.157, 163.600 158.838 C 163.211 159.468, 163.352 160.775, 163.915 161.742 C 164.776 163.220, 164.944 163.014, 164.970 160.450 C 164.986 158.773, 165.559 156.841, 166.242 156.158 C 167.230 155.170, 167.185 154.733, 166.021 154.013 C 165.216 153.516, 164.907 152.760, 165.333 152.333 C 165.760 151.907, 166.569 152.220, 167.131 153.029 C 167.904 154.142, 168.276 154.196, 168.659 153.250 C 169.153 152.033, 173 151.432, 173 152.571 C 173 153.745, 170.087 156, 168.571 156 C 167.492 156, 167 156.939, 167 159 C 167 161.061, 167.492 162, 168.571 162 C 170.432 162, 173 164.355, 173 166.061 C 173 166.724, 173.830 167.993, 174.843 168.883 C 175.857 169.772, 176.870 171.030, 177.093 171.678 C 177.401 172.569, 178.071 172.548, 179.843 171.593 C 181.987 170.437, 182.051 170.194, 180.593 168.736 C 179.717 167.860, 179 166.629, 179 166 C 179 164.065, 176.026 161.760, 174.159 162.248 C 172.696 162.631, 172.451 162.172, 172.749 159.606 C 173.452 153.536, 174.057 151.999, 175.769 151.930 C 176.721 151.891, 175.800 151.235, 173.721 150.472 C 171.643 149.709, 169.280 149.339, 168.471 149.649 C 167.552 150.002, 167 149.611, 167 148.607 C 167 147.723, 166.550 147, 166 147 C 165.450 147, 165 147.675, 165 148.500 M 215 150.049 C 211.880 151.326, 211.182 151.908, 212.726 151.946 C 213.950 151.976, 216.425 151.102, 218.226 150.004 C 222.216 147.571, 221.013 147.588, 215 150.049 M 205 152.891 C 205 153.380, 202.004 153.826, 198.343 153.881 C 191.352 153.986, 189.641 154.542, 191.941 155.964 C 193.098 156.679, 193.064 157.079, 191.734 158.409 C 189.372 160.771, 185 160.505, 185 158 C 185 156.900, 185.450 156, 186 156 C 186.550 156, 187 156.450, 187 157 C 187 157.550, 187.900 158, 189 158 C 191.309 158, 191.511 157.362, 189.750 155.623 C 187.933 153.828, 185 152.890, 185 154.103 C 185 155.203, 182.539 158, 181.571 158 C 181.257 158, 181 157.100, 181 156 C 181 154.444, 180.333 154, 178 154 C 174.511 154, 174.187 154.972, 177 157 C 178.100 157.793, 179 159.038, 179 159.766 C 179 161.764, 183.235 165.591, 186.295 166.359 C 188.346 166.874, 189 166.671, 189 165.519 C 189 164.498, 188.017 164, 186 164 C 184.350 164, 183 163.550, 183 163 C 183 162.450, 184.350 162, 186 162 C 187.650 162, 189 162.450, 189 163 C 189 163.550, 189.900 164, 191 164 C 193.174 164, 193.742 162.414, 191.799 161.766 C 190.865 161.455, 190.865 161.202, 191.799 160.624 C 192.460 160.216, 193 160.359, 193 160.941 C 193 161.523, 193.900 162, 195 162 C 196.100 162, 197 161.550, 197 161 C 197 160.450, 197.900 160, 199 160 C 200.100 160, 201.002 159.662, 201.004 159.250 C 201.006 158.838, 203.004 157.679, 205.444 156.676 C 208.476 155.429, 209.707 154.400, 209.333 153.426 C 208.742 151.886, 205 151.424, 205 152.891 M 196.149 157.604 C 194.327 159.665, 195.500 160.643, 197.452 158.690 C 198.304 157.839, 199 156.886, 199 156.571 C 199 155.521, 197.515 156.059, 196.149 157.604 M 166.797 166.995 C 167.927 168.981, 168.609 169.487, 168.823 168.496 C 169.001 167.675, 168.470 166.327, 167.644 165.502 C 165.281 163.138, 164.942 163.735, 166.797 166.995 M 170.618 171.552 C 170.244 172.528, 170.431 172.851, 171.123 172.424 C 171.728 172.050, 172.605 172.360, 173.070 173.114 C 173.744 174.204, 174.170 174.230, 175.158 173.242 C 176.147 172.253, 176.054 172, 174.700 172 C 173.765 172, 173 171.550, 173 171 C 173 169.431, 171.279 169.830, 170.618 171.552 M 212.296 174.744 C 216.583 174.932, 223.333 174.931, 227.296 174.742 C 231.258 174.552, 227.750 174.399, 219.500 174.400 C 211.250 174.401, 208.008 174.556, 212.296 174.744 M 30.264 195.718 C 31.784 195.947, 34.034 195.941, 35.264 195.704 C 36.494 195.467, 35.250 195.279, 32.500 195.286 C 29.750 195.294, 28.744 195.488, 30.264 195.718 M 51.250 195.716 C 52.763 195.945, 55.237 195.945, 56.750 195.716 C 58.263 195.487, 57.025 195.300, 54 195.300 C 50.975 195.300, 49.737 195.487, 51.250 195.716 M 74.264 195.718 C 75.784 195.947, 78.034 195.941, 79.264 195.704 C 80.494 195.467, 79.250 195.279, 76.500 195.286 C 73.750 195.294, 72.744 195.488, 74.264 195.718 M 104.750 195.743 C 108.737 195.932, 115.263 195.932, 119.250 195.743 C 123.237 195.553, 119.975 195.397, 112 195.397 C 104.025 195.397, 100.763 195.553, 104.750 195.743 M 141.750 195.706 C 142.988 195.944, 145.012 195.944, 146.250 195.706 C 147.488 195.467, 146.475 195.272, 144 195.272 C 141.525 195.272, 140.512 195.467, 141.750 195.706 M 228.264 195.718 C 229.784 195.947, 232.034 195.941, 233.264 195.704 C 234.494 195.467, 233.250 195.279, 230.500 195.286 C 227.750 195.294, 226.744 195.488, 228.264 195.718 M 254.264 195.718 C 255.784 195.947, 258.034 195.941, 259.264 195.704 C 260.494 195.467, 259.250 195.279, 256.500 195.286 C 253.750 195.294, 252.744 195.488, 254.264 195.718 M 371.250 195.716 C 372.762 195.945, 375.238 195.945, 376.750 195.716 C 378.262 195.487, 377.025 195.300, 374 195.300 C 370.975 195.300, 369.738 195.487, 371.250 195.716 M 394.629 195.791 C 394.360 196.226, 395.796 196.425, 397.820 196.233 C 404.004 195.647, 404.733 195.238, 399.809 195.116 C 397.229 195.052, 394.898 195.356, 394.629 195.791 M 275.398 204.405 C 275.102 205.177, 275.044 207.315, 275.270 209.155 C 275.646 212.220, 275.693 212.150, 275.840 208.316 C 275.983 204.570, 276.287 204.089, 278.750 203.716 L 281.500 203.300 278.719 203.150 C 277.137 203.065, 275.705 203.606, 275.398 204.405 M 275.402 220.395 C 275.108 221.162, 275.046 223.524, 275.265 225.645 C 275.649 229.357, 275.670 229.326, 275.832 224.813 C 275.993 220.318, 276.132 220.110, 279.250 219.723 L 282.500 219.320 279.219 219.160 C 277.213 219.062, 275.729 219.542, 275.402 220.395 M 124 244.091 C 122.871 244.890, 122.809 245.278, 123.750 245.659 C 125.709 246.454, 125.214 248, 123 248 C 121.900 248, 121 247.523, 121 246.941 C 121 246.359, 120.502 246.190, 119.893 246.566 C 119.118 247.045, 119.183 247.495, 120.111 248.069 C 121.141 248.705, 120.939 249.318, 119.203 250.824 C 117.041 252.699, 117.025 256, 119.178 256 C 120.454 256, 122.449 258.071, 123.275 260.250 C 124.188 262.662, 127.879 262.445, 130.133 259.847 L 132 257.694 134.056 260.065 C 135.773 262.044, 136.263 262.193, 137.020 260.968 C 137.604 260.024, 137.494 259.077, 136.714 258.315 C 135.036 256.677, 127 254.031, 127 255.117 C 127 255.603, 126.100 256, 125 256 C 123.900 256, 123 255.550, 123 255 C 123 254.450, 122.100 254, 121 254 C 119.900 254, 119 253.550, 119 253 C 119 251.547, 124.728 251.771, 125.407 253.250 C 125.723 253.938, 125.730 253.488, 125.423 252.250 C 124.936 250.284, 125.253 250, 127.933 250 C 129.620 250, 131 249.550, 131 249 C 131 248.450, 130.100 248, 129 248 C 126.434 248, 126.473 247.191, 129.153 244.867 L 131.306 243 128.403 243.015 C 126.806 243.024, 124.825 243.508, 124 244.091 M 157.609 247.020 C 155.705 251.779, 155.681 252, 157.071 252 C 158.665 252, 161 254.633, 161 256.429 C 161 257.293, 160.550 258, 160 258 C 159.450 258, 159 258.900, 159 260 C 159 261.100, 158.550 262, 158 262 C 156.554 262, 156.768 258.244, 158.241 257.753 C 159.118 257.461, 158.935 256.792, 157.619 255.476 C 155.802 253.659, 155.721 253.661, 154.343 255.545 C 153.466 256.745, 153.322 257.607, 153.965 257.822 C 155.293 258.264, 155.324 262, 154 262 C 153.450 262, 152.997 261.438, 152.994 260.750 C 152.984 258.789, 148.344 268.662, 146.296 275 C 145.865 276.333, 145.933 276.333, 146.906 275 C 147.878 273.667, 148.111 273.667, 149 275 C 149.766 276.149, 150.187 276.212, 150.798 275.268 C 151.236 274.591, 152.551 274.221, 153.719 274.446 C 155.957 274.877, 157.756 272.419, 155.703 271.734 C 154.886 271.462, 155.037 270.820, 156.188 269.670 C 158.136 267.721, 164.600 267.424, 165.341 269.250 C 165.725 270.197, 166.095 270.144, 166.868 269.032 C 167.734 267.786, 168.178 267.899, 169.811 269.782 C 170.869 271.002, 172.065 272, 172.468 272 C 173.244 272, 172.657 265.373, 171.472 260.750 C 171.016 258.971, 171.161 258, 171.883 258 C 172.498 258, 173 258.900, 173 260 C 173 261.111, 173.667 262, 174.500 262 C 175.325 262, 176 261.761, 176 261.468 C 176 260.252, 173.053 254, 172.480 254 C 171.264 254, 169 256.881, 169 258.429 C 169 259.293, 168.550 260, 168 260 C 167.450 260, 167 259.100, 167 258 C 167 256.900, 167.450 256, 168 256 C 168.550 256, 169 255.100, 169 254 C 169 250.743, 167.275 251.721, 166.591 255.366 C 165.952 258.771, 166.609 262, 167.940 262 C 169.172 262, 168.743 265.400, 167.333 266.810 C 166.222 267.921, 165.730 267.873, 164.381 266.524 C 163.490 265.633, 163.102 264.589, 163.518 264.202 C 163.934 263.816, 164.475 264.063, 164.720 264.750 C 165.344 266.497, 167 266.315, 167 264.500 C 167 263.500, 166 263, 164 263 C 161.904 263, 161 263.487, 161 264.617 C 161 265.785, 160.333 266.106, 158.591 265.773 C 156.866 265.443, 156.329 265.694, 156.698 266.656 C 157.029 267.519, 156.460 268, 155.107 268 C 153.667 268, 153 268.633, 153 270 C 153 271.333, 152.333 272, 151 272 C 148.419 272, 148.474 271.191, 151.218 268.811 C 153.055 267.218, 153.189 266.735, 151.997 265.998 C 151.205 265.509, 150.907 264.760, 151.333 264.333 C 151.760 263.907, 152.569 264.220, 153.131 265.029 C 153.904 266.142, 154.276 266.196, 154.659 265.250 C 154.938 264.563, 155.836 264, 156.655 264 C 158.560 264, 160.545 262.010, 161.434 259.209 C 161.817 258.001, 162.809 256.334, 163.637 255.506 C 164.978 254.165, 164.916 254, 163.071 254 C 161.932 254, 161 253.550, 161 253 C 161 252.450, 161.450 252, 162 252 C 162.550 252, 163 251.100, 163 250 C 163 248.852, 163.667 248, 164.566 248 C 166.451 248, 170.183 249.877, 171.326 251.400 C 172.254 252.635, 172.105 252.094, 170.044 246.750 C 168.798 243.518, 168.177 243.011, 165.549 243.079 C 163.872 243.122, 163.063 243.385, 163.750 243.662 C 165.710 244.453, 165.213 246, 163 246 C 161.444 246, 161 246.667, 161 249 C 161 250.650, 160.550 252, 160 252 C 159.450 252, 159 250.650, 159 249 C 159 247.350, 159.450 246, 160 246 C 160.550 246, 161 245.325, 161 244.500 C 161 241.675, 159.217 242.999, 157.609 247.020 M 185.014 254.250 C 185.021 260.438, 185.294 266.496, 185.621 267.714 C 186.170 269.763, 186.337 269.806, 187.848 268.295 C 189.044 267.099, 189.149 266.550, 188.241 266.247 C 186.697 265.732, 186.462 248, 188 248 C 188.550 248, 189 246.875, 189 245.500 C 189 243.667, 188.467 243, 187 243 C 185.118 243, 185.001 243.662, 185.014 254.250 M 190.710 245.002 C 190.389 246.227, 190.830 247.415, 191.843 248.060 C 193.050 248.829, 193.160 249.259, 192.250 249.641 C 191.399 249.999, 191 252.697, 191 258.083 C 191 264.454, 191.293 266, 192.500 266 C 193.746 266, 194 264.056, 194 254.500 C 194 245.375, 193.714 243, 192.617 243 C 191.856 243, 190.998 243.901, 190.710 245.002 M 204.852 244.750 C 204.771 245.713, 204.641 247.175, 204.563 248 C 204.486 248.825, 204.053 254.127, 203.601 259.782 C 202.827 269.466, 202.662 270.028, 200.765 269.425 C 199.580 269.049, 198.995 269.182, 199.345 269.748 C 199.690 270.308, 198.905 270.513, 197.470 270.239 C 195.473 269.857, 195 270.172, 195 271.883 C 195 273.048, 194.550 274, 194 274 C 193.450 274, 193 272.650, 193 271 C 193 268.667, 192.556 268, 191 268 C 188.137 268, 188.498 270.836, 191.713 273.598 C 193.702 275.308, 194.635 275.606, 195.213 274.715 C 195.810 273.793, 196.228 273.854, 196.944 274.968 C 197.744 276.213, 198.161 276.124, 199.694 274.375 C 201.473 272.345, 205 271.542, 205 273.167 C 205 273.625, 204.475 274, 203.833 274 C 203.192 274, 202.904 274.238, 203.195 274.528 C 203.485 274.818, 204.932 274.596, 206.410 274.034 C 210.653 272.421, 212 267.723, 212 254.532 L 212 243 208.500 243 C 205.890 243, 204.962 243.445, 204.852 244.750 M 218 244.500 C 218 245.325, 218.675 246, 219.500 246 C 220.325 246, 221 246.450, 221 247 C 221 247.550, 221.900 248, 223 248 C 224.467 248, 225 247.333, 225 245.500 C 225 243.310, 224.567 243, 221.500 243 C 219.056 243, 218 243.452, 218 244.500 M 229 244.615 C 229 246.341, 230.676 246.440, 231.280 244.750 C 231.525 244.063, 232.066 243.816, 232.482 244.202 C 233.733 245.365, 230.326 248, 227.571 248 C 226.157 248, 225 248.450, 225 249 C 225 249.550, 224.100 250, 223 250 C 221.900 250, 221 249.550, 221 249 C 221 248.450, 220.325 248, 219.500 248 C 218.446 248, 218.041 248.967, 218.136 251.250 C 218.235 253.600, 218.392 253.877, 218.706 252.250 C 219.340 248.959, 221 249.502, 221 253 C 221 255, 220.500 256, 219.500 256 C 218.675 256, 218 256.450, 218 257 C 218 257.550, 218.675 258, 219.500 258 C 220.325 258, 221 258.450, 221 259 C 221 259.550, 220.325 260, 219.500 260 C 218.675 260, 218 260.450, 218 261 C 218 261.550, 218.675 262, 219.500 262 C 221.131 262, 221.569 263.626, 220.084 264.167 C 219.580 264.350, 218.871 266.300, 218.509 268.500 C 218.028 271.422, 218.132 272.096, 218.895 271 C 219.744 269.781, 220.055 270.070, 220.554 272.544 C 221.413 276.803, 225 277.121, 225 272.938 C 225 271.322, 225.450 270, 226 270 C 226.550 270, 227 269.293, 227 268.429 C 227 266.068, 229.535 264, 232.429 264 C 235.052 264, 235.825 265.775, 233.996 267.604 C 232.799 268.801, 234.716 271.731, 237 272.195 C 237.825 272.363, 239.294 273.364, 240.265 274.420 C 242.004 276.312, 242.051 276.312, 243.430 274.427 C 244.357 273.158, 244.478 272.295, 243.787 271.868 C 243.213 271.514, 243.034 270.754, 243.388 270.181 C 244.433 268.491, 242.248 267.828, 240.086 269.178 C 237.180 270.993, 236.289 269.351, 238.935 267.056 L 241.191 265.100 238.707 262.616 C 235.584 259.493, 229 257.982, 229 260.389 C 229 261.512, 228.092 262, 226 262 C 223.167 262, 223 261.778, 223 258 C 223 254.667, 223.333 254, 225 254 C 226.333 254, 227 253.333, 227 252 C 227 250.667, 227.667 250, 229 250 C 230.100 250, 231 249.550, 231 249 C 231 248.450, 231.450 248, 232 248 C 232.550 248, 233 248.723, 233 249.607 C 233 250.662, 233.544 251.005, 234.582 250.607 C 235.452 250.273, 236.352 250, 236.582 250 C 236.812 250, 237 249.100, 237 248 C 237 246.900, 236.550 246, 236 246 C 235.450 246, 235 245.550, 235 245 C 235 243.450, 237.963 243.820, 239.734 245.591 C 240.878 246.735, 241 247.382, 240.168 247.896 C 239.533 248.289, 238.618 250.723, 238.135 253.305 C 237.379 257.356, 237.485 258, 238.908 258 C 239.816 258, 241.198 258.888, 241.980 259.973 C 243.300 261.804, 243.532 261.828, 245.201 260.318 C 246.191 259.423, 247 258.085, 247 257.345 C 247 255.654, 243.312 255.564, 242.753 257.241 C 242.452 258.144, 241.884 258.027, 240.670 256.813 C 238.378 254.521, 238.551 252, 241 252 C 242.100 252, 243 252.450, 243 253 C 243 253.550, 243.900 254, 245 254 C 247.602 254, 247.812 249.249, 245.253 248.267 C 244.292 247.898, 242.523 246.614, 241.323 245.413 C 239.653 243.744, 237.948 243.231, 234.070 243.231 C 230.418 243.231, 229 243.618, 229 244.615 M 261.642 246.314 C 260.777 248.384, 260.445 251.573, 260.756 254.814 C 261.090 258.290, 260.883 260, 260.127 260 C 259.507 260, 259 260.863, 259 261.917 C 259 262.971, 258.438 264.034, 257.750 264.280 C 257.023 264.539, 256.871 265.097, 257.387 265.613 C 257.903 266.129, 258.461 265.977, 258.720 265.250 C 259.425 263.276, 261 263.794, 261 266 C 261 267.556, 260.333 268, 258 268 C 255.405 268, 254.994 267.629, 254.953 265.250 C 254.915 263.004, 254.486 263.509, 252.611 268 C 250.207 273.760, 250.226 276, 252.678 276 C 254.890 276, 257.075 273.359, 256.374 271.532 C 255.825 270.100, 256.976 269.934, 266.479 270.073 L 277.204 270.230 276.595 273.277 L 275.985 276.323 278.127 273.911 C 279.558 272.301, 280.418 271.915, 280.718 272.750 C 281.563 275.104, 283 274.002, 283 271 C 283 269.350, 282.578 268, 282.062 268 C 281.546 268, 281.178 267.212, 281.244 266.250 C 281.398 264.013, 276.090 251.858, 274.313 250.377 C 273.572 249.759, 273.246 248.522, 273.590 247.627 C 273.998 246.563, 273.687 246, 272.690 246 C 271.852 246, 270.981 246.558, 270.753 247.241 C 270.277 248.670, 267 245.903, 267 244.071 C 267 243.482, 266.106 243, 265.013 243 C 263.710 243, 262.551 244.139, 261.642 246.314 M 309 248.667 C 309 251.600, 309.450 254, 310 254 C 310.550 254, 311 255.350, 311 257 C 311 258.650, 310.550 260, 310 260 C 309.450 260, 309 259.550, 309 259 C 309 258.450, 308.145 258, 307.101 258 C 305.567 258, 305.132 258.874, 304.840 262.541 C 304.520 266.570, 304.734 267.146, 306.740 267.649 C 307.983 267.962, 309 268.873, 309 269.676 C 309 270.714, 309.621 270.938, 311.151 270.452 C 312.839 269.916, 313.173 270.106, 312.702 271.334 C 312.299 272.384, 312.549 272.727, 313.463 272.376 C 314.226 272.083, 315.066 272.655, 315.374 273.677 C 315.675 274.679, 315.694 273.813, 315.416 271.750 C 315.137 269.688, 315.314 268, 315.808 268 C 316.686 268, 316.654 266.433, 315.449 250.917 L 314.861 243.333 311.930 243.333 C 309.056 243.333, 309 243.436, 309 248.667 M 133.014 246.750 C 133.042 252.442, 134.008 254, 137.510 254 C 141.413 254, 142.950 251.440, 140.267 249.405 C 139.295 248.667, 138.114 248.049, 137.643 248.032 C 137.172 248.014, 137.036 247.348, 137.342 246.551 C 137.714 245.582, 137.418 245.286, 136.449 245.658 C 135.652 245.964, 135 245.716, 135 245.107 C 135 244.498, 134.550 244, 134 244 C 133.450 244, 133.006 245.238, 133.014 246.750 M 288 249.847 C 288 254.650, 288.329 256, 289.500 256 C 290.583 256, 291 257.111, 291 260 C 291 263.010, 290.602 264, 289.391 264 C 288.115 264, 287.877 264.779, 288.243 267.750 C 288.497 269.813, 288.333 272.512, 287.877 273.750 C 287.422 274.988, 287.323 276, 287.657 276 C 287.992 276, 289.161 274.988, 290.255 273.750 L 292.245 271.500 291.555 273.750 C 291.138 275.109, 291.288 276, 291.933 276 C 292.520 276, 293 275.100, 293 274 C 293 271.537, 294.686 271.354, 295.307 273.750 C 295.556 274.712, 295.647 273.571, 295.510 271.213 C 295.194 265.820, 294.497 265.121, 292.139 267.840 C 289.917 270.401, 289 270.573, 289 268.429 C 289 266.263, 291.459 264, 293.812 264 C 294.994 264, 296.005 263.110, 296.370 261.750 C 297.308 258.248, 297.105 254, 296 254 C 295.450 254, 295 254.900, 295 256 C 295 257.100, 294.550 258, 294 258 C 293.450 258, 293 257.100, 293 256 C 293 254.900, 293.398 254, 293.883 254 C 294.369 254, 294.982 252.875, 295.245 251.500 C 295.808 248.556, 295.662 248.481, 293.524 250.619 C 292.633 251.510, 291.648 251.981, 291.333 251.667 C 291.019 251.352, 291.490 250.367, 292.381 249.476 C 294.213 247.644, 294.530 246.554, 292.947 247.533 C 292.368 247.891, 291.018 247.173, 289.947 245.939 L 288 243.694 288 249.847 M 135 250 C 135 251.333, 135.667 252, 137 252 C 139.369 252, 139.509 251.366, 137.571 249.429 C 135.634 247.491, 135 247.631, 135 250 M 207 257.917 C 207 264.923, 206.636 267.955, 205.759 268.247 C 204.873 268.542, 205.030 269.172, 206.307 270.449 C 207.290 271.433, 208.398 271.935, 208.769 271.565 C 209.139 271.194, 208.795 270.491, 208.003 270.002 C 206.811 269.265, 206.945 268.782, 208.782 267.189 C 212.623 263.858, 211.622 248, 207.571 248 C 207.257 248, 207 252.463, 207 257.917 M 263 249 C 263 249.550, 263.900 250, 265 250 C 268.630 250, 267.218 257.278, 262.843 261.117 C 261.829 262.007, 261 262.978, 261 263.275 C 261 263.572, 264.150 263.767, 268 263.708 C 271.850 263.648, 275 263.450, 275 263.267 C 275 263.083, 273.425 261.358, 271.500 259.433 C 267.731 255.665, 267.119 254, 269.500 254 C 270.333 254, 271 253.111, 271 252 C 271 250.667, 270.333 250, 269 250 C 267.900 250, 267 249.550, 267 249 C 267 248.450, 266.100 248, 265 248 C 263.900 248, 263 248.450, 263 249 M 297 251.777 C 297 253.588, 298.767 256, 300.093 256 C 302.046 256, 301.601 252.968, 299.440 251.552 C 297.161 250.059, 297 250.074, 297 251.777 M 263 254 C 263 255.100, 263.450 256, 264 256 C 264.550 256, 265 255.100, 265 254 C 265 252.900, 264.550 252, 264 252 C 263.450 252, 263 252.900, 263 254 M 272.250 253.496 C 270.349 255.655, 270.740 258, 273 258 C 274.100 258, 275 258.450, 275 259 C 275 259.550, 275.450 260, 276 260 C 276.550 260, 277 259.100, 277 258 C 277 256.900, 276.550 256, 276 256 C 275.450 256, 275 255.100, 275 254 C 275 251.672, 274.015 251.491, 272.250 253.496 M 256.766 258.339 C 254.920 262.237, 255.204 262.939, 257.641 260.502 C 258.465 259.678, 258.996 258.030, 258.820 256.841 C 258.547 254.998, 258.244 255.219, 256.766 258.339 M 301.690 256.452 C 300.892 257.251, 299.960 257.626, 299.619 257.286 C 299.279 256.945, 299 257.417, 299 258.333 C 299 259.250, 299.450 260, 300 260 C 300.550 260, 301 261.125, 301 262.500 C 301 263.875, 301.457 265, 302.016 265 C 302.575 265, 302.923 263.571, 302.790 261.825 C 302.652 260.015, 303.075 258.475, 303.774 258.242 C 305.197 257.768, 305.451 255, 304.071 255 C 303.561 255, 302.489 255.654, 301.690 256.452 M 126.149 257.604 C 124.327 259.665, 125.500 260.643, 127.452 258.690 C 128.304 257.839, 129 256.886, 129 256.571 C 129 255.521, 127.515 256.059, 126.149 257.604 M 131 262 C 131 263.333, 131.667 264, 133 264 C 135.285 264, 135.404 264.377, 133.965 267.066 C 132.602 269.613, 126.517 269.746, 125.125 267.260 C 124.234 265.667, 123.964 265.731, 121.941 268.010 C 120.475 269.662, 119.580 270.079, 119.282 269.250 C 119.035 268.563, 118.405 268, 117.881 268 C 117.319 268, 117.367 268.817, 118 270 C 119.070 271.999, 123 272.834, 123 271.062 C 123 270.546, 123.895 270.192, 124.988 270.274 C 126.298 270.373, 126.639 270.761, 125.988 271.412 C 124.234 273.166, 124.859 276, 127 276 C 129.197 276, 129.733 274.411, 127.759 273.753 C 126.856 273.452, 126.973 272.884, 128.188 271.670 C 129.995 269.862, 135 269.370, 135 271 C 135 271.550, 134.100 272, 133 272 C 131.667 272, 131 272.667, 131 274 C 131 275.100, 131.450 276, 132 276 C 132.550 276, 133 275.520, 133 274.933 C 133 274.320, 133.853 274.136, 135 274.500 C 136.456 274.962, 137 274.680, 137 273.460 C 137 272.383, 137.535 271.991, 138.500 272.362 C 140.727 273.216, 140.327 272.208, 137.343 269.442 C 135.882 268.088, 134.971 266.696, 135.318 266.348 C 135.666 266.001, 136.823 266.793, 137.889 268.108 C 140.124 270.865, 141.248 270.240, 141.494 266.102 C 141.623 263.930, 141.299 263.332, 140.218 263.747 C 139.091 264.179, 138.933 263.770, 139.507 261.901 L 140.245 259.500 138.280 261.721 C 136.322 263.935, 136.308 263.936, 134.199 261.971 C 131.540 259.494, 131 259.499, 131 262 M 276.820 264.250 C 276.553 266.126, 275.935 266.468, 273.096 266.309 C 271.223 266.205, 269.335 265.543, 268.900 264.838 C 268.465 264.134, 267.806 263.861, 267.435 264.231 C 266.198 265.468, 269.458 267.569, 273 267.818 C 274.925 267.953, 276.650 268.499, 276.833 269.032 C 277.274 270.313, 281 270.285, 281 269 C 281 268.450, 280.550 268, 280 268 C 279.450 268, 279 266.650, 279 265 C 279 261.515, 277.291 260.928, 276.820 264.250 M 308.195 263.555 C 307.117 264.776, 307.148 265.291, 308.374 266.517 C 310.039 268.182, 315 268.544, 315 267 C 315 266.450, 314.100 266, 313 266 C 311.667 266, 311 265.333, 311 264 C 311 261.651, 310.014 261.494, 308.195 263.555 M 175 265 C 175 265.550, 175.450 266, 176 266 C 176.550 266, 177 266.900, 177 268 C 177 269.100, 176.550 270, 176 270 C 175.450 270, 175 270.900, 175 272 C 175 273.145, 174.333 274, 173.441 274 C 172.584 274, 172.160 274.450, 172.500 275 C 172.840 275.550, 173.991 276, 175.059 276 C 176.549 276, 177 275.303, 177 273 C 177 271.350, 177.450 270, 178 270 C 178.550 270, 179 270.707, 179 271.571 C 179 272.436, 179.762 273.898, 180.694 274.821 C 182.613 276.723, 182.583 276.592, 179.215 268.254 C 177.684 264.464, 175 262.392, 175 265 M 251.500 273 C 251.160 273.550, 251.809 274, 252.941 274 C 254.073 274, 255 273.550, 255 273 C 255 272.450, 254.352 272, 253.559 272 C 252.766 272, 251.840 272.450, 251.500 273" stroke="none" fill="#f2a522" fill-rule="evenodd"/><path d="M 222.736 36.706 C 210.766 43.636, 201.102 49.435, 201.260 49.593 C 201.418 49.751, 204.237 48.926, 207.524 47.758 C 215.773 44.828, 236.797 44.595, 245 47.342 C 255.340 50.805, 266.569 59.073, 274.414 69 L 277.180 72.500 274.653 68 C 273.264 65.525, 267.030 54.725, 260.801 44 C 251.167 27.414, 249.103 24.471, 246.987 24.303 C 245.377 24.176, 236.826 28.549, 222.736 36.706 M 139.102 75.665 C 131.169 89.288, 126.023 99.161, 126.202 100.415 C 126.423 101.959, 131.944 105.686, 147.500 114.789 C 159.050 121.548, 169.850 127.769, 171.500 128.613 C 174.311 130.051, 174.280 129.974, 171 127.392 C 160.818 119.375, 152.425 107.366, 148.859 95.711 C 145.978 86.295, 146.544 70.682, 150.145 60.250 C 151.521 56.263, 152.569 53, 152.474 53 C 152.378 53, 146.361 63.199, 139.102 75.665 M 205.500 85.662 C 201.620 86.705, 199 90.127, 199 94.151 C 199 98.571, 201.350 100.617, 208.190 102.154 C 214.783 103.635, 216.348 105.509, 213.429 108.429 C 211.294 110.563, 207.214 110.403, 202.500 108 C 200.342 106.900, 198.447 106, 198.289 106 C 198.130 106, 198 107.329, 198 108.953 C 198 111.514, 198.498 112.044, 201.750 112.947 C 212.247 115.862, 221 112.130, 221 104.740 C 221 101.292, 217.313 98.351, 211 96.766 C 206.634 95.669, 205.434 94.932, 205.181 93.194 C 204.585 89.111, 210.525 88.340, 218.250 91.499 C 219.646 92.069, 220 91.699, 220 89.666 C 220 88.265, 219.611 86.878, 219.135 86.584 C 217.779 85.745, 207.719 85.065, 205.500 85.662 M 172 99.500 L 172 113 175 113 C 177.929 113, 178 112.882, 178 108.059 C 178 105.341, 178.418 102.860, 178.929 102.544 C 179.440 102.228, 181.797 104.451, 184.166 107.485 C 186.535 110.518, 188.930 113.033, 189.487 113.074 C 190.044 113.115, 191.490 113.334, 192.700 113.560 C 196.489 114.270, 196.009 112.658, 190.442 105.976 C 187.474 102.414, 185.036 99.113, 185.023 98.640 C 185.010 98.167, 187.324 95.242, 190.165 92.140 L 195.331 86.500 192.072 86.180 C 188.732 85.851, 188.482 86.060, 179.783 96.450 C 178.125 98.430, 178.065 98.288, 178.033 92.250 L 178 86 175 86 L 172 86 172 99.500 M 225.162 97.084 L 225.500 108.168 228.766 111.084 C 231.355 113.396, 232.970 114, 236.565 114 C 242.122 114, 246.221 112.004, 247.805 108.528 C 248.476 107.056, 249 101.540, 249 95.953 L 249 86 246 86 L 243 86 243 96 C 243 104.805, 242.751 106.249, 240.913 108.087 C 238.786 110.214, 234.788 110.116, 232.500 107.882 C 231.950 107.344, 231.347 102.201, 231.159 96.452 L 230.818 86 227.820 86 L 224.823 86 225.162 97.084 M 254.232 120.698 C 253.833 126.196, 249.228 139.238, 245.474 145.500 C 236.475 160.514, 220.993 170.655, 203.619 172.917 C 200.428 173.332, 208.236 173.842, 224.355 174.270 C 251.507 174.992, 253.533 174.754, 254.519 170.721 C 254.818 169.500, 254.928 157.025, 254.763 143 C 254.599 128.975, 254.360 118.939, 254.232 120.698 M 197.500 196.890 C 177.851 205.958, 188.097 234.015, 209.208 228.950 C 225.060 225.147, 227.540 204.580, 213.030 197.250 C 207.650 194.532, 202.850 194.421, 197.500 196.890 M 341.791 195.933 C 334.348 198.329, 330 204.421, 330 212.451 C 330 217.956, 331.794 221.807, 336.010 225.355 C 347.281 234.839, 365 227.137, 365 212.753 C 365 206.345, 362.606 201.430, 358.002 198.382 C 353.947 195.699, 346.167 194.524, 341.791 195.933 M 28 212.500 L 28 229 32.500 229 L 37 229 37 224.655 C 37 221.647, 37.588 219.778, 38.912 218.580 C 40.755 216.912, 40.971 217.067, 44.949 222.925 C 48.420 228.035, 49.539 229, 52.002 229 C 53.904 229, 55.304 228.301, 55.998 227.004 C 56.892 225.333, 56.236 223.778, 51.971 217.457 L 46.876 209.907 53.041 202.954 L 59.206 196 53.702 196 L 48.198 196 42.849 202.601 L 37.500 209.203 37.204 202.601 L 36.909 196 32.454 196 L 28 196 28 212.500 M 65.961 210.750 C 62.534 218.863, 59.326 226.287, 58.830 227.250 C 58.032 228.801, 58.487 229, 62.843 229 C 67.361 229, 67.858 228.758, 69 226 C 70.200 223.104, 70.467 223, 76.708 223 C 82.974 223, 83.209 223.093, 84.306 226 C 85.351 228.767, 85.816 229, 90.303 229 C 92.978 229, 95.017 228.590, 94.833 228.089 C 94.650 227.588, 91.575 220.168, 88 211.600 L 81.500 196.021 76.845 196.011 L 72.191 196 65.961 210.750 M 97 199.960 L 97 203.919 105.003 204.210 L 113.006 204.500 104.616 213.818 C 96.558 222.767, 96.269 223.253, 97.332 226.068 L 98.438 229 110.706 229 L 122.973 229 124.487 225.378 C 125.319 223.386, 126 221.604, 126 221.418 C 126 221.233, 122.421 220.950, 118.047 220.790 L 110.095 220.500 118.047 211.310 C 124.249 204.143, 126 201.445, 126 199.060 L 126 196 111.500 196 L 97 196 97 199.960 M 133.292 210.750 C 129.880 218.863, 126.795 226.287, 126.437 227.250 C 125.875 228.761, 126.428 229, 130.480 229 C 134.777 229, 135.269 228.746, 136.306 226 C 137.409 223.079, 137.614 223, 144.121 223 C 150.648 223, 150.829 223.070, 151.850 226 C 152.806 228.741, 153.289 229, 157.448 229 C 159.952 229, 162.010 228.662, 162.022 228.250 C 162.034 227.838, 159.040 220.412, 155.368 211.750 L 148.692 196 144.095 196 L 139.497 196 133.292 210.750 M 157 200 L 157 204 162 204 L 167 204 167 216.500 L 167 229 171.500 229 L 176 229 176 216.500 L 176 204 181 204 L 186 204 186 200 L 186 196 171.500 196 L 157 196 157 200 M 226 212.557 L 226 229.115 230.250 228.807 L 234.500 228.500 235 219.668 L 235.500 210.835 238.460 215.918 C 242.285 222.486, 244.121 222.454, 248.259 215.750 L 251.500 210.500 251.788 219.750 L 252.075 229 256.538 229 L 261 229 261 212.500 L 261 196 256.072 196 L 251.145 196 247.500 202 C 245.495 205.300, 243.690 208, 243.489 208 C 243.287 208, 241.456 205.300, 239.419 202 L 235.716 196 230.858 196 L 226 196 226 212.557 M 266 212.500 L 266 229 270.445 229 L 274.890 229 275.195 224.250 L 275.500 219.500 281.935 218.885 C 287.503 218.353, 288.748 217.846, 291.185 215.119 C 293.338 212.709, 294 210.967, 294 207.707 C 294 198.999, 289.273 196, 275.550 196 L 266 196 266 212.500 M 297 212.555 L 297 229.110 301.750 228.805 C 306.256 228.516, 306.507 228.346, 306.643 225.500 C 306.721 223.850, 306.834 221.713, 306.893 220.750 C 307.107 217.254, 310.736 218.914, 314 224 C 317.196 228.980, 317.230 229, 322.573 229 L 327.938 229 324.034 223.428 L 320.131 217.855 323.100 215.178 C 328.587 210.230, 327.934 201.759, 321.775 198.004 C 319.039 196.336, 316.730 196.007, 307.750 196.004 L 297 196 297 212.555 M 369 212.555 L 369 229.110 373.750 228.805 L 378.500 228.500 379 219.740 L 379.500 210.980 382.308 215.990 C 385.939 222.470, 387.778 222.425, 392.101 215.750 L 395.500 210.500 395.788 219.750 L 396.075 229 400.038 229 L 404 229 404 212.500 L 404 196 399.457 196 C 394.984 196, 394.856 196.093, 391.207 201.989 C 389.168 205.283, 387.275 207.976, 387 207.974 C 386.725 207.972, 384.925 205.284, 383 202 L 379.500 196.030 374.250 196.015 L 369 196 369 212.555 M 201.302 204.012 C 198.267 205.234, 195.725 210.473, 196.486 213.938 C 197.467 218.403, 200.548 221, 204.865 221 C 209.970 221, 213.011 217.786, 212.968 212.436 C 212.934 208.156, 211.702 205.967, 208.316 204.163 C 205.786 202.816, 204.349 202.785, 201.302 204.012 M 275.667 203.667 C 275.300 204.033, 275 206.058, 275 208.167 C 275 211.939, 275.061 212, 278.800 212 C 283.158 212, 285 210.596, 285 207.275 C 285 205.700, 284.173 204.636, 282.435 203.975 C 279.458 202.843, 276.619 202.714, 275.667 203.667 M 344.357 203.970 C 337.054 206.991, 337.352 218.184, 344.805 220.782 C 348.253 221.984, 353.304 220.169, 354.921 217.147 C 358.767 209.961, 351.572 200.986, 344.357 203.970 M 306.864 204.469 C 306.606 204.728, 306.580 206.528, 306.807 208.469 C 307.198 211.822, 307.411 212, 311.038 212 C 316.572 212, 319.796 208.196, 316.800 205.200 C 315.656 204.056, 307.851 203.483, 306.864 204.469 M 75.200 209.750 C 74.653 211.262, 73.885 213.287, 73.495 214.250 C 72.898 215.724, 73.354 216, 76.393 216 C 78.377 216, 80 215.605, 80 215.122 C 80 213.949, 77.078 207, 76.584 207 C 76.371 207, 75.748 208.238, 75.200 209.750 M 142.235 211 C 140.346 215.359, 140.343 215.510, 142.142 215.820 C 143.164 215.995, 144.851 215.995, 145.890 215.820 C 147.729 215.509, 147.732 215.377, 145.983 211 L 144.186 206.500 142.235 211" stroke="none" fill="#243f68" fill-rule="evenodd"/></svg>