<svg xmlns="http://www.w3.org/2000/svg" width="169" height="62" viewBox="0 0 169 62" version="1.1"><path d="M 15.504 4.250 C 16.944 6.588, 18.617 9.512, 19.222 10.750 C 20.385 13.130, 22 13.776, 22 11.861 C 22 11.234, 23.350 8.527, 25 5.846 C 26.650 3.164, 28 0.752, 28 0.485 C 28 0.218, 24.599 0, 20.443 0 L 12.887 0 15.504 4.250 M 131.280 49.963 C 131.563 51.043, 131.165 52.448, 130.397 53.086 C 127.065 55.851, 129.895 62, 134.500 62 C 139.105 62, 141.935 55.851, 138.603 53.086 C 137.835 52.448, 137.437 51.043, 137.720 49.963 C 138.162 48.271, 137.718 48, 134.500 48 C 131.282 48, 130.838 48.271, 131.280 49.963 M 0 56.500 C 0 60.722, 0.348 62, 1.500 62 C 2.325 62, 3.014 61.212, 3.030 60.250 C 3.059 58.583, 3.109 58.583, 4.080 60.250 C 4.641 61.212, 6.008 62, 7.118 62 C 9.131 62, 9.131 61.993, 7.164 59.230 C 5.434 56.801, 5.364 56.223, 6.595 54.539 C 7.368 53.482, 8 52.254, 8 51.809 C 8 50.367, 5.757 50.953, 4.392 52.750 C 3.127 54.417, 3.062 54.417, 3.032 52.750 C 3.014 51.788, 2.325 51, 1.500 51 C 0.348 51, 0 52.278, 0 56.500 M 19.566 52.328 C 17.477 53.856, 17.168 58.293, 18.997 60.497 C 20.714 62.565, 25.342 62.384, 27.345 60.171 C 32.002 55.025, 25.224 48.191, 19.566 52.328 M 39 56.500 C 39 60.597, 39.364 62, 40.427 62 C 41.211 62, 42.059 61.212, 42.311 60.250 C 42.746 58.583, 42.774 58.583, 42.884 60.250 C 43.053 62.796, 45.785 62.396, 46.294 59.750 L 46.728 57.500 46.864 59.750 C 46.941 61.023, 47.651 62, 48.500 62 C 49.652 62, 50 60.722, 50 56.500 C 50 51.693, 49.752 51, 48.029 51 C 46.649 51, 45.796 51.976, 45.189 54.250 L 44.320 57.500 43.581 54.250 C 43.061 51.968, 42.269 51, 40.921 51 C 39.259 51, 39 51.743, 39 56.500 M 60 56.500 C 60 60.722, 60.348 62, 61.500 62 C 62.325 62, 63 61.325, 63 60.500 C 63 59.675, 63.643 59, 64.429 59 C 65.992 59, 69 56.368, 69 55 C 69 53.163, 65.716 51, 62.929 51 C 60.045 51, 60 51.085, 60 56.500 M 78 56.437 C 78 60.715, 78.346 62, 79.500 62 C 80.325 62, 81 61.546, 81 60.992 C 81 60.386, 81.781 60.471, 82.955 61.204 C 85.172 62.589, 86.948 61.548, 85.255 59.855 C 84.439 59.039, 84.455 58.244, 85.314 56.868 C 86.983 54.197, 85.062 51.576, 81.149 51.187 L 78 50.873 78 56.437 M 96 56.500 C 96 61.920, 96.043 62, 98.941 62 C 102.708 62, 103.816 60.259, 100.814 59.055 C 99.084 58.361, 98.942 58.111, 100.250 58.063 C 101.213 58.029, 102 57.325, 102 56.500 C 102 55.675, 101.213 54.971, 100.250 54.937 C 98.942 54.889, 99.084 54.639, 100.814 53.945 C 103.816 52.741, 102.708 51, 98.941 51 C 96.043 51, 96 51.080, 96 56.500 M 113.250 51.644 C 111.703 52.291, 111.606 55.638, 113.107 56.566 C 113.892 57.051, 113.849 57.475, 112.961 58.024 C 111.007 59.232, 112.668 62, 115.346 62 C 120.208 62, 121.107 57.402, 116.692 55.122 C 114.516 53.998, 114.517 53.994, 116.842 54.591 C 118.737 55.078, 119.117 54.840, 118.832 53.347 C 118.482 51.511, 115.640 50.644, 113.250 51.644 M 150 56.437 C 150 60.715, 150.346 62, 151.500 62 C 152.325 62, 153 61.546, 153 60.992 C 153 60.386, 153.781 60.471, 154.955 61.204 C 157.172 62.589, 158.948 61.548, 157.255 59.855 C 156.439 59.039, 156.455 58.244, 157.314 56.868 C 158.983 54.197, 157.062 51.576, 153.149 51.187 L 150 50.873 150 56.437 M 21.380 55.452 C 20.676 57.286, 21.700 59, 23.500 59 C 25.339 59, 26.147 57.547, 25.396 55.590 C 24.633 53.601, 22.123 53.515, 21.380 55.452 M 63 55 C 63 55.550, 63.450 56, 64 56 C 64.550 56, 65 55.550, 65 55 C 65 54.450, 64.550 54, 64 54 C 63.450 54, 63 54.450, 63 55 M 81 55 C 81 55.550, 81.450 56, 82 56 C 82.550 56, 83 55.550, 83 55 C 83 54.450, 82.550 54, 82 54 C 81.450 54, 81 54.450, 81 55 M 132.364 55.493 C 132.018 56.396, 132.214 57.614, 132.800 58.200 C 134.324 59.724, 137.210 58.331, 136.812 56.265 C 136.369 53.963, 133.165 53.407, 132.364 55.493 M 153 55 C 153 55.550, 153.450 56, 154 56 C 154.550 56, 155 55.550, 155 55 C 155 54.450, 154.550 54, 154 54 C 153.450 54, 153 54.450, 153 55" stroke="none" fill="#b51313" fill-rule="evenodd"/><path d="M 91.571 1.435 C 81.917 5.004, 75.929 15.909, 78.090 25.986 C 79.314 31.692, 84.311 37.971, 89.642 40.500 C 94.179 42.653, 102.694 42.727, 106.714 40.648 C 110.319 38.784, 117 31.541, 117 29.497 C 117 27.365, 106.318 27.402, 103.953 29.543 C 100.974 32.238, 95.849 32.456, 92.750 30.018 C 91.237 28.828, 90 27.450, 90 26.955 C 90 26.460, 96.412 25.930, 104.250 25.777 L 118.500 25.500 118.358 20.192 C 117.999 6.765, 103.886 -3.118, 91.571 1.435 M 139.021 1.116 C 137.657 1.660, 135.744 2.826, 134.771 3.708 C 133.144 5.179, 133 5.175, 133 3.655 C 133 2.316, 131.951 2, 127.500 2 L 122 2 122 21.500 L 122 41 128 41 L 134 41 134 28.500 C 134 17.333, 134.213 15.787, 136 14 C 138.496 11.504, 142.173 11.429, 144.345 13.829 C 145.702 15.328, 146 17.941, 146 28.329 L 146 41 152 41 L 158 41 158 25.404 C 158 7.494, 157.289 5.287, 150.456 1.979 C 146.003 -0.177, 142.856 -0.414, 139.021 1.116 M 161.223 2.557 C 158.774 4.272, 158.211 8.811, 160.200 10.800 C 160.860 11.460, 162.570 12, 164 12 C 167.346 12, 169 10.298, 169 6.857 C 169 4.481, 166.028 1, 164 1 C 163.695 1, 162.445 1.701, 161.223 2.557 M 7.818 4.999 C -1.393 12.591, -2.600 27.366, 5.298 35.834 C 10.693 41.618, 20.898 43.839, 29.317 41.060 C 34.366 39.394, 40.532 32.120, 41.967 26.136 C 43.941 17.908, 40.248 8.441, 33.270 3.840 C 29.283 1.210, 28.492 1.484, 25.543 6.518 L 22.895 11.035 26.448 14.386 C 30.653 18.352, 31.228 23.169, 27.988 27.288 C 21.315 35.771, 8.478 26.711, 13.476 17.046 C 14.408 15.243, 16.033 13.543, 17.086 13.267 C 18.139 12.992, 19 12.594, 19 12.384 C 19 11.067, 13.314 2.026, 12.478 2.014 C 11.916 2.006, 9.819 3.349, 7.818 4.999 M 45.200 7.750 L 45.500 13.500 52.157 13.500 C 56.330 13.500, 58.589 13.873, 58.212 14.500 C 57.881 15.050, 54.772 19.434, 51.305 24.242 C 46.068 31.503, 45 33.663, 45 36.992 L 45 41 60 41 L 75 41 75 35 L 75 29 69 29 C 65.700 29, 63 28.792, 63 28.538 C 63 28.284, 65.700 24.217, 69 19.500 C 74.156 12.131, 75 10.296, 75 6.462 L 75 2 59.950 2 L 44.900 2 45.200 7.750 M 163.333 3.667 C 163.700 4.033, 164.300 4.033, 164.667 3.667 C 165.033 3.300, 164.733 3, 164 3 C 163.267 3, 162.967 3.300, 163.333 3.667 M 166.429 6.073 C 166.429 7.133, 166.782 8, 167.214 8 C 167.646 8, 168 7.352, 168 6.559 C 168 5.766, 167.646 4.900, 167.214 4.632 C 166.782 4.365, 166.429 5.014, 166.429 6.073 M 161.158 7 C 161.158 8.375, 161.385 8.938, 161.662 8.250 C 161.940 7.563, 161.940 6.438, 161.662 5.750 C 161.385 5.063, 161.158 5.625, 161.158 7 M 164 9 C 164 9.733, 164.300 10.033, 164.667 9.667 C 165.033 9.300, 165.033 8.700, 164.667 8.333 C 164.300 7.967, 164 8.267, 164 9 M 92.635 13.073 C 91.186 14.212, 90 15.562, 90 16.073 C 90 16.583, 93.600 17, 98 17 C 105.804 17, 106.745 16.662, 105.235 14.400 C 102.781 10.725, 96.465 10.060, 92.635 13.073" stroke="none" fill="#444c54" fill-rule="evenodd"/></svg>