<svg xmlns="http://www.w3.org/2000/svg" width="1088" height="1094" viewBox="0 0 1088 1094" version="1.1"><path d="M 195.061 491.028 C 192.070 492.104, 187.927 494.106, 185.855 495.477 C 183.783 496.849, 181.448 497.725, 180.666 497.426 C 179.569 497.004, 179.096 498.316, 178.586 503.190 C 176.705 521.196, 176.064 531.945, 176.034 546.045 L 176 561.589 180.750 565.109 C 190.369 572.236, 193.164 573.370, 206.393 575.510 C 215.641 577.006, 218.084 578.329, 220.602 583.198 C 223.820 589.420, 221.134 596.788, 214.472 600.013 C 208.876 602.723, 204.012 601.909, 199.060 597.435 L 195.424 594.150 189.462 597.076 C 179.195 602.114, 179.598 601.344, 181.569 612.159 C 183.991 625.448, 183.923 625.338, 191.673 628.590 C 197.700 631.119, 199.730 631.457, 209 631.477 C 219.020 631.499, 219.843 631.335, 227 627.903 C 234.596 624.260, 242.085 617.677, 246.049 611.161 C 253.048 599.652, 253.932 582.863, 248.186 570.585 C 241.667 556.653, 229.409 548.192, 211.992 545.603 C 203.242 544.303, 202.341 543.949, 199.287 540.616 C 196.482 537.555, 196 536.292, 196 532 C 196 527.711, 196.479 526.455, 199.250 523.466 C 201.037 521.539, 203.885 519.574, 205.577 519.101 C 209.713 517.942, 215.742 520.074, 219.197 523.915 L 221.894 526.913 234.697 520.821 C 241.739 517.470, 247.705 514.547, 247.956 514.325 C 248.207 514.103, 247.599 512.412, 246.606 510.567 C 237.422 493.514, 213.434 484.421, 195.061 491.028 M 300.893 491.374 C 285.294 496.881, 274.305 509.125, 270.508 525.231 C 269.307 530.321, 269.027 540.948, 269.015 581.750 L 269 632 284.500 632 L 300 632 300 618 L 300 604 316.500 604 L 333 604 333 618 L 333 632 348.041 632 L 363.081 632 362.791 577.696 L 362.500 523.392 358.804 515.915 C 350.400 498.915, 334.674 489.042, 316 489.042 C 309.652 489.042, 305.828 489.633, 300.893 491.374 M 423 490.876 C 415.968 493.137, 413.680 494.353, 407.253 499.245 C 400.729 504.210, 394.643 513.178, 392.009 521.705 C 390.106 527.867, 390 530.956, 390 580.105 L 390 632 404.965 632 L 419.931 632 420.215 580.572 C 420.493 530.419, 420.551 529.076, 422.562 526.384 C 426.660 520.897, 429.591 519.500, 437 519.500 C 444.758 519.500, 448.032 521.217, 451.500 527.105 C 453.418 530.361, 453.512 532.574, 453.785 581.250 L 454.070 632 469.009 632 L 483.947 632 484.224 580.572 C 484.494 530.177, 484.542 529.088, 486.592 526.322 C 487.743 524.770, 490.218 522.448, 492.092 521.162 C 494.978 519.183, 496.456 518.884, 501.739 519.209 C 508.783 519.643, 512.290 521.655, 515.500 527.105 C 517.418 530.361, 517.512 532.574, 517.785 581.250 L 518.070 632 532.535 632 L 547 632 547 579.468 C 547 529.100, 546.915 526.685, 544.943 520.832 C 540.598 507.933, 532.898 499.350, 520.183 493.234 C 513.871 490.198, 511.586 489.647, 503.542 489.227 C 492.225 488.635, 483.625 490.866, 474.479 496.767 L 468.527 500.607 463.070 496.784 C 452.395 489.306, 435.589 486.828, 423 490.876 M 596.500 490.347 C 570.157 499.064, 557.577 527.450, 569.520 551.227 C 576.684 565.490, 588.839 573.485, 606.500 575.552 C 614.773 576.521, 617.803 578.301, 620.129 583.559 C 621.761 587.249, 621.909 588.626, 621.023 591.915 C 619.776 596.545, 615.335 600.659, 610.632 601.541 C 606.550 602.307, 600.281 599.912, 597.495 596.522 L 595.490 594.082 582.995 599.661 C 576.123 602.730, 570.102 605.607, 569.616 606.054 C 568.254 607.308, 573.255 615.029, 578.774 620.192 C 596.329 636.613, 623.487 635.866, 639.900 618.512 C 655.589 601.924, 656.002 576.891, 640.858 560.462 C 632.500 551.395, 622.961 546.666, 610.437 545.383 C 602.660 544.587, 598.364 542.115, 596.342 537.276 C 591.491 525.667, 603.658 514.635, 614.900 520.448 C 616.653 521.355, 618.597 523.217, 619.221 524.587 C 619.846 525.957, 620.839 526.880, 621.428 526.638 C 624.258 525.478, 647.557 514.651, 647.956 514.310 C 648.921 513.488, 644.557 506.942, 639.817 502.102 C 636.773 498.994, 631.940 495.597, 627.293 493.300 C 620.353 489.870, 618.926 489.537, 610.112 489.291 C 604.109 489.124, 598.998 489.520, 596.500 490.347 M 719.500 489.623 C 702.864 493.814, 692.540 499.418, 682 509.982 C 669.327 522.682, 663.678 533.836, 661.012 551.418 C 657.565 574.164, 668.270 600.834, 686.758 615.556 C 700.254 626.302, 715.096 631.447, 732.500 631.413 C 764.644 631.350, 790.623 612.087, 801.164 580.500 C 803.164 574.507, 803.494 571.558, 803.456 560 C 803.417 547.919, 803.122 545.659, 800.648 538.500 C 792.955 516.233, 776.643 499.934, 754.500 492.390 C 747.763 490.095, 744.526 489.621, 734 489.392 C 727.125 489.242, 720.600 489.346, 719.500 489.623 M 851.545 491.443 C 838.382 496.188, 830.596 503.241, 824.667 515.795 L 821.500 522.500 821.210 577.250 L 820.920 632 835.933 632 L 850.947 632 851.223 581.176 L 851.500 530.352 854.161 526.332 C 860.813 516.282, 875.929 516.422, 881.734 526.588 C 883.964 530.494, 883.967 530.579, 883.984 581.286 L 884 632.072 893.750 631.786 L 903.500 631.500 906.418 618 L 909.335 604.500 909.731 558.772 L 910.127 513.045 907.105 508.652 C 902.373 501.775, 894.698 495.500, 887.268 492.435 C 881.575 490.085, 878.754 489.586, 869.500 489.289 C 859.744 488.976, 857.713 489.220, 851.545 491.443 M 307.604 521.209 C 300.519 525.376, 300 527.492, 300 552.234 L 300 574 316.553 574 L 333.106 574 332.803 551.570 C 332.471 526.989, 332.382 526.614, 325.702 521.627 C 321.537 518.517, 312.534 518.309, 307.604 521.209 M 720.500 520.402 C 709.309 523.951, 700.232 531.699, 695.187 542.008 C 687.091 558.550, 690.373 577.496, 703.481 589.894 C 726.663 611.818, 764.202 601.295, 772.527 570.538 C 778.052 550.129, 765.932 528.030, 745.327 520.940 C 738.778 518.687, 726.731 518.426, 720.500 520.402" stroke="none" fill="#f9f9f9" fill-rule="evenodd"/><path d="M 514 147.619 C 430.906 154.772, 356.556 184.381, 292.500 235.830 C 276.566 248.628, 250.350 274.437, 237.153 290.319 C 192.519 344.031, 162.735 406.999, 150.550 473.411 C 145.226 502.430, 144.500 511.326, 144.500 547.500 C 144.500 583.687, 145.226 592.566, 150.560 621.639 C 162.285 685.547, 190.408 746.462, 232.442 799 C 245.263 815.024, 270.922 841.178, 287.025 854.635 C 340.171 899.051, 403.994 929.264, 470.411 941.450 C 499.620 946.808, 508.237 947.503, 545 947.459 C 581.693 947.416, 590.032 946.740, 618.313 941.517 C 685.263 929.151, 748.744 899.122, 801.975 854.635 C 816.574 842.435, 842.962 815.837, 854.500 801.693 C 898.474 747.786, 928.162 682.856, 939.425 615.952 C 943.981 588.891, 944.500 581.886, 944.500 547.500 C 944.500 513.114, 943.981 506.109, 939.425 479.048 C 929.935 422.677, 906.658 365.961, 873.529 318.489 C 854.976 291.902, 826.199 260.527, 801.681 240.153 C 741.099 189.809, 672.377 159.959, 592.760 149.403 C 581.088 147.855, 525.801 146.603, 514 147.619 M 195.061 491.028 C 192.070 492.104, 187.927 494.106, 185.855 495.477 C 183.783 496.849, 181.448 497.725, 180.666 497.426 C 179.569 497.004, 179.096 498.316, 178.586 503.190 C 176.705 521.196, 176.064 531.945, 176.034 546.045 L 176 561.589 180.750 565.109 C 190.369 572.236, 193.164 573.370, 206.393 575.510 C 215.641 577.006, 218.084 578.329, 220.602 583.198 C 223.820 589.420, 221.134 596.788, 214.472 600.013 C 208.876 602.723, 204.012 601.909, 199.060 597.435 L 195.424 594.150 189.462 597.076 C 179.195 602.114, 179.598 601.344, 181.569 612.159 C 183.991 625.448, 183.923 625.338, 191.673 628.590 C 197.700 631.119, 199.730 631.457, 209 631.477 C 219.020 631.499, 219.843 631.335, 227 627.903 C 234.596 624.260, 242.085 617.677, 246.049 611.161 C 253.048 599.652, 253.932 582.863, 248.186 570.585 C 241.667 556.653, 229.409 548.192, 211.992 545.603 C 203.242 544.303, 202.341 543.949, 199.287 540.616 C 196.482 537.555, 196 536.292, 196 532 C 196 527.711, 196.479 526.455, 199.250 523.466 C 201.037 521.539, 203.885 519.574, 205.577 519.101 C 209.713 517.942, 215.742 520.074, 219.197 523.915 L 221.894 526.913 234.697 520.821 C 241.739 517.470, 247.705 514.547, 247.956 514.325 C 248.207 514.103, 247.599 512.412, 246.606 510.567 C 237.422 493.514, 213.434 484.421, 195.061 491.028 M 300.893 491.374 C 285.294 496.881, 274.305 509.125, 270.508 525.231 C 269.307 530.321, 269.027 540.948, 269.015 581.750 L 269 632 284.500 632 L 300 632 300 618 L 300 604 316.500 604 L 333 604 333 618 L 333 632 348.041 632 L 363.081 632 362.791 577.696 L 362.500 523.392 358.804 515.915 C 350.400 498.915, 334.674 489.042, 316 489.042 C 309.652 489.042, 305.828 489.633, 300.893 491.374 M 423 490.876 C 415.968 493.137, 413.680 494.353, 407.253 499.245 C 400.729 504.210, 394.643 513.178, 392.009 521.705 C 390.106 527.867, 390 530.956, 390 580.105 L 390 632 404.965 632 L 419.931 632 420.215 580.572 C 420.493 530.419, 420.551 529.076, 422.562 526.384 C 426.660 520.897, 429.591 519.500, 437 519.500 C 444.758 519.500, 448.032 521.217, 451.500 527.105 C 453.418 530.361, 453.512 532.574, 453.785 581.250 L 454.070 632 469.009 632 L 483.947 632 484.224 580.572 C 484.494 530.177, 484.542 529.088, 486.592 526.322 C 487.743 524.770, 490.218 522.448, 492.092 521.162 C 494.978 519.183, 496.456 518.884, 501.739 519.209 C 508.783 519.643, 512.290 521.655, 515.500 527.105 C 517.418 530.361, 517.512 532.574, 517.785 581.250 L 518.070 632 532.535 632 L 547 632 547 579.468 C 547 529.100, 546.915 526.685, 544.943 520.832 C 540.598 507.933, 532.898 499.350, 520.183 493.234 C 513.871 490.198, 511.586 489.647, 503.542 489.227 C 492.225 488.635, 483.625 490.866, 474.479 496.767 L 468.527 500.607 463.070 496.784 C 452.395 489.306, 435.589 486.828, 423 490.876 M 596.500 490.347 C 570.157 499.064, 557.577 527.450, 569.520 551.227 C 576.684 565.490, 588.839 573.485, 606.500 575.552 C 614.773 576.521, 617.803 578.301, 620.129 583.559 C 621.761 587.249, 621.909 588.626, 621.023 591.915 C 619.776 596.545, 615.335 600.659, 610.632 601.541 C 606.550 602.307, 600.281 599.912, 597.495 596.522 L 595.490 594.082 582.995 599.661 C 576.123 602.730, 570.102 605.607, 569.616 606.054 C 568.254 607.308, 573.255 615.029, 578.774 620.192 C 596.329 636.613, 623.487 635.866, 639.900 618.512 C 655.589 601.924, 656.002 576.891, 640.858 560.462 C 632.500 551.395, 622.961 546.666, 610.437 545.383 C 602.660 544.587, 598.364 542.115, 596.342 537.276 C 591.491 525.667, 603.658 514.635, 614.900 520.448 C 616.653 521.355, 618.597 523.217, 619.221 524.587 C 619.846 525.957, 620.839 526.880, 621.428 526.638 C 624.258 525.478, 647.557 514.651, 647.956 514.310 C 648.921 513.488, 644.557 506.942, 639.817 502.102 C 636.773 498.994, 631.940 495.597, 627.293 493.300 C 620.353 489.870, 618.926 489.537, 610.112 489.291 C 604.109 489.124, 598.998 489.520, 596.500 490.347 M 719.500 489.623 C 702.864 493.814, 692.540 499.418, 682 509.982 C 669.327 522.682, 663.678 533.836, 661.012 551.418 C 657.565 574.164, 668.270 600.834, 686.758 615.556 C 700.254 626.302, 715.096 631.447, 732.500 631.413 C 764.644 631.350, 790.623 612.087, 801.164 580.500 C 803.164 574.507, 803.494 571.558, 803.456 560 C 803.417 547.919, 803.122 545.659, 800.648 538.500 C 792.955 516.233, 776.643 499.934, 754.500 492.390 C 747.763 490.095, 744.526 489.621, 734 489.392 C 727.125 489.242, 720.600 489.346, 719.500 489.623 M 851.545 491.443 C 838.382 496.188, 830.596 503.241, 824.667 515.795 L 821.500 522.500 821.210 577.250 L 820.920 632 835.933 632 L 850.947 632 851.223 581.176 L 851.500 530.352 854.161 526.332 C 860.813 516.282, 875.929 516.422, 881.734 526.588 C 883.964 530.494, 883.967 530.579, 883.984 581.286 L 884 632.072 893.750 631.786 L 903.500 631.500 906.418 618 L 909.335 604.500 909.731 558.772 L 910.127 513.045 907.105 508.652 C 902.373 501.775, 894.698 495.500, 887.268 492.435 C 881.575 490.085, 878.754 489.586, 869.500 489.289 C 859.744 488.976, 857.713 489.220, 851.545 491.443 M 307.604 521.209 C 300.519 525.376, 300 527.492, 300 552.234 L 300 574 316.553 574 L 333.106 574 332.803 551.570 C 332.471 526.989, 332.382 526.614, 325.702 521.627 C 321.537 518.517, 312.534 518.309, 307.604 521.209 M 720.500 520.402 C 709.309 523.951, 700.232 531.699, 695.187 542.008 C 687.091 558.550, 690.373 577.496, 703.481 589.894 C 726.663 611.818, 764.202 601.295, 772.527 570.538 C 778.052 550.129, 765.932 528.030, 745.327 520.940 C 738.778 518.687, 726.731 518.426, 720.500 520.402" stroke="none" fill="#040404" fill-rule="evenodd"/></svg>