<?xml version="1.0" encoding="UTF-8"?>
<svg xmlns="http://www.w3.org/2000/svg" viewBox="0 0 227.2 29.7" style="enable-background:new 0 0 227.2 29.7" xml:space="preserve">
  <style>.st0{fill:#d0d0d0}.st1{fill:#af1739}.st3{display:inline;opacity:.49;fill:#d3d059}.st4,.st5{display:inline;fill:#b77233}.st5{fill:#aa6321}</style>
  <g id="Ebene_1">
    <path class="st0" d="M65.5 0v4.8h131.8v3.5h17.8V0zM0 29.7v-8.2h17.8v3.4h132.9v4.8z"></path>
    <path class="st1" d="M33.9 11.9v-.8c-.1-1.6-1.4-2.9-2.9-2.9h-7.5c-.8 0-1.6.3-2.1.9-.5.6-.8 1.3-.8 2v1.5c-.1 1.5 1.2 2.8 2.8 2.9h7.5c.2 0 .4.1.6.2.2.2.3.5.3.8v2.1c0 .5-.5.9-1 .9h-7.4c-.2 0-.5-.1-.7-.3-.2-.2-.2-.4-.2-.6v-1h-2v1c0 .7.3 1.4.8 1.9.5.6 1.3.9 2.1.9h7.5c1.5 0 2.8-1.3 2.9-2.8v-2.1c0-.8-.4-1.6-1-2.2-.5-.5-1.2-.8-2-.7h-7.4c-.5 0-1-.4-.9-.9v-1.6c0-.2.1-.5.2-.6.2-.2.4-.3.7-.3h7.4c.5 0 .9.5.9 1v.7h2.2M61.7 8.3v5.3h-9.1V8.3h-2v13.2h2v-5.9h9.1v5.9h2V8.3h-2M76.8 8.3v10l-9.4-9.7-.3-.3h-1.6v13.2h1.9V11.4l9.5 9.8.3.3h1.5V8.3h-1.9M93.2 10.2v-2H80.5v13.3h12.7v-2H82.5v-4H91v-1.9h-8.5v-3.4h10.7M107.6 10.2v-2H94.9v13.3h12.7v-2H96.9v-4h8.6v-1.9h-8.6v-3.4h10.7M136.7 10.2v-2H124v13.3h12.7v-2H126v-4h8.6v-1.9H126v-3.4h10.7M180.2 10.2v-2h-12.7v13.3h12.7v-2h-10.7v-3.9h8.8v-2h-8.8v-3.4h10.7M48.9 12.9v-1c0-.9-.3-1.8-.9-2.5-.7-.7-1.7-1.2-2.7-1.2h-5.8c-2 0-3.7 1.6-3.8 3.6v6c.1 2 1.8 3.6 3.8 3.7h5.8c1 0 2-.5 2.7-1.2.6-.7 1-1.6.9-2.5v-1.1H47v1.1c0 .4-.1.8-.4 1.1-.3.4-.8.6-1.3.6h-5.7c-1 0-1.8-.8-1.9-1.8v-5.9c.1-.9.9-1.7 1.9-1.7h5.7c.5 0 1 .2 1.3.6.3.3.4.7.4 1.1v1h1.9M149.6 14.6c-.1 0-.1 0 0 0 .7-.7 1.2-1.6 1.2-2.6-.1-2-1.7-3.7-3.6-3.7h-8.7v13.2h1.9v-5.9h6.7c.4 0 .8.1 1.1.4.4.3.6.8.6 1.3v4.2h1.9v-4.2c0-1.1-.4-2-1.1-2.7m-2.5-1h-6.6v-3.4h6.7c.9 0 1.7.8 1.7 1.7-.1.9-.9 1.7-1.8 1.7zM163.9 13.6h-6v2h5.9v2.3c0 .6-.2.9-.4 1.2-.3.3-.8.5-1.3.6h-5.9c-.9 0-1.7-.8-1.7-1.7v-5.9c0-.9.8-1.7 1.7-1.7h5.9c.5 0 .9.2 1.3.6.3.3.4.7.4 1.1v.2h2v-.2c0-.9-.3-1.8-1-2.5s-1.7-1.2-2.7-1.2h-5.9c-2 0-3.6 1.6-3.7 3.6v6c.1 2 1.7 3.6 3.6 3.7h6c1.1 0 2-.4 2.7-1.2.6-.7 1-1.6.9-2.5v-2.5c0-1.2-.3-1.9-1.8-1.9zM193.4 14.7l-.1-.1c.1-.1.2-.1.2-.2.6-.7 1-1.6.9-2.5 0-.9-.3-1.8-1-2.5s-1.7-1.1-2.7-1.2h-8.9v13.2h2v-5.9h6.9c.5 0 .9.2 1.2.5.3.3.5.7.5 1.2v4.2h1.9v-4.2c.1-.9-.2-1.8-.9-2.5m-9.5-1.1v-3.4h6.9c.5 0 1 .2 1.3.5.3.3.4.7.4 1.1 0 .5-.1.9-.4 1.2-.3.4-.8.6-1.3.6h-6.9zM120.5 14.6c.7-.7 1.2-1.6 1.2-2.7 0-2-1.6-3.6-3.6-3.7h-8.7v13.2h9.4c2 0 3.7-1.6 3.7-3.7-.2-1.3-.9-2.5-2-3.1zm-9.2-4.4h6.7c.5 0 1 .2 1.3.5.3.3.4.7.4 1.1 0 .5-.1.9-.4 1.2-.3.4-.8.6-1.3.6h-6.7v-3.4zm8.8 8.5c-.1.1-.1.2-.2.3-.3.3-.8.5-1.3.6h-7.2v-4H118.8c1 .1 1.8 1 1.8 2-.1.4-.3.7-.5 1.1z"></path>
    <path class="st0" d="M221.7 6.1V2.2h1.7c.3 0 .6 0 .8.1.2.1.3.2.4.4.1.2.2.4.2.6 0 .3-.1.5-.3.7-.2.2-.5.3-.8.4.1.1.2.1.3.2.2.1.3.3.4.5l.7 1.1h-.7l-.4-.9c-.2-.2-.3-.4-.4-.5l-.3-.3c-.1-.1-.2-.1-.2-.1H222.2v1.7h-.5zm.5-2.2h1.1c.2 0 .4 0 .6-.1s.2-.1.3-.2c.1-.1.1-.2.1-.4s-.1-.3-.2-.5c-.1-.1-.3-.2-.6-.2h-1.2v1.4z"></path>
    <path class="st0" d="M223.2.2c-2.2 0-3.9 1.8-3.9 3.9s1.8 3.9 3.9 3.9 3.9-1.8 3.9-3.9-1.7-3.9-3.9-3.9zm0 7.1c-1.7 0-3.2-1.4-3.2-3.2s1.4-3.2 3.2-3.2c1.7 0 3.2 1.4 3.2 3.2s-1.4 3.2-3.2 3.2z"></path>
  </g>
</svg>
