<svg xmlns="http://www.w3.org/2000/svg" width="1088" height="1094" viewBox="0 0 1088 1094" version="1.1"><path d="M 273.648 240.250 C 273.301 243.137, 273.013 315.210, 273.009 400.412 L 273 555.324 309.750 554.664 C 329.962 554.300, 374.288 554.002, 408.250 554.001 L 470 554 470 542.662 L 470 531.325 431.750 530.664 C 410.712 530.300, 371.714 530.002, 345.086 530.001 L 296.673 530 297.335 476.750 C 297.700 447.462, 297.998 386.938, 297.999 342.250 L 298 261 311.500 261 L 325 261 325 343.836 C 325 389.396, 325.298 443.621, 325.662 464.336 L 326.325 502 399.162 502 L 472 502 472 395 L 472 288 435.500 288 L 399 288 399 274 L 399 260 598.750 260.009 C 708.612 260.013, 800.863 260.301, 803.750 260.648 L 809 261.279 809 297.265 L 809 333.252 820.480 332.812 C 826.794 332.571, 832.294 332.040, 832.700 331.633 C 833.107 331.226, 833.620 309.317, 833.840 282.946 L 834.240 235 604.120 235 L 374 235 374 252.839 C 374 262.650, 374.297 280.200, 374.659 291.839 L 375.318 313 410.542 313 L 445.767 313 446.370 315.250 C 446.701 316.488, 446.979 353.163, 446.986 396.750 L 447 476 399 476 L 351 476 351 390.163 C 351 342.953, 350.702 288.728, 350.338 269.663 L 349.676 235 311.977 235 L 274.279 235 273.648 240.250 M 497 421.500 L 497 555 509.339 555 L 521.677 555 522.385 434.787 C 522.774 368.670, 523.334 314.332, 523.628 314.037 C 523.923 313.742, 539.652 313.356, 558.582 313.180 L 593 312.860 593 433.930 L 593 555 713.500 555 L 834 555 834 454.837 L 834 354.674 791.836 355.337 C 768.646 355.702, 739.846 356, 727.836 356 L 706 356 706 395 L 706 434 727.250 434.011 C 738.938 434.017, 750.188 434.301, 752.250 434.642 L 756 435.262 756 456.631 L 756 478 712.500 478 L 669 478 669 396 L 669 314 712.356 314 L 755.713 314 756.381 321.191 C 756.749 325.147, 757.202 328.535, 757.387 328.721 C 757.573 328.907, 762.962 329.339, 769.363 329.682 L 781 330.306 781 309.153 L 781 288 757.164 288 C 744.054 288, 713.004 288.298, 688.164 288.663 L 643 289.326 643 396.163 L 643 503 712 503 L 781 503 781 456 L 781 409 756.612 409 L 732.223 409 731.497 395.948 C 731.098 388.769, 731.085 382.582, 731.468 382.198 C 731.851 381.814, 748.755 381.500, 769.031 381.500 C 797.938 381.500, 806.178 381.781, 807.199 382.799 C 808.238 383.837, 808.558 398.670, 808.787 456.385 L 809.074 528.672 751.872 529.336 C 720.411 529.701, 677.645 530, 656.835 530 L 619 530 619 409 L 619 288 558 288 L 497 288 497 421.500 M 300.595 668.250 C 298.705 671.182, 292.787 686.125, 282.476 714 C 277.898 726.375, 273.845 737.288, 273.469 738.250 C 272.846 739.846, 273.668 740, 282.785 740 L 292.784 740 294.187 734.250 L 295.589 728.500 311.274 728.225 L 326.960 727.949 328.730 733.973 L 330.500 739.997 340.250 739.999 C 345.613 739.999, 350 739.699, 350 739.331 C 350 738.720, 327.721 678.478, 324.267 669.750 L 322.783 666 312.414 666 C 302.759 666, 301.946 666.155, 300.595 668.250 M 367.338 667.250 C 366.909 667.938, 366.379 684.587, 366.161 704.250 L 365.764 740 375.418 740 L 385.072 740 384.786 703.963 C 384.542 673.231, 384.279 667.786, 383 666.978 C 380.727 665.542, 368.269 665.759, 367.338 667.250 M 410.662 669.624 C 410.310 671.756, 410.017 688.462, 410.011 706.750 L 410 740 418.847 740 L 427.695 740 428.307 727.818 C 428.822 717.587, 429.232 715.324, 430.869 713.687 C 435.554 709.002, 444.473 716.322, 451.382 730.522 L 455.994 740 465.997 740 C 471.499 740, 476 739.781, 476 739.514 C 476 737.127, 464.053 715.375, 460.535 711.357 L 456.032 706.214 460.490 702.562 C 465.960 698.080, 467.473 693.432, 466.661 683.603 C 465.971 675.238, 463.512 672.114, 455.066 668.865 C 450.299 667.032, 446.759 666.655, 430.401 666.237 L 411.303 665.748 410.662 669.624 M 528.213 667.187 C 527.525 667.875, 527 671.063, 527 674.553 L 527 680.706 538.721 681.407 C 545.167 681.793, 550.539 682.205, 550.658 682.324 C 550.776 682.443, 551.196 695.469, 551.590 711.270 L 552.306 740 561.138 740 L 569.970 740 570.235 710.750 L 570.500 681.500 583 681.223 L 595.500 680.947 595 673.723 L 594.500 666.500 561.963 666.237 C 537.493 666.039, 529.126 666.274, 528.213 667.187 M 611 703 L 611 740 637.500 740 L 664 740 663.986 735.750 C 663.957 726.613, 664.866 727.084, 646.640 726.774 L 630.500 726.500 630.500 718.500 L 630.500 710.500 645.750 709.616 L 661 708.732 661 701.892 L 661 695.052 645.750 694.776 L 630.500 694.500 630.204 687.750 L 629.909 681 645.954 681 L 662 681 662 674.535 C 662 669.167, 661.672 667.895, 660.066 667.035 C 658.889 666.406, 648.898 666, 634.566 666 L 611 666 611 703 M 709 666.873 C 703.289 668.767, 695.675 673.325, 691.877 677.123 C 685.042 683.958, 684.047 687.354, 684.022 703.934 C 683.997 720.504, 684.886 723.427, 692.238 730.932 C 700.262 739.124, 712.075 742.697, 727.394 741.564 C 736.452 740.894, 741.583 739.424, 743.656 736.905 C 745.256 734.961, 746.261 726.808, 745.114 725.079 C 744.311 723.870, 743.075 723.983, 736.835 725.832 C 724.671 729.437, 715.844 728.436, 709.324 722.711 C 707.332 720.962, 705.082 718.048, 704.325 716.235 C 702.675 712.287, 702.426 698.846, 703.901 693.368 C 705.075 689.008, 710.907 682.719, 715.315 681.060 C 719.688 679.414, 732.790 679.899, 739 681.937 C 745.430 684.048, 746.305 683.445, 745.438 677.500 C 744.482 670.949, 744.091 670.271, 740.213 668.427 C 737.426 667.102, 733.384 666.584, 724 666.353 C 717.125 666.183, 710.375 666.417, 709 666.873 M 768.411 667.145 C 768.022 667.774, 767.481 684.424, 767.210 704.145 L 766.717 740 776.359 740 L 786 740 786 726.582 C 786 719.202, 786.273 712.452, 786.607 711.582 C 787.120 710.244, 789.362 710, 801.123 710 L 815.032 710 814.454 722.250 C 813.658 739.110, 813.843 739.410, 825.277 739.789 L 834 740.078 833.995 712.789 C 833.992 697.780, 833.696 681.069, 833.338 675.654 L 832.686 665.808 824.306 666.154 C 818.233 666.405, 815.666 666.913, 814.979 668 C 814.457 668.825, 814.024 675.237, 814.015 682.250 L 814 695 801.557 695 C 785.635 695, 786 695.392, 786 678.277 L 786 666 777.559 666 C 772.299 666, 768.851 666.431, 768.411 667.145 M 431.356 681.463 C 427.122 684.429, 427.617 698.109, 432.009 699.503 C 435.111 700.487, 442.783 698.959, 445.512 696.812 C 448.605 694.379, 449.015 687.380, 446.250 684.223 C 442.884 680.380, 434.991 678.917, 431.356 681.463 M 309.644 690.750 C 307.111 695.698, 301.885 712.005, 302.509 713.014 C 303.259 714.227, 317.977 714.301, 319.870 713.101 C 321.004 712.383, 320.850 711.050, 318.976 705.367 C 316.344 697.388, 312.346 688, 311.581 688 C 311.290 688, 310.418 689.237, 309.644 690.750 M 293.147 800.145 C 288.300 801.541, 280.299 809.888, 279.445 814.442 C 278.178 821.195, 279.427 827.790, 282.608 831.140 C 286.623 835.369, 293.678 838.750, 302.240 840.547 C 311.371 842.464, 315.887 844.772, 318.750 848.985 C 322.116 853.937, 321.694 857.541, 317.227 862.008 C 310.757 868.479, 302.812 869.512, 290.288 865.513 C 279.509 862.070, 278.808 862.145, 279.190 866.701 C 279.443 869.721, 280.144 870.779, 283 872.451 C 286.107 874.270, 288.186 874.500, 301.500 874.500 C 315.548 874.500, 316.769 874.346, 320.736 872.074 C 327.081 868.439, 330.335 863.110, 330.815 855.562 C 331.284 848.195, 329.163 843.106, 323.579 838.204 C 320.214 835.249, 316.837 833.980, 300.317 829.464 C 292.014 827.195, 290 825.188, 290 819.184 C 290 816.421, 290.680 813.474, 291.631 812.117 C 295.368 806.781, 305.782 805.547, 318.150 808.974 C 322.068 810.060, 325.663 810.709, 326.137 810.415 C 327.598 809.513, 327.094 805.337, 325.250 803.067 C 323.987 801.512, 321.692 800.653, 317 799.977 C 308.844 798.802, 297.538 798.882, 293.147 800.145 M 449.500 800.829 C 441.744 804.527, 438 811.083, 438 820.965 C 438 826.469, 438.310 827.337, 441.557 830.931 C 445.185 834.948, 450.239 837.288, 465.299 841.925 C 469.039 843.077, 473.197 844.739, 474.540 845.618 C 479.714 849.008, 479.646 859.773, 474.425 863.880 C 468.819 868.290, 456.480 868.550, 445.005 864.502 C 438.901 862.348, 438 862.541, 438 866 C 438 872.923, 444.837 875.345, 462.960 874.842 C 478.228 874.417, 483.015 872.444, 486.750 865.038 C 489.476 859.633, 489.870 848.583, 487.501 844.002 C 484.608 838.407, 474.499 832.518, 465.895 831.416 C 455.482 830.082, 448 824.490, 448 818.043 C 448 808.438, 460.249 804.536, 476.776 808.875 C 480.704 809.906, 484.161 810.506, 484.459 810.208 C 484.756 809.910, 485 808.144, 485 806.282 C 485 801.297, 480.716 799.761, 465.500 799.292 C 455.257 798.976, 452.914 799.201, 449.500 800.829 M 792.429 800.893 C 780.287 806.408, 776.417 823.264, 785.263 832.109 C 789.209 836.055, 793.978 838.209, 804.929 840.992 C 815.468 843.670, 818.565 845.258, 820.483 848.967 C 822.533 852.932, 822.385 856.856, 820.040 860.701 C 815.893 867.503, 806.204 869.418, 793.500 865.948 C 781.137 862.571, 779.999 862.461, 780.004 864.637 C 780.006 865.661, 780.866 867.908, 781.916 869.629 C 784.328 873.586, 790.766 875.314, 803.500 875.423 C 816.573 875.535, 819.390 874.690, 825.635 868.784 C 832.141 862.631, 833.572 858.544, 832.068 850.409 C 830.124 839.896, 825.037 835.890, 807.636 831.168 C 795.474 827.868, 791.831 825.716, 790.927 821.298 C 788.531 809.580, 801.837 803.899, 819.932 808.914 C 823.731 809.967, 827.100 810.567, 827.419 810.247 C 828.594 809.073, 827.951 805.163, 826.250 803.140 C 822.762 798.992, 799.951 797.476, 792.429 800.893 M 354.472 801.045 C 354.117 801.620, 359.490 810.541, 366.413 820.870 L 379 839.651 379 857.442 L 379 875.233 381.250 874.630 C 382.488 874.299, 384.674 874.021, 386.108 874.014 L 388.716 874 389.440 855.326 L 390.165 836.652 401.570 819.940 C 407.843 810.748, 413.254 802.501, 413.595 801.614 C 414.095 800.309, 413.510 800, 410.541 800 C 408.521 800, 406.017 800.456, 404.976 801.013 C 403.935 801.570, 399.938 806.633, 396.095 812.263 C 392.252 817.893, 387.808 824.045, 386.220 825.933 L 383.332 829.365 374.079 815.671 C 368.991 808.140, 363.996 801.533, 362.979 800.989 C 360.547 799.687, 355.290 799.722, 354.472 801.045 M 511.015 802.250 C 511.051 807.531, 514.763 809, 528.065 809 L 538 809 538 842 L 538 875 542.500 875 L 547 875 547 842.147 L 547 809.294 559.111 808.736 C 565.772 808.429, 571.562 807.801, 571.979 807.339 C 572.395 806.878, 573.009 805.038, 573.343 803.250 L 573.950 800 542.475 800 L 511 800 511.015 802.250 M 602 800.895 L 599.500 801.590 599.258 836.545 C 599.125 855.770, 599.350 872.001, 599.758 872.613 C 600.251 873.352, 608.314 873.895, 623.750 874.229 L 647 874.732 647 869.866 L 647 865 628.132 865 L 609.264 865 609.707 853.250 C 609.951 846.788, 610.327 840.938, 610.544 840.250 C 610.834 839.329, 614.595 839, 624.844 839 C 642.908 839, 645 838.584, 645 834.992 C 645 831.444, 643.431 831.031, 629.890 831.014 C 624.054 831.006, 617.223 830.718, 614.709 830.374 L 610.140 829.747 609.820 821.295 C 609.327 808.281, 608.410 809, 625.500 809 C 642.974 809, 647 807.886, 647 803.051 L 647 800 625.750 800.100 C 614.063 800.155, 603.375 800.512, 602 800.895 M 680 837.500 L 680 875 684.500 875 L 689 875 689.118 847.750 C 689.231 821.727, 689.773 813.284, 691.186 815.516 C 691.540 816.075, 695.282 825.300, 699.502 836.016 C 703.721 846.732, 707.820 856.513, 708.610 857.750 C 710.670 860.977, 716.188 860.847, 718.813 857.510 C 719.890 856.141, 724.023 846.241, 727.996 835.510 C 731.970 824.780, 735.552 816, 735.958 816 C 737.014 816, 737.990 835.514, 737.995 856.750 L 738 875 743 875 L 748 875 748 837.500 L 748 800 743.125 800 C 733.397 800, 732.433 800.539, 729.977 807.356 C 719.554 836.288, 712.973 850.072, 711.581 845.886 C 710.392 842.311, 697.944 809.071, 696.564 805.786 C 694.592 801.093, 692.515 800, 685.566 800 L 680 800 680 837.500" stroke="none" fill="#eaf2f2" fill-rule="evenodd"/><path d="M 142.667 125.667 C 141.571 126.763, 141.867 967.800, 142.964 968.478 C 143.494 968.806, 324.394 968.758, 544.964 968.373 L 946 967.672 946 546.336 L 946 125 544.667 125 C 323.933 125, 143.033 125.300, 142.667 125.667 M 273.648 240.250 C 273.301 243.137, 273.013 315.210, 273.009 400.412 L 273 555.324 309.750 554.664 C 329.962 554.300, 374.288 554.002, 408.250 554.001 L 470 554 470 542.662 L 470 531.325 431.750 530.664 C 410.712 530.300, 371.714 530.002, 345.086 530.001 L 296.673 530 297.335 476.750 C 297.700 447.462, 297.998 386.938, 297.999 342.250 L 298 261 311.500 261 L 325 261 325 343.836 C 325 389.396, 325.298 443.621, 325.662 464.336 L 326.325 502 399.162 502 L 472 502 472 395 L 472 288 435.500 288 L 399 288 399 274 L 399 260 598.750 260.009 C 708.612 260.013, 800.863 260.301, 803.750 260.648 L 809 261.279 809 297.265 L 809 333.252 820.480 332.812 C 826.794 332.571, 832.294 332.040, 832.700 331.633 C 833.107 331.226, 833.620 309.317, 833.840 282.946 L 834.240 235 604.120 235 L 374 235 374 252.839 C 374 262.650, 374.297 280.200, 374.659 291.839 L 375.318 313 410.542 313 L 445.767 313 446.370 315.250 C 446.701 316.488, 446.979 353.163, 446.986 396.750 L 447 476 399 476 L 351 476 351 390.163 C 351 342.953, 350.702 288.728, 350.338 269.663 L 349.676 235 311.977 235 L 274.279 235 273.648 240.250 M 497 421.500 L 497 555 509.339 555 L 521.677 555 522.385 434.787 C 522.774 368.670, 523.334 314.332, 523.628 314.037 C 523.923 313.742, 539.652 313.356, 558.582 313.180 L 593 312.860 593 433.930 L 593 555 713.500 555 L 834 555 834 454.837 L 834 354.674 791.836 355.337 C 768.646 355.702, 739.846 356, 727.836 356 L 706 356 706 395 L 706 434 727.250 434.011 C 738.938 434.017, 750.188 434.301, 752.250 434.642 L 756 435.262 756 456.631 L 756 478 712.500 478 L 669 478 669 396 L 669 314 712.356 314 L 755.713 314 756.381 321.191 C 756.749 325.147, 757.202 328.535, 757.387 328.721 C 757.573 328.907, 762.962 329.339, 769.363 329.682 L 781 330.306 781 309.153 L 781 288 757.164 288 C 744.054 288, 713.004 288.298, 688.164 288.663 L 643 289.326 643 396.163 L 643 503 712 503 L 781 503 781 456 L 781 409 756.612 409 L 732.223 409 731.497 395.948 C 731.098 388.769, 731.085 382.582, 731.468 382.198 C 731.851 381.814, 748.755 381.500, 769.031 381.500 C 797.938 381.500, 806.178 381.781, 807.199 382.799 C 808.238 383.837, 808.558 398.670, 808.787 456.385 L 809.074 528.672 751.872 529.336 C 720.411 529.701, 677.645 530, 656.835 530 L 619 530 619 409 L 619 288 558 288 L 497 288 497 421.500 M 300.595 668.250 C 298.705 671.182, 292.787 686.125, 282.476 714 C 277.898 726.375, 273.845 737.288, 273.469 738.250 C 272.846 739.846, 273.668 740, 282.785 740 L 292.784 740 294.187 734.250 L 295.589 728.500 311.274 728.225 L 326.960 727.949 328.730 733.973 L 330.500 739.997 340.250 739.999 C 345.613 739.999, 350 739.699, 350 739.331 C 350 738.720, 327.721 678.478, 324.267 669.750 L 322.783 666 312.414 666 C 302.759 666, 301.946 666.155, 300.595 668.250 M 367.338 667.250 C 366.909 667.938, 366.379 684.587, 366.161 704.250 L 365.764 740 375.418 740 L 385.072 740 384.786 703.963 C 384.542 673.231, 384.279 667.786, 383 666.978 C 380.727 665.542, 368.269 665.759, 367.338 667.250 M 410.662 669.624 C 410.310 671.756, 410.017 688.462, 410.011 706.750 L 410 740 418.847 740 L 427.695 740 428.307 727.818 C 428.822 717.587, 429.232 715.324, 430.869 713.687 C 435.554 709.002, 444.473 716.322, 451.382 730.522 L 455.994 740 465.997 740 C 471.499 740, 476 739.781, 476 739.514 C 476 737.127, 464.053 715.375, 460.535 711.357 L 456.032 706.214 460.490 702.562 C 465.960 698.080, 467.473 693.432, 466.661 683.603 C 465.971 675.238, 463.512 672.114, 455.066 668.865 C 450.299 667.032, 446.759 666.655, 430.401 666.237 L 411.303 665.748 410.662 669.624 M 528.213 667.187 C 527.525 667.875, 527 671.063, 527 674.553 L 527 680.706 538.721 681.407 C 545.167 681.793, 550.539 682.205, 550.658 682.324 C 550.776 682.443, 551.196 695.469, 551.590 711.270 L 552.306 740 561.138 740 L 569.970 740 570.235 710.750 L 570.500 681.500 583 681.223 L 595.500 680.947 595 673.723 L 594.500 666.500 561.963 666.237 C 537.493 666.039, 529.126 666.274, 528.213 667.187 M 611 703 L 611 740 637.500 740 L 664 740 663.986 735.750 C 663.957 726.613, 664.866 727.084, 646.640 726.774 L 630.500 726.500 630.500 718.500 L 630.500 710.500 645.750 709.616 L 661 708.732 661 701.892 L 661 695.052 645.750 694.776 L 630.500 694.500 630.204 687.750 L 629.909 681 645.954 681 L 662 681 662 674.535 C 662 669.167, 661.672 667.895, 660.066 667.035 C 658.889 666.406, 648.898 666, 634.566 666 L 611 666 611 703 M 709 666.873 C 703.289 668.767, 695.675 673.325, 691.877 677.123 C 685.042 683.958, 684.047 687.354, 684.022 703.934 C 683.997 720.504, 684.886 723.427, 692.238 730.932 C 700.262 739.124, 712.075 742.697, 727.394 741.564 C 736.452 740.894, 741.583 739.424, 743.656 736.905 C 745.256 734.961, 746.261 726.808, 745.114 725.079 C 744.311 723.870, 743.075 723.983, 736.835 725.832 C 724.671 729.437, 715.844 728.436, 709.324 722.711 C 707.332 720.962, 705.082 718.048, 704.325 716.235 C 702.675 712.287, 702.426 698.846, 703.901 693.368 C 705.075 689.008, 710.907 682.719, 715.315 681.060 C 719.688 679.414, 732.790 679.899, 739 681.937 C 745.430 684.048, 746.305 683.445, 745.438 677.500 C 744.482 670.949, 744.091 670.271, 740.213 668.427 C 737.426 667.102, 733.384 666.584, 724 666.353 C 717.125 666.183, 710.375 666.417, 709 666.873 M 768.411 667.145 C 768.022 667.774, 767.481 684.424, 767.210 704.145 L 766.717 740 776.359 740 L 786 740 786 726.582 C 786 719.202, 786.273 712.452, 786.607 711.582 C 787.120 710.244, 789.362 710, 801.123 710 L 815.032 710 814.454 722.250 C 813.658 739.110, 813.843 739.410, 825.277 739.789 L 834 740.078 833.995 712.789 C 833.992 697.780, 833.696 681.069, 833.338 675.654 L 832.686 665.808 824.306 666.154 C 818.233 666.405, 815.666 666.913, 814.979 668 C 814.457 668.825, 814.024 675.237, 814.015 682.250 L 814 695 801.557 695 C 785.635 695, 786 695.392, 786 678.277 L 786 666 777.559 666 C 772.299 666, 768.851 666.431, 768.411 667.145 M 431.356 681.463 C 427.122 684.429, 427.617 698.109, 432.009 699.503 C 435.111 700.487, 442.783 698.959, 445.512 696.812 C 448.605 694.379, 449.015 687.380, 446.250 684.223 C 442.884 680.380, 434.991 678.917, 431.356 681.463 M 309.644 690.750 C 307.111 695.698, 301.885 712.005, 302.509 713.014 C 303.259 714.227, 317.977 714.301, 319.870 713.101 C 321.004 712.383, 320.850 711.050, 318.976 705.367 C 316.344 697.388, 312.346 688, 311.581 688 C 311.290 688, 310.418 689.237, 309.644 690.750 M 293.147 800.145 C 288.300 801.541, 280.299 809.888, 279.445 814.442 C 278.178 821.195, 279.427 827.790, 282.608 831.140 C 286.623 835.369, 293.678 838.750, 302.240 840.547 C 311.371 842.464, 315.887 844.772, 318.750 848.985 C 322.116 853.937, 321.694 857.541, 317.227 862.008 C 310.757 868.479, 302.812 869.512, 290.288 865.513 C 279.509 862.070, 278.808 862.145, 279.190 866.701 C 279.443 869.721, 280.144 870.779, 283 872.451 C 286.107 874.270, 288.186 874.500, 301.500 874.500 C 315.548 874.500, 316.769 874.346, 320.736 872.074 C 327.081 868.439, 330.335 863.110, 330.815 855.562 C 331.284 848.195, 329.163 843.106, 323.579 838.204 C 320.214 835.249, 316.837 833.980, 300.317 829.464 C 292.014 827.195, 290 825.188, 290 819.184 C 290 816.421, 290.680 813.474, 291.631 812.117 C 295.368 806.781, 305.782 805.547, 318.150 808.974 C 322.068 810.060, 325.663 810.709, 326.137 810.415 C 327.598 809.513, 327.094 805.337, 325.250 803.067 C 323.987 801.512, 321.692 800.653, 317 799.977 C 308.844 798.802, 297.538 798.882, 293.147 800.145 M 449.500 800.829 C 441.744 804.527, 438 811.083, 438 820.965 C 438 826.469, 438.310 827.337, 441.557 830.931 C 445.185 834.948, 450.239 837.288, 465.299 841.925 C 469.039 843.077, 473.197 844.739, 474.540 845.618 C 479.714 849.008, 479.646 859.773, 474.425 863.880 C 468.819 868.290, 456.480 868.550, 445.005 864.502 C 438.901 862.348, 438 862.541, 438 866 C 438 872.923, 444.837 875.345, 462.960 874.842 C 478.228 874.417, 483.015 872.444, 486.750 865.038 C 489.476 859.633, 489.870 848.583, 487.501 844.002 C 484.608 838.407, 474.499 832.518, 465.895 831.416 C 455.482 830.082, 448 824.490, 448 818.043 C 448 808.438, 460.249 804.536, 476.776 808.875 C 480.704 809.906, 484.161 810.506, 484.459 810.208 C 484.756 809.910, 485 808.144, 485 806.282 C 485 801.297, 480.716 799.761, 465.500 799.292 C 455.257 798.976, 452.914 799.201, 449.500 800.829 M 792.429 800.893 C 780.287 806.408, 776.417 823.264, 785.263 832.109 C 789.209 836.055, 793.978 838.209, 804.929 840.992 C 815.468 843.670, 818.565 845.258, 820.483 848.967 C 822.533 852.932, 822.385 856.856, 820.040 860.701 C 815.893 867.503, 806.204 869.418, 793.500 865.948 C 781.137 862.571, 779.999 862.461, 780.004 864.637 C 780.006 865.661, 780.866 867.908, 781.916 869.629 C 784.328 873.586, 790.766 875.314, 803.500 875.423 C 816.573 875.535, 819.390 874.690, 825.635 868.784 C 832.141 862.631, 833.572 858.544, 832.068 850.409 C 830.124 839.896, 825.037 835.890, 807.636 831.168 C 795.474 827.868, 791.831 825.716, 790.927 821.298 C 788.531 809.580, 801.837 803.899, 819.932 808.914 C 823.731 809.967, 827.100 810.567, 827.419 810.247 C 828.594 809.073, 827.951 805.163, 826.250 803.140 C 822.762 798.992, 799.951 797.476, 792.429 800.893 M 354.472 801.045 C 354.117 801.620, 359.490 810.541, 366.413 820.870 L 379 839.651 379 857.442 L 379 875.233 381.250 874.630 C 382.488 874.299, 384.674 874.021, 386.108 874.014 L 388.716 874 389.440 855.326 L 390.165 836.652 401.570 819.940 C 407.843 810.748, 413.254 802.501, 413.595 801.614 C 414.095 800.309, 413.510 800, 410.541 800 C 408.521 800, 406.017 800.456, 404.976 801.013 C 403.935 801.570, 399.938 806.633, 396.095 812.263 C 392.252 817.893, 387.808 824.045, 386.220 825.933 L 383.332 829.365 374.079 815.671 C 368.991 808.140, 363.996 801.533, 362.979 800.989 C 360.547 799.687, 355.290 799.722, 354.472 801.045 M 511.015 802.250 C 511.051 807.531, 514.763 809, 528.065 809 L 538 809 538 842 L 538 875 542.500 875 L 547 875 547 842.147 L 547 809.294 559.111 808.736 C 565.772 808.429, 571.562 807.801, 571.979 807.339 C 572.395 806.878, 573.009 805.038, 573.343 803.250 L 573.950 800 542.475 800 L 511 800 511.015 802.250 M 602 800.895 L 599.500 801.590 599.258 836.545 C 599.125 855.770, 599.350 872.001, 599.758 872.613 C 600.251 873.352, 608.314 873.895, 623.750 874.229 L 647 874.732 647 869.866 L 647 865 628.132 865 L 609.264 865 609.707 853.250 C 609.951 846.788, 610.327 840.938, 610.544 840.250 C 610.834 839.329, 614.595 839, 624.844 839 C 642.908 839, 645 838.584, 645 834.992 C 645 831.444, 643.431 831.031, 629.890 831.014 C 624.054 831.006, 617.223 830.718, 614.709 830.374 L 610.140 829.747 609.820 821.295 C 609.327 808.281, 608.410 809, 625.500 809 C 642.974 809, 647 807.886, 647 803.051 L 647 800 625.750 800.100 C 614.063 800.155, 603.375 800.512, 602 800.895 M 680 837.500 L 680 875 684.500 875 L 689 875 689.118 847.750 C 689.231 821.727, 689.773 813.284, 691.186 815.516 C 691.540 816.075, 695.282 825.300, 699.502 836.016 C 703.721 846.732, 707.820 856.513, 708.610 857.750 C 710.670 860.977, 716.188 860.847, 718.813 857.510 C 719.890 856.141, 724.023 846.241, 727.996 835.510 C 731.970 824.780, 735.552 816, 735.958 816 C 737.014 816, 737.990 835.514, 737.995 856.750 L 738 875 743 875 L 748 875 748 837.500 L 748 800 743.125 800 C 733.397 800, 732.433 800.539, 729.977 807.356 C 719.554 836.288, 712.973 850.072, 711.581 845.886 C 710.392 842.311, 697.944 809.071, 696.564 805.786 C 694.592 801.093, 692.515 800, 685.566 800 L 680 800 680 837.500" stroke="none" fill="#043464" fill-rule="evenodd"/></svg>