<svg xmlns="http://www.w3.org/2000/svg" width="1280" height="427" viewBox="0 0 1280 427" version="1.1"><path d="M 505.793 84.790 C 505.953 95.622, 506.403 104.804, 506.793 105.195 C 507.182 105.585, 507.368 97.042, 507.207 86.210 C 507.047 75.378, 506.597 66.196, 506.207 65.805 C 505.818 65.415, 505.632 73.958, 505.793 84.790 M 479.470 132 C 479.470 165.275, 479.596 178.888, 479.749 162.250 C 479.903 145.613, 479.903 118.388, 479.749 101.750 C 479.596 85.113, 479.470 98.725, 479.470 132 M 159.217 73.750 L 240.935 74.012 241.254 85.256 L 241.572 96.500 241.786 84.750 L 242 73 159.750 73.244 L 77.500 73.488 159.217 73.750 M 241 99.494 L 241 101.988 159.250 102.250 L 77.500 102.512 159.750 102.756 L 242 103 242 100 C 242 98.350, 241.775 97, 241.500 97 C 241.225 97, 241 98.122, 241 99.494 M 613.250 103.728 C 615.313 103.944, 618.688 103.944, 620.750 103.728 C 622.813 103.513, 621.125 103.336, 617 103.336 C 612.875 103.336, 611.188 103.513, 613.250 103.728 M 1094.776 103.733 C 1097.128 103.945, 1100.728 103.942, 1102.776 103.727 C 1104.824 103.512, 1102.900 103.339, 1098.500 103.343 C 1094.100 103.346, 1092.424 103.522, 1094.776 103.733 M 581.458 153 C 581.458 176.375, 581.589 185.938, 581.749 174.250 C 581.909 162.563, 581.909 143.438, 581.749 131.750 C 581.589 120.063, 581.458 129.625, 581.458 153 M 241.455 158 C 241.455 179.725, 241.587 188.612, 241.749 177.750 C 241.910 166.887, 241.910 149.112, 241.749 138.250 C 241.587 127.387, 241.455 136.275, 241.455 158 M 506.237 162.221 L 506 197.942 492.750 198.253 L 479.500 198.563 492.781 198.782 C 502.681 198.944, 506.185 198.680, 506.545 197.744 C 506.810 197.054, 506.902 180.741, 506.750 161.494 L 506.473 126.500 506.237 162.221 M 1089 162.556 L 1089 198.111 1075.998 197.806 C 1068.847 197.638, 1062.997 197.838, 1062.998 198.250 C 1062.999 198.662, 1069.075 199, 1076.500 199 L 1090 199 1090 163 C 1090 143.200, 1089.775 127, 1089.500 127 C 1089.225 127, 1089 143, 1089 162.556 M 814 139.976 C 814 141.857, 813.164 141.967, 796.750 142.252 L 779.500 142.550 797.250 142.775 L 815 143 815 140.500 C 815 139.125, 814.775 138, 814.500 138 C 814.225 138, 814 138.889, 814 139.976 M 985.116 140.750 L 985 143 1002.750 142.775 L 1020.500 142.550 1003.319 142.252 C 988.036 141.986, 986.088 141.763, 985.685 140.227 C 985.351 138.956, 985.201 139.094, 985.116 140.750 M 1045.328 152.500 C 1045.333 156.350, 1045.513 157.802, 1045.730 155.728 C 1045.946 153.653, 1045.943 150.503, 1045.722 148.728 C 1045.501 146.952, 1045.324 148.650, 1045.328 152.500 M 794.750 160.748 C 803.138 160.915, 816.862 160.915, 825.250 160.748 C 833.638 160.581, 826.775 160.444, 810 160.444 C 793.225 160.444, 786.362 160.581, 794.750 160.748 M 985.667 160.667 C 985.300 161.033, 985.007 161.821, 985.015 162.417 C 985.025 163.070, 985.342 163.010, 985.815 162.265 C 986.401 161.342, 994.032 160.960, 1016.049 160.750 L 1045.500 160.469 1015.917 160.234 C 999.646 160.105, 986.033 160.300, 985.667 160.667 M 581.256 197 C 581.592 198.235, 584.031 198.508, 595.082 198.548 L 608.500 198.596 595.540 198.267 C 586.825 198.045, 582.296 197.538, 581.713 196.719 C 581.091 195.843, 580.963 195.922, 581.256 197 M 106.857 198.257 C 107.273 198.674, 137.964 198.898, 175.057 198.757 L 242.500 198.500 174.300 198 C 136.790 197.725, 106.440 197.841, 106.857 198.257 M 898.250 200.735 C 900.862 200.941, 905.138 200.941, 907.750 200.735 C 910.362 200.529, 908.225 200.360, 903 200.360 C 897.775 200.360, 895.638 200.529, 898.250 200.735 M 107 225.493 L 107 240 174.527 240 L 242.055 240 241.777 225.750 L 241.500 211.500 174.250 211.243 L 107 210.986 107 225.493 M 500.194 264.250 C 500.538 324.112, 500.268 321.904, 508.126 329.231 C 513.008 333.784, 520.520 336.197, 530.360 336.374 L 537.355 336.500 538.599 329.500 C 539.283 325.650, 539.878 320.870, 539.921 318.878 C 539.996 315.430, 539.815 315.226, 536.148 314.640 C 531.271 313.860, 527.439 310.073, 526.641 305.243 C 526.300 303.185, 526.017 281.137, 526.011 256.250 L 526 211 512.944 211 L 499.888 211 500.194 264.250 M 427 240.637 C 417.866 241.968, 408.001 244.430, 408.004 245.377 C 408.012 247.857, 410.921 264.255, 411.446 264.779 C 411.755 265.088, 414.369 264.781, 417.254 264.096 C 420.139 263.411, 426.798 262.598, 432.052 262.291 C 446.834 261.425, 452.500 264.684, 454.392 275.144 L 455.051 278.787 444.707 278.259 C 427.419 277.377, 414.511 280.762, 407.099 288.123 C 401.830 293.355, 400.045 298.255, 400.039 307.500 C 400.034 314.243, 400.466 316.358, 402.784 320.962 C 406.114 327.576, 411.970 332.314, 419.816 334.741 C 427.885 337.238, 458.815 336.996, 470.857 334.342 L 479.214 332.500 479.063 300.290 C 478.878 261.038, 478.509 258.863, 470.552 250.162 C 466.689 245.938, 461.748 243.389, 453.781 241.511 C 448.122 240.176, 433.445 239.697, 427 240.637 M 671.813 241.470 C 654.710 246.180, 642.777 259.894, 639.513 278.587 C 638.090 286.739, 638.711 300.610, 640.808 307.509 C 642.656 313.591, 647.239 321.292, 651.615 325.667 C 662.129 336.181, 682.098 340.356, 703.697 336.555 C 716.544 334.294, 720 333.030, 719.999 330.592 C 719.997 328.086, 717.198 311.864, 716.677 311.344 C 716.476 311.143, 714.554 311.597, 712.406 312.354 C 710.258 313.110, 704.604 314.280, 699.843 314.954 C 683.848 317.219, 670.710 312.301, 667.067 302.685 C 666.480 301.137, 666 299.456, 666 298.950 C 666 298.416, 678.499 297.918, 695.750 297.765 L 725.500 297.500 725.798 290.061 C 726.171 280.731, 724.644 270.674, 721.741 263.343 C 719.207 256.941, 711.325 248.225, 705.291 245.152 C 695.479 240.154, 681.981 238.669, 671.813 241.470 M 763.184 241.490 C 748.257 245.710, 740.442 255.041, 740.563 268.500 C 740.633 276.271, 743.257 283.568, 747.619 288.123 C 749.001 289.566, 753.814 292.426, 758.315 294.480 C 781.207 304.924, 782.230 305.476, 783.139 307.866 C 784.374 311.114, 783.485 313.403, 780.332 315.090 C 776.421 317.183, 758.394 316.607, 749.514 314.106 C 745.672 313.023, 742.450 312.219, 742.353 312.319 C 742.257 312.419, 741.440 316.100, 740.537 320.500 C 739.634 324.900, 738.667 329.428, 738.387 330.562 C 737.756 333.115, 740.492 334.500, 750.209 336.544 C 759.193 338.434, 780.943 338.460, 787 336.588 C 803.259 331.562, 810 324.039, 810 310.915 C 810 295.006, 801.252 286.081, 777.675 277.935 C 766.313 274.010, 762.990 268.305, 769.325 263.599 C 771.761 261.789, 773.414 261.523, 781.325 261.664 C 786.795 261.761, 792.267 262.468, 794.876 263.414 C 797.282 264.286, 799.610 265, 800.048 265 C 801.883 265, 805.811 246.411, 804.296 244.896 C 800.516 241.116, 772.670 238.809, 763.184 241.490 M 301 243.465 C 301 246.081, 316.336 289.092, 320.980 299.500 C 321.962 301.700, 324.201 306.875, 325.957 311 C 327.713 315.125, 330.299 320.975, 331.706 324 C 333.112 327.025, 334.884 330.962, 335.644 332.750 L 337.027 336 347.465 336 L 357.904 336 362.051 327.250 C 373.775 302.517, 387.469 267.246, 391.972 250.187 C 392.598 247.816, 393.359 245.228, 393.662 244.437 C 394.125 243.231, 392.037 243, 380.678 243 L 367.142 243 365.523 248.750 C 362.206 260.532, 354.579 284.764, 351.752 292.500 C 350.144 296.900, 348.611 301.175, 348.347 302 C 347.919 303.333, 347.776 303.333, 347.057 302 C 345.083 298.339, 339.544 280.877, 331.752 253.750 L 328.664 243 314.832 243 C 307.224 243, 301 243.209, 301 243.465 M 540.264 244.250 C 540.527 244.938, 542.556 251.125, 544.772 258 C 551.261 278.123, 565.206 312.814, 574.199 331.204 L 576.500 335.909 586.809 335.954 L 597.117 336 602.656 324.250 C 610.868 306.827, 622.105 278.589, 627.893 260.828 C 630.702 252.209, 633 244.671, 633 244.078 C 633 243.361, 628.526 243, 619.636 243 L 606.273 243 603.548 252.750 C 600.013 265.402, 588.087 301.261, 587.065 302.312 C 586.153 303.251, 573.297 264.049, 569.008 247.250 L 567.923 243 553.854 243 C 543.011 243, 539.896 243.287, 540.264 244.250 M 107 273.500 L 107 295.014 174.250 294.757 L 241.500 294.500 241.500 273.500 L 241.500 252.500 174.250 252.243 L 107 251.986 107 273.500 M 675.896 263.331 C 674.463 263.974, 672.479 265.175, 671.487 266 C 669.248 267.862, 666.051 274.734, 666.022 277.750 C 666 279.996, 666.031 280, 683 280 L 700 280 700 276.950 C 700 270.498, 694.975 264.692, 688 263.085 C 682.344 261.783, 679.204 261.846, 675.896 263.331 M 431.500 297.368 C 427.543 299.117, 425.795 302.622, 426.183 308.026 C 426.451 311.759, 427.021 312.785, 429.898 314.717 C 432.893 316.730, 434.526 317, 443.683 317 L 454.070 317 453.785 306.750 L 453.500 296.500 444 296.271 C 437.817 296.122, 433.453 296.505, 431.500 297.368 M 107 321.493 L 107 336 174.527 336 L 242.055 336 241.777 321.750 L 241.500 307.500 174.250 307.243 L 107 306.986 107 321.493" stroke="none" fill="#5fb34d" fill-rule="evenodd"/><path d="M 480.528 65.806 C 480.238 66.096, 480 95.958, 480 132.167 L 480 198 493 198 L 506 198 506 162.545 L 506 127.091 509.750 126.322 C 521.332 123.949, 527.652 126.061, 531.500 133.588 C 533.346 137.199, 533.524 139.830, 533.816 167.750 L 534.132 198 547.066 198 L 560 198 559.965 168.750 C 559.928 137.618, 558.955 127.753, 555.196 120.384 C 548.912 108.067, 533.569 101.344, 517.190 103.731 C 512.906 104.355, 508.748 105.009, 507.950 105.183 C 506.734 105.449, 506.419 102.277, 506 85.500 L 505.500 65.500 493.278 65.389 C 486.556 65.328, 480.818 65.515, 480.528 65.806 M 914.597 65.737 C 914.269 66.065, 914 75.536, 914 86.783 L 914 107.233 911.750 106.577 C 901.758 103.663, 895.290 102.918, 889.190 103.981 C 875.411 106.380, 868.920 110.366, 862.151 120.586 C 857.463 127.663, 854.855 136.899, 854.267 148.511 C 853.650 160.681, 854.959 167.651, 859.608 176.944 C 864.071 185.865, 871.490 192.759, 880.686 196.531 C 886.569 198.944, 889.221 199.388, 900.102 199.777 C 911.971 200.201, 924.428 199.163, 935.257 196.848 L 940.014 195.831 939.757 130.666 L 939.500 65.500 927.347 65.320 C 920.662 65.221, 914.925 65.408, 914.597 65.737 M 78 88 L 78 102 159.434 102 L 240.867 102 241.184 99.250 C 241.358 97.737, 241.360 91.438, 241.189 85.250 L 240.879 74 159.439 74 L 78 74 78 88 M 331.271 104.540 C 321.932 107.055, 314.342 112.997, 310.886 120.500 C 308.721 125.200, 308.399 135.235, 310.216 141.384 C 311.947 147.242, 319.947 154.882, 327.500 157.891 C 342.917 164.032, 351.039 168.308, 351.610 170.582 C 352.410 173.772, 351.245 176.796, 348.682 178.181 C 345.176 180.076, 326.559 179.429, 317.923 177.113 C 313.860 176.023, 310.481 175.214, 310.415 175.316 C 310.349 175.417, 309.399 180, 308.305 185.500 L 306.314 195.500 308.407 196.360 C 314.684 198.939, 321.893 200.139, 334 200.622 C 345.412 201.077, 348.612 200.859, 354.690 199.210 C 371.989 194.519, 378.957 185.952, 377.697 170.926 C 376.457 156.140, 369.448 149.490, 346.147 140.995 C 337.901 137.989, 334 134.966, 334 131.584 C 334 128.414, 337.415 125.200, 341.622 124.411 C 346.685 123.461, 358.643 124.550, 363.906 126.439 C 366.329 127.309, 368.538 127.795, 368.815 127.518 C 369.368 126.965, 372.938 111.271, 372.976 109.225 C 373.061 104.666, 343.243 101.316, 331.271 104.540 M 425.500 104.325 C 404.211 109.774, 390.048 128.836, 390.012 152.090 C 389.998 161.179, 392.953 173.538, 396.650 179.846 C 402.124 189.188, 412.333 196.459, 423.618 199.055 C 435.129 201.704, 462.231 199.167, 463.714 195.303 C 464.386 193.553, 462.229 177.989, 461.051 176.083 C 460.469 175.141, 459.737 175.070, 458.335 175.821 C 457.280 176.385, 452.824 177.340, 448.433 177.941 C 435.686 179.686, 426.459 177.203, 421.712 170.751 C 417.632 165.206, 416.492 161.048, 416.628 152.215 C 416.740 144.941, 417.167 143.110, 420.128 137.215 C 422.845 131.805, 424.350 130.035, 427.872 128.108 C 433.780 124.875, 443.651 124.175, 451.432 126.437 C 454.613 127.362, 457.376 127.957, 457.573 127.760 C 458.586 126.748, 462.864 108.464, 462.235 107.837 C 458.810 104.419, 434.291 102.075, 425.500 104.325 M 682.500 104.455 C 675.424 106.272, 671.204 108.288, 665.763 112.449 C 648.869 125.369, 643.272 154.521, 653.603 175.783 C 658.005 184.843, 664.172 190.940, 673.750 195.701 C 680.218 198.916, 682.059 199.355, 690.815 199.777 C 709.147 200.660, 722.499 194.399, 731.927 180.500 C 737.112 172.855, 739.132 164.671, 739.080 151.512 C 739.019 136.018, 735.168 125.797, 725.749 116.128 C 714.962 105.055, 697.993 100.475, 682.500 104.455 M 786.500 104.353 C 770.955 108.380, 759.035 120.911, 754.485 138.008 C 752.590 145.131, 752.623 158.776, 754.556 166.978 C 759.386 187.471, 773.038 198.165, 797.251 200.426 C 807.400 201.373, 830.491 197.903, 833.407 194.992 C 833.949 194.451, 833.733 190.150, 832.869 184.293 C 831.766 176.813, 831.079 174.549, 829.962 174.709 C 829.158 174.824, 825.800 175.639, 822.500 176.521 C 819.152 177.416, 812.302 178.158, 807 178.201 C 799.260 178.264, 796.574 177.868, 792.500 176.067 C 786.375 173.360, 784.337 171.577, 781.894 166.790 C 778.230 159.612, 776.625 160, 810 160 L 840 160 840 150.660 C 840 139.570, 837.259 127.599, 833.221 121.051 C 829.587 115.159, 821.563 108.744, 814.344 105.961 C 807.227 103.218, 793.861 102.446, 786.500 104.353 M 991.105 104.583 C 970.016 110.254, 956.847 130.707, 958.322 155.500 C 959.351 172.788, 965.282 184.804, 976.605 192.541 C 984.603 198.007, 993.652 200.248, 1007.829 200.273 C 1023.457 200.301, 1040.541 196.476, 1039.612 193.157 C 1039.357 192.246, 1038.636 188.125, 1038.010 184 C 1037.383 179.875, 1036.716 176.007, 1036.526 175.404 C 1036.291 174.657, 1033.845 174.919, 1028.841 176.227 C 1024.589 177.338, 1017.713 178.203, 1012.500 178.282 C 1005.017 178.396, 1002.496 178.005, 997.542 175.960 C 991.184 173.335, 986.285 167.945, 985.764 163 L 985.500 160.500 1015.250 160.235 L 1045 159.970 1045 150.534 C 1045 134.593, 1041.590 123.851, 1033.873 115.478 C 1024.192 104.976, 1006.451 100.456, 991.105 104.583 M 603 104.626 C 601.625 104.896, 596.337 106.277, 591.250 107.695 L 582 110.273 582 154.136 L 582 198 595 198 L 608 198 608 162.545 L 608 127.091 611.462 126.441 C 615.129 125.753, 629.392 126.422, 634.595 127.525 L 637.690 128.182 639.346 119.841 C 641.627 108.349, 641.534 107.160, 638.250 105.873 C 635.397 104.754, 607.397 103.764, 603 104.626 M 1084 104.712 C 1079.415 105.519, 1064.617 109.983, 1063.792 110.808 C 1063.344 111.256, 1063.096 130.944, 1063.239 154.561 L 1063.500 197.500 1076.250 197.780 L 1089 198.060 1089 162.575 L 1089 127.091 1092.547 126.425 C 1096.179 125.744, 1111.100 126.441, 1116.526 127.545 L 1119.552 128.161 1121.318 117.923 C 1122.289 112.292, 1122.718 107.318, 1122.270 106.870 C 1120.136 104.736, 1092.667 103.187, 1084 104.712 M 107 156.500 L 107 198 174.250 198 L 241.500 198 241.262 157.750 C 241.130 135.613, 241.018 116.938, 241.012 116.250 C 241.002 115.263, 226.927 115, 174 115 L 107 115 107 156.500 M 789.500 126.348 C 787.850 127.106, 785.730 128.592, 784.788 129.650 C 782.633 132.071, 780 138.295, 780 140.968 C 780 142.934, 780.574 143, 797.628 143 L 815.256 143 814.600 138.750 C 813.876 134.054, 811.769 130.663, 807.677 127.608 C 804.263 125.059, 793.873 124.339, 789.500 126.348 M 894.913 125.921 C 887.096 127.471, 882.906 132.777, 880.868 143.705 C 879.459 151.256, 880.365 159.508, 883.342 166.240 C 887.394 175.401, 893.175 178.355, 906 177.815 L 913.500 177.500 913.768 153.206 L 914.036 128.913 910.768 127.580 C 906.382 125.790, 899.303 125.049, 894.913 125.921 M 994.500 126.348 C 990.570 128.154, 988.122 130.993, 986.449 135.684 C 983.709 143.365, 982.901 143, 1002.632 143 L 1020.263 143 1019.705 138.837 C 1019.096 134.296, 1016.869 130.738, 1012.677 127.608 C 1009.263 125.059, 998.873 124.339, 994.500 126.348 M 684.287 128.092 C 682.356 129.328, 679.962 132.415, 678.287 135.825 C 675.772 140.947, 675.500 142.530, 675.500 152.066 C 675.500 161.840, 675.725 163.069, 678.500 168.475 C 682.077 175.443, 686.917 178.548, 694 178.417 C 701.320 178.282, 706.354 175.023, 709.667 168.272 C 712.232 163.045, 712.500 161.508, 712.496 152 C 712.492 139.338, 710.047 132.463, 704.116 128.433 C 699.312 125.169, 689.124 124.993, 684.287 128.092" stroke="none" fill="#010302" fill-rule="evenodd"/></svg>