<?xml version="1.0" encoding="utf-8"?>
<!-- Generator: Adobe Illustrator 21.0.0, SVG Export Plug-In . SVG Version: 6.00 Build 0)  -->
<svg version="1.1" id="Слой_1" xmlns="http://www.w3.org/2000/svg" xmlns:xlink="http://www.w3.org/1999/xlink" x="0px" y="0px"
	 viewBox="0 0 251.62 46.24" style="enable-background:new 0 0 251.62 46.24;" xml:space="preserve">
<style type="text/css">
	.st0{fill:#006973;}
</style>
<path class="st0" d="M135.91,39.44l-9.47-8.62c-0.388-0.32-0.443-0.893-0.124-1.281c0.061-0.074,0.133-0.138,0.214-0.189l11.33-8.12
	l3.79-2.71c0.52-0.38,0.42-0.68-0.22-0.68h-6.84c-0.755,0.036-1.489,0.256-2.14,0.64l-12.61,8.34l-1.14,0.75
	c-0.09,0.06-0.17-0.42-0.17-1.06v-7.5c0-0.638-0.512-1.159-1.15-1.17h-3.5c-0.642,0.005-1.16,0.528-1.16,1.17v20.24
	c0,0.64-0.13,1.17-0.3,1.17s-0.55-0.47-0.85-1l-10.69-20.55c-0.364-0.597-1.002-0.972-1.7-1h-2.66c-0.715,0.045-1.37,0.413-1.78,1
	l-8.5,13.69c-0.21,0.34-5.35,8.73-6.44,8.2c2.66-4.21,2.46-9.49,2.46-9.86c0-12.28-6.47-13-6.47-13l-1.22-0.14H56.8
	c-0.641,0-1.16,0.519-1.16,1.16v0v3.5c0,0.642,0.518,1.165,1.16,1.17h16.06c0.72,0.029,1.415,0.269,2,0.69
	c0.47,0.38,0.79,3.43,0.14,3.43H62.5c-0.611,0.026-1.1,0.518-1.12,1.13v3.49c0.005,0.644,0.526,1.165,1.17,1.17h12.49
	c0.35-0.047,0.672,0.199,0.719,0.55c0.021,0.158-0.018,0.319-0.109,0.45l-2.8,5.13c-0.441,0.312-0.941,0.53-1.47,0.64h-33
	c-2.785,2.726-6.194,4.731-9.93,5.84h55.53c0.503-0.026,0.965-0.285,1.25-0.7c0.24-0.39,12-18.12,12-18.12
	c0.153-0.325,0.541-0.463,0.865-0.31c0.156,0.074,0.277,0.207,0.335,0.37l9,16.44c0.31,0.56,0.76,1.33,1,1.72
	c0.282,0.42,0.745,0.683,1.25,0.71h7.7c0.646,0,1.17-0.524,1.17-1.17v-9.26c0.046-0.723,0.413-1.387,1-1.81h0.06
	c0.555-0.332,1.256-0.292,1.77,0.1l12.28,11.32c0.567,0.467,1.267,0.743,2,0.79h6.51c0.65,0,0.78-0.35,0.31-0.78L135.91,39.44z"/>
<path class="st0" d="M250.45,40.42h-34.07c-0.699-0.043-1.325-0.449-1.65-1.07l-9.25-20.45c-0.327-0.617-0.953-1.019-1.65-1.06
	h-1.84c-0.698,0.028-1.336,0.403-1.7,1l-8.53,16.65c-0.3,0.57-0.73,0.55-1,0l-6.63-16.55c-0.289-0.627-0.901-1.043-1.59-1.08h-1.78
	c-0.706,0.037-1.352,0.409-1.74,1l-12,21.56c-0.21,0.416-0.469,0.805-0.77,1.16c-0.11,0.08,0-0.34,0.19-1
	c1.009-2.85,1.602-5.831,1.76-8.85c0.058-4.784-2.007-9.347-5.64-12.46l-1.32-1c-0.266-0.134-0.562-0.199-0.86-0.19h-12
	c-0.579-0.005-1.158,0.038-1.73,0.13c-0.476,0.14-0.941,0.317-1.39,0.53l-0.22,0.1c-1.969,1.113-3.595,2.746-4.7,4.72
	c-1.605,2.842-2.407,6.067-2.32,9.33c-0.007,1.594,0.246,3.178,0.75,4.69c1.191,3.405,3.57,6.266,6.7,8.06l0.66,0.32
	c0.174,0.093,0.354,0.173,0.54,0.24c0.103,0.01,0.207,0.01,0.31,0h22.28c0.708-0.032,1.356-0.405,1.74-1l9.38-16.86
	c0.31-0.56,0.75-0.52,1,0.07l6.4,16.73c0.279,0.633,0.89,1.054,1.58,1.09h3.22c0.705-0.034,1.339-0.437,1.67-1.06l8-16.83
	c0.27-0.58,0.72-0.58,1,0l6.93,15.14l0.88,1.91c0.258,0.497,0.76,0.821,1.32,0.85h38.08c0.641,0,1.16-0.519,1.16-1.16
	c0-0.003,0-0.007,0-0.01v-3.5C251.615,40.929,251.091,40.414,250.45,40.42C250.45,40.42,250.45,40.42,250.45,40.42z M160.63,38.54
	c-0.541,0.517-1.252,0.819-2,0.85h-10c-0.764-0.027-1.515-0.203-2.21-0.52c0,0-2.32-1.14-2.32-6s2.91-7.28,2.91-7.28
	c0.612-0.43,1.333-0.679,2.08-0.72h8.54c0.735,0.041,1.429,0.351,1.95,0.87c1.435,1.684,2.281,3.791,2.41,6
	C162.04,37.02,160.63,38.54,160.63,38.54z"/>
<polygon class="st0" points="53.37,3.37 55.59,3.37 55.59,2.28 52.38,2.28 52.38,9.89 53.37,9.89 "/>
<path class="st0" d="M62.03,6.8h0.44c0.584,0.026,1.152-0.191,1.57-0.6c0.894-1.024,0.814-2.573-0.18-3.5
	c-0.4-0.306-0.898-0.455-1.4-0.42h-1.42v7.61h1L62.03,6.8z M62.03,3.37h0.43c0.586-0.08,1.125,0.33,1.205,0.916
	c0.011,0.081,0.013,0.163,0.005,0.244c0.065,0.593-0.363,1.126-0.956,1.191C62.633,5.73,62.551,5.73,62.47,5.72h-0.44V3.37z"/>
<polygon class="st0" points="70.98,9.89 72.01,9.89 74.91,2.28 73.88,2.28 72.4,6.22 70.72,2.28 69.53,2.28 71.84,7.62 "/>
<polygon class="st0" points="81.28,3.37 84.02,3.37 84.02,9.89 85.01,9.89 85.01,2.28 80.29,2.28 80.29,9.89 81.28,9.89 "/>
<polygon class="st0" points="92.06,3.37 94.8,3.37 94.8,9.89 95.79,9.89 95.79,2.28 91.07,2.28 91.07,9.89 92.06,9.89 "/>
<path class="st0" d="M102.92,8.08h2.73l0.68,1.85h1.05l-3-8l-3.2,8h1.07L102.92,8.08z M104.31,4.43l1,2.56h-2L104.31,4.43z"/>
<polygon class="st0" points="127.21,6.24 129.69,9.89 130.99,9.89 128.08,5.73 130.98,2.28 129.69,2.28 127.21,5.31 127.21,2.28 
	126.22,2.28 126.22,9.89 127.21,9.89 "/>
<path class="st0" d="M139.19,10.08c1.92,0,3.34-1.73,3.34-3.94s-1.42-4-3.34-4s-3.35,1.73-3.35,4S137.26,10.08,139.19,10.08z
	 M139.19,3.26c1.35,0,2.31,1.19,2.31,2.88s-1,2.85-2.31,2.85s-2.32-1.18-2.32-2.85s0.96-2.92,2.32-2.92V3.26z"/>
<polygon class="st0" points="149.51,5.29 151.36,10.23 153.23,5.3 153.88,9.89 154.89,9.89 153.67,1.72 151.42,7.61 149.19,1.72 
	147.84,9.89 148.85,9.89 "/>
<polygon class="st0" points="161.76,3.37 164.49,3.37 164.49,9.89 165.48,9.89 165.48,2.28 160.76,2.28 160.76,9.89 161.76,9.89 "/>
<path class="st0" d="M172.62,8.08h2.76l0.68,1.85h1.06l-3.05-8l-3.19,8h1.06L172.62,8.08z M174.01,4.43l1,2.56h-2L174.01,4.43z"/>
<polygon class="st0" points="183.45,6.35 186.18,6.35 186.18,9.89 187.18,9.89 187.18,2.28 186.18,2.28 186.18,5.26 183.45,5.26 
	183.45,2.28 182.45,2.28 182.45,9.89 183.45,9.89 "/>
<polygon class="st0" points="197.57,9.89 198.56,9.89 198.56,1.96 194.23,7.41 194.23,2.28 193.24,2.28 193.24,10.21 197.57,4.76 
	"/>
<path class="st0" d="M207.29,1.57c0.729,0.007,1.374-0.471,1.58-1.17L208.1,0c-0.112,0.45-0.568,0.724-1.018,0.612
	c-0.301-0.075-0.536-0.31-0.612-0.612l-0.78,0.4C205.906,1.101,206.557,1.576,207.29,1.57z"/>
<polygon class="st0" points="208.95,9.89 209.95,9.89 209.95,1.96 205.61,7.41 205.61,2.28 204.62,2.28 204.62,10.21 208.95,4.76 
	"/>
<path class="st0" d="M38.11,37.01c7.707-9.099,6.579-22.722-2.52-30.429S12.868,0.003,5.161,9.101
	C2.228,12.565,0.46,16.865,0.11,21.39h1.63C2.98,10.414,12.883,2.522,23.859,3.762C33.693,4.873,41.236,13.01,41.6,22.9v0.47h-3.11
	c0,9.334-7.566,16.9-16.9,16.9s-16.9-7.566-16.9-16.9H0c0.109,11.918,9.858,21.491,21.776,21.382
	c2.217-0.02,4.417-0.382,6.524-1.072c3.824-1.252,7.222-3.548,9.81-6.63V37.01z"/>
<path class="st0" d="M27.76,9.89l-2,3h0.12L26,12.94h0.09l0.57,0.27l0,0l0.19,0.09l0,0l2-3C28.49,10.24,28.13,10.08,27.76,9.89z"/>
<path class="st0" d="M21.59,37.71c7.918,0.008,14.394-6.305,14.59-14.22v-0.11l0,0l0,0c0.01-0.648-0.024-1.296-0.1-1.94l0,0
	c-0.5-4.237-2.827-8.043-6.37-10.42l-2,3l0.13,0.1l0,0c0.387,0.268,0.758,0.558,1.11,0.87l0,0l0.14,0.14l0,0l0.15,0.14l0,0
	l0.16,0.16l0,0c0.395,0.395,0.76,0.819,1.09,1.27l0,0c1.028,1.387,1.714,2.997,2,4.7c0.105,0.638,0.155,1.284,0.15,1.93l0,0l0,0
	c-0.021,2.757-1.065,5.409-2.93,7.44l0,0l-0.36,0.38l0,0l-0.18,0.17l0,0l-0.19,0.17l0,0l-0.19,0.17l0,0l-0.2,0.17l0,0l-0.2,0.16l0,0
	c-0.21,0.16-0.41,0.31-0.63,0.46l0,0c-0.058,0.043-0.118,0.083-0.18,0.12l0,0c-0.07,0.037-0.137,0.081-0.2,0.13l0,0l-0.2,0.12l0,0
	l-0.22,0.12l0,0l-0.2,0.11l0,0c-0.064,0.039-0.13,0.073-0.2,0.1h-0.1l-0.15,0.07h-0.07l-0.18,0.08l0,0l-0.2,0.08l0,0l-0.2,0.07H25.6
	l-0.2,0.08l0,0l-0.22,0.07l-0.22,0.06l0,0l-0.22,0.06l0,0h-0.17h-0.1l0,0l-0.26,0.06l0,0l-0.23,0.05l0,0h-0.23H23.7
	c-0.25,0-0.51,0.07-0.77,0.09h-0.07h-0.28h-1.56h-0.28h-0.08c-0.26,0-0.51,0-0.77-0.09l0,0h-0.23l0,0l-0.24-0.05l0,0l-0.26-0.06l0,0
	h-0.11h-0.17h-0.05l-0.22-0.06l0,0l-0.22-0.06l-0.21-0.07l0,0l-0.2-0.08h-0.06l-0.21-0.07l0,0l-0.2-0.08l0,0l-0.17-0.08h-0.08
	l-0.14-0.07h-0.1l-0.21-0.1l0,0l-0.43,0.03l0,0l-0.22-0.12l0,0l-0.2-0.12l0,0l-0.2-0.13l0,0c-0.062-0.037-0.122-0.077-0.18-0.12
	h-0.05c-0.21-0.15-0.42-0.3-0.62-0.46l0,0l-0.2-0.16l0,0l-0.2-0.17l0,0l-0.2-0.17l0,0l-0.18-0.17l0,0l-0.18-0.17l0,0l-0.36-0.38l0,0
	c-1.989-2.014-3.137-4.71-3.21-7.54H7C7.136,31.33,13.629,37.711,21.59,37.71z"/>
<path class="st0" d="M7.1,21.39h3.48c0.297-1.693,0.982-3.295,2-4.68l0,0c0.33-0.448,0.691-0.872,1.08-1.27l0,0l0.16-0.16l0,0
	l0.15-0.14l0,0L14.12,15l0,0c0.367-0.331,0.754-0.638,1.16-0.92l0,0l0.18-0.13l0,0l0.18-0.11l0,0l0.16-0.1l0,0l0.18-0.1l0,0
	l0.18-0.1l0,0l0.18-0.09l0,0l0.57-0.27h0.1l0.12-0.05h0.12h0.14h0.09h0.14h0.12h0.11h0.14h0.11h0.15h0.11h0.15h0.1h0.2h0.06
	l0.26-0.06l0,0h0.23h0.1h0.17h0.1h0.15h0.14h0.36h0.11h2.19h0.12h0.14h0.13h0.15h0.1h0.17h0.11h0.22l0,0l0.26,0.06h0.06h0.2h0.1
	h0.15h0.1l2.06-3.07c-7.528-2.89-15.973,0.87-18.863,8.398C7.524,19.405,7.26,20.388,7.1,21.39z"/>
<path class="st0" d="M25.97,14.73c-0.371-0.193-0.756-0.36-1.15-0.5l-1.92,2.85c0.428,0.083,0.844,0.217,1.24,0.4L25.97,14.73z"/>
<path class="st0" d="M28.38,29.59c1.64-1.673,2.569-3.917,2.59-6.26c0-0.12,0-0.25,0-0.37c-0.025-2.54-1.078-4.961-2.92-6.71
	c-0.386-0.362-0.797-0.696-1.23-1l-1.78,2.73c0.17,0.118,0.333,0.245,0.49,0.38c1.039,0.784,1.732,1.943,1.93,3.23h-4.84l-1.15,1.71
	l-0.91,1.37h6.9c-0.336,1.361-1.162,2.55-2.32,3.34c-2.092,1.352-4.769,1.402-6.91,0.13l-1.85,2.77
	c1.56,1.005,3.374,1.546,5.23,1.56C24.169,32.492,26.621,31.449,28.38,29.59z"/>
<path class="st0" d="M17.38,14.65c-0.476,0.231-0.92,0.523-1.32,0.87l2.2,2.24c1.032-0.524,2.172-0.802,3.33-0.81h0.16l2-3
	c-0.733-0.179-1.485-0.267-2.24-0.26C20.081,13.711,18.672,14.038,17.38,14.65z"/>
</svg>
