<?xml version="1.0" encoding="UTF-8" standalone="no"?>
<svg
   xmlns:dc="http://purl.org/dc/elements/1.1/"
   xmlns:cc="http://creativecommons.org/ns#"
   xmlns:rdf="http://www.w3.org/1999/02/22-rdf-syntax-ns#"
   xmlns:svg="http://www.w3.org/2000/svg"
   xmlns="http://www.w3.org/2000/svg"
   viewBox="0 0 1219.6267 517.84003"
   height="517.84003"
   width="1219.6267"
   xml:space="preserve"
   id="svg2"
   version="1.1"><metadata
     id="metadata8"><rdf:RDF><cc:Work
         rdf:about=""><dc:format>image/svg+xml</dc:format><dc:type
           rdf:resource="http://purl.org/dc/dcmitype/StillImage" /></cc:Work></rdf:RDF></metadata><defs
     id="defs6" /><g
     transform="matrix(1.3333333,0,0,-1.3333333,0,517.84)"
     id="g10"><g
       transform="scale(0.1)"
       id="g12"><path
         id="path14"
         style="fill:#e41b2b;fill-opacity:1;fill-rule:nonzero;stroke:none"
         d="m 3317.53,1432.4 c 0,63.8 45.8,135.9 126.09,135.9 84.6,0 122,-69.3 126.2,-135.9 z m 456.09,-76.2 c 0,216.31 -133.09,357.7 -324.39,357.7 -209.3,0 -327.1,-169.1 -327.1,-366 0,-184.3 102.59,-361.701 352.1,-361.701 84.5,0 178.8,19.301 275.8,80.401 l -44.41,126.1 c -78.89,-37.5 -130.29,-49.9 -198.19,-49.9 -92.8,0 -181.5,58.2 -185.7,152.5 h 451.89 z m -1831.09,76.2 c 0,63.8 45.8,135.9 126.09,135.9 84.71,0 122,-69.3 126.2,-135.9 z m 456.09,-76.2 c 0,216.31 -133.09,357.7 -324.39,357.7 -209.3,0 -327.1,-169.1 -327.1,-366 0,-184.3 102.59,-361.701 352.1,-361.701 84.5,0 178.7,19.301 275.8,80.401 l -44.41,126.1 c -78.99,-37.5 -130.29,-49.9 -198.19,-49.9 -92.9,0 -181.6,58.2 -185.8,152.5 h 451.99 z m 346.81,-223.4 h -81.81 v 171.9 h 72.1 c 95.61,0 146.91,-22.19 146.91,-84.6 0,-66.5 -67.91,-87.3 -137.2,-87.3 z m -77.6,433.9 h 81.8 c 81.7,0 112.29,-25 112.29,-68 0,-54 -49.89,-70.6 -133.09,-70.6 h -61 z m 266.19,-185.5 v 5.6 c 65.11,13.8 119.2,56.8 119.2,148.3 0,109.2 -91.7,149 -181.8,161.1 -27.59,3.7 -88.09,3.81 -121.79,3.81 h -285.31 v -700 h 239.6 c 26.51,0 66.01,0.09 96.8,0.99 126.01,6 281.6,51 281.6,213.9 0,99.8 -54.1,149.7 -148.3,166.3 z m 4430,-243.1 h -69.3 v 195.4 h 66.61 c 70.59,0 148.3,-11.1 148.3,-94.2 0,-81.79 -66.6,-101.2 -145.61,-101.2 z m 33.3,334.6 h -102.6 v 257.8 L 7095.13,1677 v -676.99 h 255.09 c 185.71,0 359.01,50 359.01,242.59 0,163.5 -140,230.1 -311.91,230.1 z m -1295.8,-299.4 c -19.09,-14.7 -58.99,-32.4 -111.99,-32.4 -67.9,0 -106.1,33.9 -106.1,86.8 0,53.1 41.2,82.5 126.7,85.5 l 91.39,2.9 z m -88.49,540.6 c -94.3,0 -185.6,-14.6 -281.4,-76.6 l 60.5,-120.8 c 47,26.5 107.5,47.1 178.3,47.1 69.2,0 131.09,-30.6 131.09,-104.2 v -11.89 l -120.99,-4.61 c -176.61,-5.9 -295.9,-82.5 -295.9,-229.8 0,-138.6 100,-226.901 232.59,-226.901 90,0 151.8,33.811 197.41,75.101 l 30.99,-61.29 h 156.2 v 454.59 c 0,184.2 -103.09,259.3 -288.79,259.3 z m -1896.7,-583.6 c -36.11,0 -63.8,12.5 -86,27.7 v 331.3 c 23.59,36 86,79 138.59,79 80.4,0 127.5,-51.3 127.5,-195.5 0,-119.2 -44.29,-242.5 -180.09,-242.5 z m 92.8,583.6 c -77.61,0 -137.21,-37.5 -188.51,-77.7 l -22.19,63.81 H 3830.72 V 659 l 199.61,61.012 V 1015.3 c 36.09,-19.402 83.19,-29.101 134.49,-29.101 206.51,0 331.2,176.001 331.2,383.901 0,221.8 -126.09,343.8 -286.89,343.8 z m 2263.18,-95.71 c 0,-243.89 -9.69,-371.46 -54.01,-429.65 -22.22,-29.13 -56.84,-48.56 -92.91,-54.05 l 55.45,-148.318 c 45.74,1.359 116.46,20.758 164.97,69.278 63.77,62.39 84.54,141.37 94.24,224.57 8.32,70.67 13.88,153.84 13.88,227.32 V 1542 h 156.08 v -541.98 h 199.63 v 699.99 H 6472.31 Z M 5507.07,1542 V 1000.02 H 5307.45 V 1542 h -194.03 v 158.01 h 612.67 L 5682.78,1542 Z M 4882.43,986.172 c -224.55,0 -339.58,164.918 -339.58,361.748 0,220.38 152.47,365.95 356.23,365.95 90.1,0 137.23,-18.03 174.64,-40.2 v -158.06 c -49.91,36.09 -90.14,48.57 -145.53,48.57 -115.05,0 -189.06,-84.58 -189.06,-206.56 0,-109.48 57.36,-216.25 186.3,-216.25 35.97,0 83.66,15.56 134.95,41.92 l 47.99,-130.58 c -58.24,-38.85 -155.24,-66.538 -225.94,-66.538 m -3413.93,0 c -303.59,0 -468.5,218.968 -468.5,493.428 0,277.25 194.07,504.58 512.85,504.58 84.57,0 158.01,-11.1 221.77,-44.38 v -178.83 c -84.58,49.89 -152.45,59.66 -214.83,59.66 -216.23,0 -295.97,-159.45 -295.97,-327.17 0,-187.13 100.54,-335.43 276.53,-335.43 77.67,0 140.2,21.54 215.02,61.73 l 53.91,-144.9 c -112.23,-70.7 -207.93,-88.688 -300.78,-88.688" /><path
         id="path16"
         style="fill:#e41b2b;fill-opacity:1;fill-rule:nonzero;stroke:none"
         d="m 7719.67,2867.58 c 12.57,-5.91 23.79,-12.95 33,-21.42 30.56,-27.96 44.94,-75.86 51.28,-122.75 4.42,-33.44 6.35,-70.09 5.2,-110.36 -46.86,-6.34 -98.39,-16.72 -153.36,-31.97 -85.31,-23.6 -156.04,-52.17 -214.5,-83.44 -36.16,-19.32 -67.67,-39.72 -94.92,-60.69 -37.49,-28.81 -71.66,-65.11 -80.7,-105.7 -2.66,-12.75 -3.14,-26.6 -1.72,-41.04 -37.11,50.72 -65.37,98.55 -86.74,142.79 -21.95,46.82 -37.18,98.51 -26.46,140 10.69,41.53 49.21,79.36 90.92,109.64 39.91,28.85 87.82,56.96 145.12,83.27 56.5,25.84 122.14,49.9 198.12,70.93 l -0.03,0.05 c 47.04,12.97 93.17,23.32 134.79,30.69 z m -409.84,-634.34 c -1.16,13.84 -0.67,27.07 2.05,39.28 8.94,40.46 43.23,76.85 80.67,105.8 26.75,20.54 57.53,40.53 92.98,59.67 28.91,-37.41 63.67,-76.84 104.36,-116.83 63.1,-62.08 123.19,-109.05 179.51,-144.04 34.82,-21.66 68.23,-38.74 100.02,-51.86 43.69,-18.05 92.22,-29.5 131.89,-17.03 12.37,4.07 24.61,10.57 36.4,19.04 -25.38,-57.5 -52.66,-105.9 -80.29,-146.52 -29.58,-42.42 -66.72,-81.47 -108.01,-92.92 -41.32,-11.51 -93.34,2.94 -140.41,23.91 -44.95,20.14 -93.24,47.58 -144.68,84.05 -50.62,36.02 -104.28,80.83 -160.48,136.11 l -0.03,-0.04 c -34.76,34.24 -66.78,69.02 -93.98,101.38 z m 754.7,-38.75 c -11.41,-7.93 -23.11,-14.12 -35.05,-17.87 -39.5,-12.49 -88.16,-0.99 -131.95,16.96 -31.16,12.89 -63.87,29.55 -98.17,50.69 17.94,43.74 34.71,93.56 49,148.79 22.2,85.69 32.83,161.21 34.98,227.49 1.36,40.97 -0.57,78.45 -5.09,112.55 -6.22,46.86 -20.57,94.61 -51.2,122.72 -9.71,8.69 -21.46,16.03 -34.69,22.01 62.49,6.78 118.04,7.34 167.04,3.73 51.53,-4.4 103.91,-17.05 134.48,-47.08 30.61,-30.03 44.12,-82.3 49.49,-133.56 5.04,-48.99 5.42,-104.53 -0.44,-167.31 -5.89,-61.86 -17.87,-130.73 -37.64,-207.05 h 0.05 c -12.28,-47.22 -26.39,-92.35 -40.81,-132.07" /></g></g></svg>